<svg width="44" height="44" viewBox="0 0 44 44" fill="none" xmlns="http://www.w3.org/2000/svg">
<rect width="44" height="44" rx="12" fill="#EAEAEA"/>
<path d="M14.4188 15.9669C14.4188 14.4007 15.0409 12.8986 16.1484 11.7912C17.2559 10.6837 18.7579 10.0615 20.3241 10.0615C21.8903 10.0615 23.3923 10.6837 24.4998 11.7912C25.6073 12.8986 26.2295 14.4007 26.2295 15.9669C26.2295 17.5331 25.6073 19.0351 24.4998 20.1426C23.3923 21.2501 21.8903 21.8722 20.3241 21.8722C18.7579 21.8722 17.2559 21.2501 16.1484 20.1426C15.0409 19.0351 14.4188 17.5331 14.4188 15.9669ZM20.1166 23.424C20.1609 23.4174 20.2055 23.4136 20.2502 23.4127H20.398C20.4432 23.4127 20.4877 23.4165 20.5316 23.424L28.0236 24.7417L28.0627 24.7499C29.443 25.0683 30.926 25.9443 31.2146 27.6461L31.2187 27.6759L31.3358 28.5766V28.5786C31.6069 30.6419 29.9709 32.1424 28.0391 32.1424C27.9964 32.1416 27.9539 32.1382 27.9117 32.1321H12.6091C10.6773 32.1321 9.04027 30.6306 9.31242 28.5663L9.4295 27.6738L9.43464 27.643C9.7222 25.9721 11.2175 25.0467 12.5948 24.7479L12.6246 24.7417L20.1166 23.424Z" fill="#484C52"/>
<ellipse cx="30.8146" cy="30.1367" rx="5.18518" ry="5.08547" fill="#00FF5E"/>
</svg>
