<svg width="64" height="64" viewBox="0 0 64 64" fill="none" xmlns="http://www.w3.org/2000/svg">
<rect x="12" y="52" width="40" height="40" rx="20" transform="rotate(-90 12 52)" fill="white"/>
<rect x="12" y="52" width="40" height="40" rx="20" transform="rotate(-90 12 52)" stroke="#EFEFEF" stroke-width="2"/>
<path d="M40.696 22.3861C40.6771 21.9996 40.5055 21.6365 40.2189 21.3766C39.9323 21.1167 39.5542 20.9812 39.1678 21L27.5083 21.5686C27.3146 21.5747 27.1241 21.6193 26.9479 21.6998C26.7716 21.7803 26.6132 21.8951 26.4818 22.0374C26.3504 22.1798 26.2486 22.3469 26.1825 22.529C26.1164 22.7112 26.0872 22.9046 26.0966 23.0981C26.1061 23.2917 26.154 23.4814 26.2375 23.6562C26.321 23.831 26.4385 23.9874 26.5832 24.1163C26.7278 24.2452 26.8967 24.3441 27.0799 24.407C27.2632 24.47 27.4571 24.4958 27.6504 24.483L35.7917 24.0859L22.8099 38.3989C22.5499 38.6856 22.4144 39.0638 22.4333 39.4503C22.4521 39.8368 22.6238 40.2 22.9104 40.46C23.1971 40.72 23.5752 40.8555 23.9618 40.8366C24.3483 40.8177 24.7115 40.6461 24.9715 40.3595L37.9532 26.0465L38.3503 34.1877C38.3756 34.5695 38.5498 34.926 38.8354 35.1806C39.121 35.4351 39.4952 35.5673 39.8773 35.5487C40.2595 35.5301 40.619 35.3621 40.8785 35.0809C41.138 34.7998 41.2767 34.428 41.2647 34.0456L40.696 22.3861Z" fill="#ED1C24"/>
</svg>
