<svg width="30" height="31" viewBox="0 0 30 31" fill="none" xmlns="http://www.w3.org/2000/svg">
<path d="M18.0895 0.244092C18.2457 0.400365 18.3335 0.612288 18.3335 0.833258C18.3335 1.05423 18.2457 1.26615 18.0895 1.42242L16.1787 3.33326L18.0895 5.24409C18.2413 5.40126 18.3253 5.61176 18.3234 5.83026C18.3215 6.04876 18.2338 6.25777 18.0793 6.41227C17.9248 6.56678 17.7158 6.65442 17.4973 6.65632C17.2788 6.65822 17.0683 6.57422 16.9112 6.42242L15.0003 4.51159L13.0895 6.42242C13.0121 6.49979 12.9202 6.56116 12.819 6.60301C12.7179 6.64486 12.6095 6.66638 12.5 6.66634C12.3906 6.6663 12.2822 6.64471 12.1811 6.60278C12.08 6.56086 11.9881 6.49943 11.9107 6.42201C11.8334 6.34458 11.772 6.25268 11.7302 6.15154C11.6883 6.0504 11.6668 5.942 11.6668 5.83255C11.6669 5.72309 11.6885 5.61471 11.7304 5.5136C11.7723 5.41249 11.8337 5.32063 11.9112 5.24326L13.822 3.33326L11.9112 1.42242C11.8338 1.345 11.7724 1.25309 11.7306 1.15195C11.6887 1.05081 11.6672 0.942421 11.6672 0.832964C11.6673 0.723507 11.6889 0.615129 11.7308 0.514018C11.7727 0.412908 11.8342 0.321045 11.9116 0.243675C11.989 0.166304 12.0809 0.104941 12.182 0.0630898C12.2832 0.0212382 12.3916 -0.000282781 12.501 -0.000244089C12.6105 -0.000205396 12.7189 0.021392 12.82 0.0633151C12.9211 0.105238 13.013 0.166666 13.0903 0.244092L15.0003 2.15493L16.9112 0.244092C17.0674 0.0878658 17.2794 0.00010281 17.5003 0.00010281C17.7213 0.00010281 17.9332 0.0878658 18.0895 0.244092ZM10.9987 22.2733C11.5566 22.4592 12.1577 22.4721 12.7231 22.3103C13.2886 22.1485 13.7919 21.8195 14.167 21.3666V30.0191L4.16699 26.2499V19.9966L10.9987 22.2733Z" fill="#24A855"/>
<path fill-rule="evenodd" clip-rule="evenodd" d="M25.8335 26.25L15.8335 30.0191V21.3666C16.2087 21.8196 16.712 22.1485 17.2774 22.3103C17.8428 22.4721 18.4439 22.4592 19.0019 22.2733L25.8335 19.9966V26.25ZM15.2727 7.54581C15.0962 7.48473 14.9042 7.48473 14.7277 7.54581L3.89604 11.2958L3.87687 11.3016C3.73125 11.3558 3.60367 11.4496 3.50854 11.5725L0.183537 15.7291C0.0995554 15.8339 0.042145 15.9575 0.0161946 16.0892C-0.00975585 16.221 -0.0034773 16.3571 0.034496 16.4859C0.0724692 16.6147 0.141012 16.7325 0.234287 16.8291C0.327562 16.9257 0.442806 16.9983 0.570204 17.0408L11.8202 20.7908C11.9906 20.8474 12.1747 20.8475 12.3451 20.7911C12.5155 20.7346 12.6632 20.6246 12.766 20.4775L15.0002 17.2858L17.2335 20.4775C17.3365 20.6248 17.4842 20.7349 17.6548 20.7914C17.8254 20.8478 18.0097 20.8476 18.1802 20.7908L29.4302 17.0408C29.5577 16.9984 29.673 16.9259 29.7664 16.8293C29.8597 16.7327 29.9284 16.615 29.9664 16.4862C30.0045 16.3573 30.0108 16.2212 29.9849 16.0894C29.9591 15.9576 29.9017 15.834 29.8177 15.7291L26.4927 11.5725C26.3931 11.4441 26.2581 11.3476 26.1044 11.295L15.2727 7.54581ZM15.0002 14.9516L23.286 12.0833L15.0002 9.21498L6.71437 12.0833L15.0002 14.9516Z" fill="#24A855"/>
</svg>
