<svg width="44" height="44" viewBox="0 0 44 44" fill="none" xmlns="http://www.w3.org/2000/svg">
<rect width="44" height="44" rx="12" fill="#EAEAEA"/>
<path d="M34.4339 20.6763C34.3189 20.1802 34.0971 19.7152 33.7839 19.3138C33.4661 18.9153 33.0651 18.5911 32.6089 18.3638C32.2492 18.1868 31.8588 18.0807 31.4589 18.0513C31.2552 15.8639 30.2857 13.8187 28.7214 12.2763C26.9402 10.4977 24.526 9.49878 22.0089 9.49878C19.4918 9.49878 17.0776 10.4977 15.2964 12.2763C13.7322 13.8187 12.7627 15.8639 12.5589 18.0513C12.1591 18.0807 11.7687 18.1868 11.4089 18.3638C10.9505 18.5875 10.5488 18.9124 10.2339 19.3138C9.91839 19.7144 9.69628 20.1804 9.58383 20.6778C9.47137 21.1751 9.47141 21.6914 9.58392 22.1888L11.5464 30.2263C11.8842 31.4578 12.6182 32.5438 13.6349 33.3165C14.6516 34.0892 15.8944 34.5055 17.1714 34.5013H26.8089C28.0903 34.5026 29.3365 34.0823 30.3553 33.3052C31.3741 32.5281 32.1089 31.4374 32.4464 30.2013L34.3964 22.1888C34.5214 21.6938 34.5339 21.1763 34.4339 20.6763ZM18.0589 28.7013C18.0589 28.9499 17.9602 29.1884 17.7843 29.3642C17.6085 29.54 17.3701 29.6388 17.1214 29.6388C16.8728 29.6388 16.6343 29.54 16.4585 29.3642C16.2827 29.1884 16.1839 28.9499 16.1839 28.7013V23.7763C16.1839 23.5276 16.2827 23.2892 16.4585 23.1133C16.6343 22.9375 16.8728 22.8388 17.1214 22.8388C17.3701 22.8388 17.6085 22.9375 17.7843 23.1133C17.9602 23.2892 18.0589 23.5276 18.0589 23.7763V28.7013ZM22.9464 28.7013C22.9464 28.8244 22.9222 28.9463 22.8751 29.06C22.8279 29.1738 22.7589 29.2771 22.6718 29.3642C22.5848 29.4512 22.4814 29.5203 22.3677 29.5674C22.2539 29.6145 22.132 29.6388 22.0089 29.6388C21.8858 29.6388 21.7639 29.6145 21.6502 29.5674C21.5364 29.5203 21.4331 29.4512 21.346 29.3642C21.259 29.2771 21.1899 29.1738 21.1428 29.06C21.0957 28.9463 21.0714 28.8244 21.0714 28.7013V23.7763C21.0714 23.5276 21.1702 23.2892 21.346 23.1133C21.5218 22.9375 21.7603 22.8388 22.0089 22.8388C22.2576 22.8388 22.496 22.9375 22.6718 23.1133C22.8477 23.2892 22.9464 23.5276 22.9464 23.7763V28.7013ZM27.8339 28.7013C27.8339 28.9499 27.7352 29.1884 27.5593 29.3642C27.3835 29.54 27.1451 29.6388 26.8964 29.6388C26.6478 29.6388 26.4093 29.54 26.2335 29.3642C26.0577 29.1884 25.9589 28.9499 25.9589 28.7013V23.7763C25.9589 23.5276 26.0577 23.2892 26.2335 23.1133C26.4093 22.9375 26.6478 22.8388 26.8964 22.8388C27.1451 22.8388 27.3835 22.9375 27.5593 23.1133C27.7352 23.2892 27.8339 23.5276 27.8339 23.7763V28.7013ZM14.4464 18.0263C14.652 16.3483 15.4184 14.789 16.6214 13.6013C18.0527 12.1769 19.9897 11.3773 22.0089 11.3773C24.0281 11.3773 25.9652 12.1769 27.3964 13.6013C28.5994 14.789 29.3658 16.3483 29.5714 18.0263H14.4464Z" fill="#484C52"/>
</svg>
