<svg width="182" height="155" viewBox="0 0 182 155" fill="none" xmlns="http://www.w3.org/2000/svg">
<g clip-path="url(#clip0_3005_4295)">
<rect x="0.5" y="0.5" width="180.549" height="153.365" rx="13.4949" fill="white" stroke="#E0E0E0"/>
<path d="M23.1678 60.3992V44.9032H20.9968L21.7378 42.1992H25.8718V60.3992H23.1678ZM28.9948 60.3992V57.9942C29.6102 57.4828 30.3165 56.8892 31.1138 56.2132C31.9112 55.5285 32.7215 54.8048 33.5448 54.0422C34.3682 53.2708 35.1265 52.5038 35.8198 51.7412C36.5132 50.9698 37.0722 50.2418 37.4968 49.5572C37.9302 48.8638 38.1468 48.2615 38.1468 47.7502C38.1468 47.1695 38.0038 46.6408 37.7178 46.1642C37.4405 45.6788 37.0635 45.2932 36.5868 45.0072C36.1102 44.7125 35.5815 44.5652 35.0008 44.5652C34.4202 44.5652 33.8872 44.7125 33.4018 45.0072C32.9252 45.2932 32.5395 45.6788 32.2448 46.1642C31.9588 46.6408 31.8158 47.1695 31.8158 47.7502H29.1118C29.1118 46.6495 29.3805 45.6572 29.9178 44.7732C30.4638 43.8805 31.1788 43.1742 32.0628 42.6542C32.9555 42.1255 33.9348 41.8612 35.0008 41.8612C36.0755 41.8612 37.0548 42.1255 37.9388 42.6542C38.8228 43.1828 39.5292 43.8935 40.0578 44.7862C40.5865 45.6702 40.8508 46.6582 40.8508 47.7502C40.8508 48.3568 40.7252 48.9808 40.4738 49.6222C40.2225 50.2635 39.8715 50.9178 39.4208 51.5852C38.9788 52.2525 38.4632 52.9285 37.8738 53.6132C37.2845 54.2978 36.6518 54.9825 35.9758 55.6672C35.2998 56.3518 34.6108 57.0278 33.9088 57.6952H41.0068V60.3992H28.9948Z" fill="#333333"/>
<path d="M20.0884 21.6217H21.5464L24.6004 30.0217H23.2804L22.6984 28.4257H18.9364L18.3604 30.0217H17.0344L20.0884 21.6217ZM19.3984 27.1777H22.2364L20.8144 23.2777L19.3984 27.1777ZM28.2885 30.0217H26.6865L24.4965 24.0097H25.8285L27.4845 28.5817L29.1465 24.0097H30.4725L28.2885 30.0217ZM35.7272 24.0217H36.9752V30.1777C36.9752 30.5897 36.8872 30.9697 36.7112 31.3177C36.5392 31.6657 36.3052 31.9657 36.0092 32.2177C35.7132 32.4737 35.3732 32.6717 34.9892 32.8117C34.6092 32.9517 34.2112 33.0217 33.7952 33.0217C33.3752 33.0217 32.9712 32.9317 32.5832 32.7517C32.1952 32.5757 31.8532 32.3357 31.5572 32.0317C31.2652 31.7277 31.0472 31.3837 30.9032 30.9997L32.0492 30.4837C32.1292 30.7317 32.2572 30.9517 32.4332 31.1437C32.6132 31.3357 32.8212 31.4877 33.0572 31.5997C33.2972 31.7117 33.5432 31.7677 33.7952 31.7677C34.0432 31.7677 34.2812 31.7277 34.5092 31.6477C34.7412 31.5717 34.9472 31.4637 35.1272 31.3237C35.3112 31.1837 35.4572 31.0157 35.5652 30.8197C35.6732 30.6237 35.7272 30.4097 35.7272 30.1777V29.1637C35.5312 29.4677 35.2792 29.7137 34.9712 29.9017C34.6632 30.0857 34.3052 30.1777 33.8972 30.1777C33.4732 30.1777 33.0732 30.0957 32.6972 29.9317C32.3212 29.7677 31.9912 29.5417 31.7072 29.2537C31.4232 28.9617 31.2012 28.6257 31.0412 28.2457C30.8812 27.8657 30.8012 27.4577 30.8012 27.0217C30.8012 26.5857 30.8812 26.1777 31.0412 25.7977C31.2012 25.4137 31.4232 25.0777 31.7072 24.7897C31.9912 24.4977 32.3212 24.2697 32.6972 24.1057C33.0732 23.9417 33.4732 23.8597 33.8972 23.8597C34.3052 23.8597 34.6632 23.9537 34.9712 24.1417C35.2792 24.3257 35.5312 24.5717 35.7272 24.8797V24.0217ZM33.9092 28.9717C34.2572 28.9717 34.5612 28.8837 34.8212 28.7077C35.0812 28.5277 35.2832 28.2897 35.4272 27.9937C35.5712 27.6977 35.6432 27.3737 35.6432 27.0217C35.6432 26.6617 35.5692 26.3357 35.4212 26.0437C35.2772 25.7477 35.0752 25.5117 34.8152 25.3357C34.5552 25.1557 34.2532 25.0657 33.9092 25.0657C33.5732 25.0657 33.2652 25.1537 32.9852 25.3297C32.7092 25.5057 32.4892 25.7417 32.3252 26.0377C32.1612 26.3337 32.0792 26.6617 32.0792 27.0217C32.0792 27.3817 32.1612 27.7097 32.3252 28.0057C32.4932 28.3017 32.7152 28.5377 32.9912 28.7137C33.2712 28.8857 33.5772 28.9717 33.9092 28.9717ZM38.8291 30.1777C38.6451 30.1777 38.4891 30.1137 38.3611 29.9857C38.2371 29.8577 38.1751 29.7017 38.1751 29.5177C38.1751 29.3377 38.2371 29.1837 38.3611 29.0557C38.4891 28.9277 38.6451 28.8637 38.8291 28.8637C39.0131 28.8637 39.1691 28.9277 39.2971 29.0557C39.4251 29.1837 39.4891 29.3377 39.4891 29.5177C39.4891 29.7017 39.4251 29.8577 39.2971 29.9857C39.1691 30.1137 39.0131 30.1777 38.8291 30.1777ZM47.1414 30.1777C46.4694 30.1777 45.8834 30.0137 45.3834 29.6857C44.8874 29.3577 44.5014 28.9177 44.2254 28.3657C43.9534 27.8097 43.8174 27.1937 43.8174 26.5177V21.6217H45.0654V26.5177C45.0654 26.9577 45.1454 27.3617 45.3054 27.7297C45.4694 28.0937 45.7054 28.3857 46.0134 28.6057C46.3254 28.8217 46.7014 28.9297 47.1414 28.9297C47.5934 28.9297 47.9734 28.8217 48.2814 28.6057C48.5894 28.3857 48.8214 28.0937 48.9774 27.7297C49.1374 27.3617 49.2174 26.9577 49.2174 26.5177V21.6217H50.4654V26.5177C50.4654 27.0257 50.3874 27.5017 50.2314 27.9457C50.0754 28.3857 49.8514 28.7737 49.5594 29.1097C49.2674 29.4457 48.9174 29.7077 48.5094 29.8957C48.1014 30.0837 47.6454 30.1777 47.1414 30.1777ZM57.151 26.2597V30.0217H55.903V26.5657C55.903 26.2977 55.837 26.0537 55.705 25.8337C55.577 25.6137 55.403 25.4397 55.183 25.3117C54.967 25.1797 54.723 25.1137 54.451 25.1137C54.187 25.1137 53.945 25.1797 53.725 25.3117C53.505 25.4397 53.329 25.6137 53.197 25.8337C53.065 26.0537 52.999 26.2977 52.999 26.5657V30.0217H51.751V24.0217H52.999V24.6577C53.207 24.4097 53.463 24.2137 53.767 24.0697C54.071 23.9257 54.399 23.8537 54.751 23.8537C55.195 23.8537 55.599 23.9617 55.963 24.1777C56.327 24.3937 56.615 24.6837 56.827 25.0477C57.043 25.4117 57.151 25.8157 57.151 26.2597ZM58.3487 24.0217H59.5967V30.0217H58.3487V24.0217ZM58.9847 23.1517C58.7927 23.1517 58.6327 23.0897 58.5047 22.9657C58.3767 22.8417 58.3127 22.6857 58.3127 22.4977C58.3127 22.3137 58.3767 22.1597 58.5047 22.0357C58.6327 21.9077 58.7907 21.8437 58.9787 21.8437C59.1627 21.8437 59.3187 21.9077 59.4467 22.0357C59.5747 22.1597 59.6387 22.3137 59.6387 22.4977C59.6387 22.6857 59.5747 22.8417 59.4467 22.9657C59.3227 23.0897 59.1687 23.1517 58.9847 23.1517ZM64.2003 25.2697H62.9403L62.9343 30.0217H61.6863L61.6923 25.2697H60.7383V24.0217H61.6923L61.6863 22.1377H62.9343L62.9403 24.0217H64.2003V25.2697ZM66.9924 30.1357C66.6764 30.1157 66.3684 30.0517 66.0684 29.9437C65.7684 29.8357 65.5044 29.6897 65.2764 29.5057C65.0524 29.3177 64.8844 29.0977 64.7724 28.8457L65.8344 28.3897C65.8864 28.4977 65.9764 28.6037 66.1044 28.7077C66.2364 28.8117 66.3904 28.8977 66.5664 28.9657C66.7424 29.0297 66.9264 29.0617 67.1184 29.0617C67.3064 29.0617 67.4804 29.0357 67.6404 28.9837C67.8044 28.9277 67.9384 28.8437 68.0424 28.7317C68.1464 28.6197 68.1984 28.4857 68.1984 28.3297C68.1984 28.1537 68.1384 28.0177 68.0184 27.9217C67.9024 27.8217 67.7564 27.7457 67.5804 27.6937C67.4044 27.6417 67.2284 27.5917 67.0524 27.5437C66.6604 27.4557 66.3004 27.3357 65.9724 27.1837C65.6484 27.0277 65.3904 26.8297 65.1984 26.5897C65.0064 26.3457 64.9104 26.0477 64.9104 25.6957C64.9104 25.3117 65.0144 24.9797 65.2224 24.6997C65.4304 24.4157 65.7024 24.1977 66.0384 24.0457C66.3784 23.8937 66.7404 23.8177 67.1244 23.8177C67.6044 23.8177 68.0444 23.9197 68.4444 24.1237C68.8444 24.3277 69.1504 24.6077 69.3624 24.9637L68.3724 25.5517C68.3124 25.4317 68.2224 25.3237 68.1024 25.2277C67.9824 25.1317 67.8464 25.0557 67.6944 24.9997C67.5424 24.9397 67.3844 24.9057 67.2204 24.8977C67.0164 24.8897 66.8264 24.9137 66.6504 24.9697C66.4784 25.0217 66.3404 25.1057 66.2364 25.2217C66.1324 25.3377 66.0804 25.4857 66.0804 25.6657C66.0804 25.8417 66.1424 25.9737 66.2664 26.0617C66.3904 26.1457 66.5464 26.2137 66.7344 26.2657C66.9264 26.3177 67.1224 26.3757 67.3224 26.4397C67.6784 26.5517 68.0124 26.6897 68.3244 26.8537C68.6364 27.0137 68.8884 27.2117 69.0804 27.4477C69.2724 27.6837 69.3644 27.9717 69.3564 28.3117C69.3564 28.6877 69.2424 29.0177 69.0144 29.3017C68.7904 29.5857 68.4984 29.8017 68.1384 29.9497C67.7784 30.0977 67.3964 30.1597 66.9924 30.1357ZM73.2666 30.0217V21.6217H76.1586C76.6106 21.6217 77.0186 21.7337 77.3826 21.9577C77.7506 22.1817 78.0426 22.4837 78.2586 22.8637C78.4786 23.2437 78.5886 23.6637 78.5886 24.1237C78.5886 24.5917 78.4766 25.0157 78.2526 25.3957C78.0326 25.7717 77.7386 26.0717 77.3706 26.2957C77.0026 26.5197 76.5986 26.6317 76.1586 26.6317H74.5146V30.0217H73.2666ZM74.5146 25.3837H76.0326C76.2726 25.3837 76.4906 25.3237 76.6866 25.2037C76.8866 25.0837 77.0446 24.9237 77.1606 24.7237C77.2806 24.5237 77.3406 24.2977 77.3406 24.0457C77.3406 23.7937 77.2806 23.5677 77.1606 23.3677C77.0446 23.1637 76.8866 23.0037 76.6866 22.8877C76.4906 22.7677 76.2726 22.7077 76.0326 22.7077H74.5146V25.3837ZM81.9183 30.1777C81.3663 30.1777 80.8623 30.0357 80.4063 29.7517C79.9543 29.4677 79.5923 29.0877 79.3203 28.6117C79.0523 28.1317 78.9183 27.6017 78.9183 27.0217C78.9183 26.5817 78.9963 26.1717 79.1523 25.7917C79.3083 25.4077 79.5223 25.0717 79.7943 24.7837C80.0703 24.4917 80.3903 24.2637 80.7543 24.0997C81.1183 23.9357 81.5063 23.8537 81.9183 23.8537C82.3783 23.8537 82.8003 23.9497 83.1843 24.1417C83.5683 24.3297 83.8963 24.5917 84.1683 24.9277C84.4403 25.2597 84.6403 25.6437 84.7684 26.0797C84.8963 26.5117 84.9343 26.9717 84.8823 27.4597H80.2563C80.3083 27.7357 80.4083 27.9857 80.5563 28.2097C80.7083 28.4297 80.9003 28.6037 81.1323 28.7317C81.3683 28.8597 81.6303 28.9257 81.9183 28.9297C82.2223 28.9297 82.4983 28.8537 82.7463 28.7017C82.9983 28.5497 83.2043 28.3397 83.3643 28.0717L84.6304 28.3657C84.3903 28.8977 84.0283 29.3337 83.5443 29.6737C83.0603 30.0097 82.5183 30.1777 81.9183 30.1777ZM80.2143 26.5057H83.6223C83.5823 26.2177 83.4803 25.9577 83.3163 25.7257C83.1563 25.4897 82.9543 25.3037 82.7103 25.1677C82.4703 25.0277 82.2063 24.9577 81.9183 24.9577C81.6343 24.9577 81.3703 25.0257 81.1263 25.1617C80.8863 25.2977 80.6863 25.4837 80.5263 25.7197C80.3703 25.9517 80.2663 26.2137 80.2143 26.5057ZM85.876 30.0217V24.0217H87.124V24.6577C87.332 24.4097 87.588 24.2137 87.892 24.0697C88.196 23.9257 88.524 23.8537 88.876 23.8537C89.1 23.8537 89.322 23.8837 89.542 23.9437L89.044 25.2037C88.888 25.1437 88.732 25.1137 88.576 25.1137C88.312 25.1137 88.07 25.1797 87.85 25.3117C87.63 25.4397 87.454 25.6137 87.322 25.8337C87.19 26.0537 87.124 26.2977 87.124 26.5657V30.0217H85.876ZM97.1585 30.1777C96.5905 30.1777 96.0565 30.0657 95.5565 29.8417C95.0565 29.6137 94.6165 29.3017 94.2365 28.9057C93.8605 28.5057 93.5645 28.0417 93.3485 27.5137C93.1365 26.9857 93.0305 26.4217 93.0305 25.8217C93.0305 25.2217 93.1365 24.6577 93.3485 24.1297C93.5645 23.6017 93.8605 23.1397 94.2365 22.7437C94.6165 22.3437 95.0565 22.0317 95.5565 21.8077C96.0565 21.5797 96.5905 21.4657 97.1585 21.4657C97.8385 21.4657 98.4645 21.6237 99.0365 21.9397C99.6085 22.2557 100.083 22.6757 100.459 23.1997L99.3485 23.7937C99.0885 23.4657 98.7665 23.2037 98.3825 23.0077C97.9985 22.8117 97.5905 22.7137 97.1585 22.7137C96.7585 22.7137 96.3845 22.7957 96.0365 22.9597C95.6885 23.1237 95.3825 23.3477 95.1185 23.6317C94.8545 23.9157 94.6485 24.2457 94.5005 24.6217C94.3525 24.9977 94.2785 25.3977 94.2785 25.8217C94.2785 26.2497 94.3525 26.6517 94.5005 27.0277C94.6485 27.3997 94.8545 27.7297 95.1185 28.0177C95.3865 28.3017 95.6945 28.5257 96.0425 28.6897C96.3905 28.8497 96.7625 28.9297 97.1585 28.9297C97.5985 28.9297 98.0085 28.8317 98.3885 28.6357C98.7725 28.4357 99.0925 28.1717 99.3485 27.8437L100.459 28.4497C100.083 28.9737 99.6085 29.3937 99.0365 29.7097C98.4645 30.0217 97.8385 30.1777 97.1585 30.1777ZM101.351 27.7717V24.0217H102.599V27.4657C102.599 27.7337 102.665 27.9777 102.797 28.1977C102.929 28.4177 103.105 28.5937 103.325 28.7257C103.545 28.8537 103.787 28.9177 104.051 28.9177C104.319 28.9177 104.561 28.8537 104.777 28.7257C104.997 28.5937 105.171 28.4177 105.299 28.1977C105.431 27.9777 105.497 27.7337 105.497 27.4657V24.0217H106.745L106.751 30.0217H105.503L105.497 29.3737C105.293 29.6217 105.039 29.8177 104.735 29.9617C104.431 30.1057 104.105 30.1777 103.757 30.1777C103.313 30.1777 102.909 30.0697 102.545 29.8537C102.181 29.6377 101.891 29.3477 101.675 28.9837C101.459 28.6197 101.351 28.2157 101.351 27.7717ZM109.754 30.1357C109.438 30.1157 109.13 30.0517 108.83 29.9437C108.53 29.8357 108.266 29.6897 108.038 29.5057C107.814 29.3177 107.646 29.0977 107.534 28.8457L108.596 28.3897C108.648 28.4977 108.738 28.6037 108.866 28.7077C108.998 28.8117 109.152 28.8977 109.328 28.9657C109.504 29.0297 109.688 29.0617 109.88 29.0617C110.068 29.0617 110.242 29.0357 110.402 28.9837C110.566 28.9277 110.7 28.8437 110.804 28.7317C110.908 28.6197 110.96 28.4857 110.96 28.3297C110.96 28.1537 110.9 28.0177 110.78 27.9217C110.664 27.8217 110.518 27.7457 110.342 27.6937C110.166 27.6417 109.99 27.5917 109.814 27.5437C109.422 27.4557 109.062 27.3357 108.734 27.1837C108.41 27.0277 108.152 26.8297 107.96 26.5897C107.768 26.3457 107.672 26.0477 107.672 25.6957C107.672 25.3117 107.776 24.9797 107.984 24.6997C108.192 24.4157 108.464 24.1977 108.8 24.0457C109.14 23.8937 109.502 23.8177 109.886 23.8177C110.366 23.8177 110.806 23.9197 111.206 24.1237C111.606 24.3277 111.912 24.6077 112.124 24.9637L111.134 25.5517C111.074 25.4317 110.984 25.3237 110.864 25.2277C110.744 25.1317 110.608 25.0557 110.456 24.9997C110.304 24.9397 110.146 24.9057 109.982 24.8977C109.778 24.8897 109.588 24.9137 109.412 24.9697C109.24 25.0217 109.102 25.1057 108.998 25.2217C108.894 25.3377 108.842 25.4857 108.842 25.6657C108.842 25.8417 108.904 25.9737 109.028 26.0617C109.152 26.1457 109.308 26.2137 109.496 26.2657C109.688 26.3177 109.884 26.3757 110.084 26.4397C110.44 26.5517 110.774 26.6897 111.086 26.8537C111.398 27.0137 111.65 27.2117 111.842 27.4477C112.034 27.6837 112.126 27.9717 112.118 28.3117C112.118 28.6877 112.004 29.0177 111.776 29.3017C111.552 29.5857 111.26 29.8017 110.9 29.9497C110.54 30.0977 110.158 30.1597 109.754 30.1357ZM116.314 25.2697H115.054L115.048 30.0217H113.8L113.806 25.2697H112.852V24.0217H113.806L113.8 22.1377H115.048L115.054 24.0217H116.314V25.2697ZM119.887 30.1777C119.335 30.1777 118.831 30.0357 118.375 29.7517C117.923 29.4677 117.561 29.0877 117.289 28.6117C117.021 28.1317 116.887 27.6017 116.887 27.0217C116.887 26.5817 116.965 26.1717 117.121 25.7917C117.277 25.4077 117.491 25.0717 117.763 24.7837C118.039 24.4917 118.359 24.2637 118.723 24.0997C119.087 23.9357 119.475 23.8537 119.887 23.8537C120.439 23.8537 120.941 23.9957 121.393 24.2797C121.849 24.5637 122.211 24.9457 122.479 25.4257C122.751 25.9057 122.887 26.4377 122.887 27.0217C122.887 27.4577 122.809 27.8657 122.653 28.2457C122.497 28.6257 122.281 28.9617 122.005 29.2537C121.733 29.5417 121.415 29.7677 121.051 29.9317C120.691 30.0957 120.303 30.1777 119.887 30.1777ZM119.887 28.9297C120.219 28.9297 120.517 28.8417 120.781 28.6657C121.045 28.4897 121.253 28.2577 121.405 27.9697C121.561 27.6777 121.639 27.3617 121.639 27.0217C121.639 26.6737 121.559 26.3537 121.399 26.0617C121.243 25.7697 121.033 25.5377 120.769 25.3657C120.505 25.1897 120.211 25.1017 119.887 25.1017C119.559 25.1017 119.261 25.1897 118.993 25.3657C118.729 25.5417 118.519 25.7757 118.363 26.0677C118.211 26.3597 118.135 26.6777 118.135 27.0217C118.135 27.3777 118.215 27.6997 118.375 27.9877C118.535 28.2757 118.747 28.5057 119.011 28.6777C119.279 28.8457 119.571 28.9297 119.887 28.9297ZM123.856 30.0217V24.0217H125.104V24.6577C125.312 24.4097 125.566 24.2137 125.866 24.0697C126.17 23.9257 126.498 23.8537 126.85 23.8537C127.278 23.8537 127.672 23.9577 128.032 24.1657C128.392 24.3697 128.678 24.6417 128.89 24.9817C129.102 24.6417 129.384 24.3697 129.736 24.1657C130.092 23.9577 130.484 23.8537 130.912 23.8537C131.356 23.8537 131.76 23.9617 132.124 24.1777C132.488 24.3937 132.778 24.6837 132.994 25.0477C133.21 25.4117 133.318 25.8157 133.318 26.2597V30.0217H132.07V26.5777C132.07 26.3137 132.006 26.0717 131.878 25.8517C131.75 25.6317 131.578 25.4537 131.362 25.3177C131.146 25.1817 130.906 25.1137 130.642 25.1137C130.378 25.1137 130.138 25.1777 129.922 25.3057C129.706 25.4337 129.534 25.6077 129.406 25.8277C129.278 26.0477 129.214 26.2977 129.214 26.5777V30.0217H127.966V26.5777C127.966 26.2977 127.902 26.0477 127.774 25.8277C127.646 25.6077 127.472 25.4337 127.252 25.3057C127.036 25.1777 126.796 25.1137 126.532 25.1137C126.272 25.1137 126.032 25.1817 125.812 25.3177C125.596 25.4537 125.424 25.6317 125.296 25.8517C125.168 26.0717 125.104 26.3137 125.104 26.5777V30.0217H123.856ZM137.043 30.1777C136.491 30.1777 135.987 30.0357 135.531 29.7517C135.079 29.4677 134.717 29.0877 134.445 28.6117C134.177 28.1317 134.043 27.6017 134.043 27.0217C134.043 26.5817 134.121 26.1717 134.277 25.7917C134.433 25.4077 134.647 25.0717 134.919 24.7837C135.195 24.4917 135.515 24.2637 135.879 24.0997C136.243 23.9357 136.631 23.8537 137.043 23.8537C137.503 23.8537 137.925 23.9497 138.309 24.1417C138.693 24.3297 139.021 24.5917 139.293 24.9277C139.565 25.2597 139.765 25.6437 139.893 26.0797C140.021 26.5117 140.059 26.9717 140.007 27.4597H135.381C135.433 27.7357 135.533 27.9857 135.681 28.2097C135.833 28.4297 136.025 28.6037 136.257 28.7317C136.493 28.8597 136.755 28.9257 137.043 28.9297C137.347 28.9297 137.623 28.8537 137.871 28.7017C138.123 28.5497 138.329 28.3397 138.489 28.0717L139.755 28.3657C139.515 28.8977 139.153 29.3337 138.669 29.6737C138.185 30.0097 137.643 30.1777 137.043 30.1777ZM135.339 26.5057H138.747C138.707 26.2177 138.605 25.9577 138.441 25.7257C138.281 25.4897 138.079 25.3037 137.835 25.1677C137.595 25.0277 137.331 24.9577 137.043 24.9577C136.759 24.9577 136.495 25.0257 136.251 25.1617C136.011 25.2977 135.811 25.4837 135.651 25.7197C135.495 25.9517 135.391 26.2137 135.339 26.5057ZM141.001 30.0217V24.0217H142.249V24.6577C142.457 24.4097 142.713 24.2137 143.017 24.0697C143.321 23.9257 143.649 23.8537 144.001 23.8537C144.225 23.8537 144.447 23.8837 144.667 23.9437L144.169 25.2037C144.013 25.1437 143.857 25.1137 143.701 25.1137C143.437 25.1137 143.195 25.1797 142.975 25.3117C142.755 25.4397 142.579 25.6137 142.447 25.8337C142.315 26.0537 142.249 26.2977 142.249 26.5657V30.0217H141.001Z" fill="#333333"/>
<path d="M75.2495 54.8592C74.8262 54.8592 74.4462 54.7609 74.1095 54.5642C73.7762 54.3676 73.5128 54.1042 73.3195 53.7742C73.1262 53.4442 73.0295 53.0776 73.0295 52.6742H74.0695C74.0695 52.8842 74.1195 53.0759 74.2195 53.2492C74.3195 53.4226 74.4578 53.5609 74.6345 53.6642C74.8112 53.7676 75.0162 53.8192 75.2495 53.8192C75.4595 53.8192 75.6545 53.7676 75.8345 53.6642C76.0145 53.5609 76.1595 53.4226 76.2695 53.2492C76.3795 53.0759 76.4345 52.8842 76.4345 52.6742C76.4345 52.4076 76.3645 52.1842 76.2245 52.0042C76.0845 51.8242 75.8895 51.6909 75.6395 51.6042C75.3928 51.5142 75.1078 51.4692 74.7845 51.4692V50.6492C75.2245 50.6492 75.5762 50.5626 75.8395 50.3892C76.1028 50.2159 76.2345 49.9576 76.2345 49.6142C76.2345 49.4342 76.1862 49.2709 76.0895 49.1242C75.9962 48.9742 75.8712 48.8559 75.7145 48.7692C75.5612 48.6792 75.3962 48.6342 75.2195 48.6342C75.0362 48.6342 74.8595 48.6792 74.6895 48.7692C74.5228 48.8559 74.3862 48.9742 74.2795 49.1242C74.1728 49.2709 74.1195 49.4342 74.1195 49.6142H73.0795C73.0795 49.3376 73.1362 49.0776 73.2495 48.8342C73.3662 48.5876 73.5228 48.3726 73.7195 48.1892C73.9195 48.0026 74.1462 47.8576 74.3995 47.7542C74.6562 47.6476 74.9245 47.5942 75.2045 47.5942C75.5712 47.5942 75.9112 47.6859 76.2245 47.8692C76.5412 48.0492 76.7945 48.2926 76.9845 48.5992C77.1778 48.9026 77.2745 49.2409 77.2745 49.6142C77.2745 49.9109 77.2012 50.1926 77.0545 50.4592C76.9112 50.7226 76.7112 50.9092 76.4545 51.0192C76.6778 51.0992 76.8645 51.2259 77.0145 51.3992C77.1678 51.5692 77.2828 51.7659 77.3595 51.9892C77.4362 52.2092 77.4745 52.4376 77.4745 52.6742C77.4745 53.0742 77.3728 53.4409 77.1695 53.7742C76.9662 54.1042 76.6945 54.3676 76.3545 54.5642C76.0178 54.7609 75.6495 54.8592 75.2495 54.8592ZM78.7233 54.8592C78.57 54.8592 78.44 54.8059 78.3333 54.6992C78.23 54.5926 78.1783 54.4626 78.1783 54.3092C78.1783 54.1592 78.23 54.0309 78.3333 53.9242C78.44 53.8176 78.57 53.7642 78.7233 53.7642C78.8767 53.7642 79.0067 53.8176 79.1133 53.9242C79.22 54.0309 79.2733 54.1592 79.2733 54.3092C79.2733 54.4626 79.22 54.5926 79.1133 54.6992C79.0067 54.8059 78.8767 54.8592 78.7233 54.8592ZM83.2729 54.7292V52.9392H80.2779V51.8942L83.0229 47.7292H84.3129V51.8992H84.9529V52.9392H84.3129V54.7292H83.2729ZM81.4879 51.8942L83.2729 51.8992L83.2629 49.1642L81.4879 51.8942ZM86.5018 54.7292L90.5418 47.7292H91.7418L87.7018 54.7292H86.5018ZM87.3468 50.6642C87.0934 50.6642 86.8601 50.6026 86.6468 50.4792C86.4368 50.3526 86.2684 50.1842 86.1418 49.9742C86.0151 49.7609 85.9518 49.5259 85.9518 49.2692C85.9518 49.0026 86.0151 48.7642 86.1418 48.5542C86.2718 48.3442 86.4418 48.1792 86.6518 48.0592C86.8651 47.9359 87.0968 47.8742 87.3468 47.8742C87.6034 47.8742 87.8368 47.9376 88.0468 48.0642C88.2568 48.1876 88.4251 48.3542 88.5518 48.5642C88.6784 48.7742 88.7418 49.0092 88.7418 49.2692C88.7418 49.5326 88.6768 49.7692 88.5468 49.9792C88.4201 50.1892 88.2501 50.3559 88.0368 50.4792C87.8268 50.6026 87.5968 50.6642 87.3468 50.6642ZM87.3468 49.9292C87.5334 49.9292 87.6901 49.8659 87.8168 49.7392C87.9434 49.6092 88.0068 49.4526 88.0068 49.2692C88.0068 49.0826 87.9434 48.9259 87.8168 48.7992C87.6901 48.6692 87.5334 48.6042 87.3468 48.6042C87.1634 48.6042 87.0068 48.6692 86.8768 48.7992C86.7501 48.9259 86.6868 49.0826 86.6868 49.2692C86.6868 49.4526 86.7501 49.6092 86.8768 49.7392C87.0068 49.8659 87.1634 49.9292 87.3468 49.9292ZM90.9068 54.5942C90.6468 54.5942 90.4101 54.5292 90.1968 54.3992C89.9868 54.2659 89.8184 54.0942 89.6918 53.8842C89.5684 53.6709 89.5068 53.4409 89.5068 53.1942C89.5068 52.9342 89.5718 52.6992 89.7018 52.4892C89.8318 52.2759 90.0018 52.1076 90.2118 51.9842C90.4251 51.8576 90.6568 51.7942 90.9068 51.7942C91.1701 51.7942 91.4068 51.8592 91.6168 51.9892C91.8268 52.1192 91.9934 52.2909 92.1168 52.5042C92.2401 52.7176 92.3018 52.9476 92.3018 53.1942C92.3018 53.4509 92.2384 53.6859 92.1118 53.8992C91.9884 54.1092 91.8201 54.2776 91.6068 54.4042C91.3968 54.5309 91.1634 54.5942 90.9068 54.5942ZM90.9068 53.8592C91.0868 53.8592 91.2418 53.7942 91.3718 53.6642C91.5018 53.5342 91.5668 53.3776 91.5668 53.1942C91.5668 53.0109 91.5018 52.8542 91.3718 52.7242C91.2418 52.5942 91.0868 52.5292 90.9068 52.5292C90.7234 52.5292 90.5651 52.5942 90.4318 52.7242C90.3018 52.8542 90.2368 53.0109 90.2368 53.1942C90.2368 53.3776 90.3018 53.5342 90.4318 53.6642C90.5651 53.7942 90.7234 53.8592 90.9068 53.8592Z" fill="#27AE60"/>
<path d="M68.5544 46.75V51.25C68.5544 51.7 68.2544 52 67.8044 52C67.3544 52 67.0544 51.7 67.0544 51.25V48.55L61.2044 54.4C60.9044 54.7 60.4544 54.7 60.1544 54.4L56.9294 51.175L51.8294 56.275C51.6794 56.425 51.5294 56.5 51.3044 56.5C51.0794 56.5 50.9294 56.425 50.7794 56.275C50.4794 55.975 50.4794 55.525 50.7794 55.225L56.4044 49.6C56.7044 49.3 57.1544 49.3 57.4544 49.6L60.6794 52.825L66.0044 47.5H63.3044C62.8544 47.5 62.5544 47.2 62.5544 46.75C62.5544 46.3 62.8544 46 63.3044 46H67.8044C67.8794 46 68.0294 46 68.1044 46.075C68.2544 46.15 68.4044 46.3 68.4794 46.45C68.5544 46.525 68.5544 46.675 68.5544 46.75Z" fill="#27AE60"/>
<path d="M30.7502 130.455H150.798" stroke="#E0E0E0" stroke-width="0.458199" stroke-linecap="square"/>
<path d="M30.7502 113.502H150.798" stroke="#E0E0E0" stroke-width="0.458199" stroke-linecap="square"/>
<path d="M30.7507 96.5485H150.799" stroke="#E0E0E0" stroke-width="0.458199" stroke-linecap="square"/>
<path d="M31.6375 129.485H144.071" stroke="#E4E4E4" stroke-opacity="0.4" stroke-width="0.429134" stroke-linecap="square"/>
<path d="M31.6375 113.606H144.071" stroke="#E4E4E4" stroke-opacity="0.4" stroke-width="0.429134" stroke-linecap="square"/>
<path d="M31.6379 97.7287H144.071" stroke="#E4E4E4" stroke-opacity="0.4" stroke-width="0.429134" stroke-linecap="square"/>
<path d="M138.492 87.2898L128.234 95.1145C126.66 96.3149 124.469 96.2833 122.931 95.0379L118.106 91.132C115.796 89.2618 112.33 90.2498 111.353 93.0571L101.344 121.82C100.032 125.591 94.7337 125.684 93.2902 121.961L87.3992 106.771C86.1309 103.501 81.6877 103.051 79.7895 106L78.1994 108.471C76.43 111.221 72.3584 111.061 70.8106 108.18L68.0547 103.052C67.4761 101.975 66.4657 101.196 65.2771 100.911L58.0952 99.1853C57.3495 99.0061 56.6654 98.6304 56.1142 98.0973L46.1352 88.4454C45.3665 87.7019 44.3479 87.2722 43.2789 87.2405L31.6372 86.8954" stroke="#6FCF97" stroke-width="1.49644" stroke-linejoin="round"/>
</g>
<defs>
<clipPath id="clip0_3005_4295">
<rect width="181.549" height="154.365" fill="white"/>
</clipPath>
</defs>
</svg>
