<svg width="26" height="27" viewBox="0 0 26 27" fill="none" xmlns="http://www.w3.org/2000/svg">
<path d="M1.5628 0.62207C1.28093 0.62207 1.0106 0.736207 0.811288 0.939372C0.611974 1.14254 0.5 1.41809 0.5 1.7054C0.5 1.99272 0.611974 2.26827 0.811288 2.47144C1.0106 2.6746 1.28093 2.78874 1.5628 2.78874H2.0857C2.31648 2.78914 2.54086 2.86611 2.72493 3.008C2.909 3.14989 3.04276 3.349 3.10599 3.57524L6.4772 15.6002C6.66787 16.2788 7.07011 16.8757 7.62311 17.3006C8.17611 17.7256 8.8498 17.9554 9.54232 17.9554H19.2542C19.8916 17.9555 20.5143 17.7609 21.0421 17.3967C21.5699 17.0325 21.9785 16.5155 22.2152 15.9122L25.3483 7.9259C25.4771 7.59728 25.525 7.24149 25.4877 6.88965C25.4505 6.53781 25.3293 6.20062 25.1347 5.90756C24.9401 5.6145 24.678 5.37449 24.3714 5.20851C24.0648 5.04253 23.7229 4.95563 23.3757 4.9554H5.70348L5.14869 2.9794C4.95851 2.30075 4.55675 1.70364 4.00414 1.27835C3.45154 0.853052 2.77813 0.622686 2.0857 0.62207H1.5628ZM8.52203 15.0022L6.3114 7.12207H23.3757L20.2405 15.1084C20.1615 15.3092 20.0254 15.4814 19.8496 15.6026C19.6738 15.7239 19.4664 15.7887 19.2542 15.7887H9.54232C9.31154 15.7883 9.08716 15.7114 8.90309 15.5695C8.71902 15.4276 8.58526 15.2285 8.52203 15.0022ZM10.0652 26.6221C10.4839 26.6221 10.8985 26.538 11.2854 26.3747C11.6722 26.2114 12.0237 25.972 12.3198 25.6702C12.6158 25.3684 12.8507 25.0101 13.0109 24.6158C13.1711 24.2215 13.2536 23.7989 13.2536 23.3721C13.2536 22.9453 13.1711 22.5227 13.0109 22.1283C12.8507 21.734 12.6158 21.3758 12.3198 21.074C12.0237 20.7722 11.6722 20.5328 11.2854 20.3695C10.8985 20.2061 10.4839 20.1221 10.0652 20.1221C9.2196 20.1221 8.40861 20.4645 7.81067 21.074C7.21273 21.6835 6.87681 22.5101 6.87681 23.3721C6.87681 24.234 7.21273 25.0607 7.81067 25.6702C8.40861 26.2797 9.2196 26.6221 10.0652 26.6221ZM10.0652 24.4554C9.78334 24.4554 9.51301 24.3413 9.3137 24.1381C9.11439 23.9349 9.00241 23.6594 9.00241 23.3721C9.00241 23.0848 9.11439 22.8092 9.3137 22.606C9.51301 22.4029 9.78334 22.2887 10.0652 22.2887C10.3471 22.2887 10.6174 22.4029 10.8167 22.606C11.016 22.8092 11.128 23.0848 11.128 23.3721C11.128 23.6594 11.016 23.9349 10.8167 24.1381C10.6174 24.3413 10.3471 24.4554 10.0652 24.4554ZM18.5676 26.6221C18.9863 26.6221 19.4009 26.538 19.7878 26.3747C20.1746 26.2114 20.5261 25.972 20.8222 25.6702C21.1182 25.3684 21.3531 25.0101 21.5133 24.6158C21.6736 24.2215 21.756 23.7989 21.756 23.3721C21.756 22.9453 21.6736 22.5227 21.5133 22.1283C21.3531 21.734 21.1182 21.3758 20.8222 21.074C20.5261 20.7722 20.1746 20.5328 19.7878 20.3695C19.4009 20.2061 18.9863 20.1221 18.5676 20.1221C17.722 20.1221 16.911 20.4645 16.3131 21.074C15.7151 21.6835 15.3792 22.5101 15.3792 23.3721C15.3792 24.234 15.7151 25.0607 16.3131 25.6702C16.911 26.2797 17.722 26.6221 18.5676 26.6221ZM18.5676 24.4554C18.2858 24.4554 18.0154 24.3413 17.8161 24.1381C17.6168 23.9349 17.5048 23.6594 17.5048 23.3721C17.5048 23.0848 17.6168 22.8092 17.8161 22.606C18.0154 22.4029 18.2858 22.2887 18.5676 22.2887C18.8495 22.2887 19.1198 22.4029 19.3191 22.606C19.5185 22.8092 19.6304 23.0848 19.6304 23.3721C19.6304 23.6594 19.5185 23.9349 19.3191 24.1381C19.1198 24.3413 18.8495 24.4554 18.5676 24.4554Z" fill="#484C52"/>
</svg>
