<svg width="47" height="48" viewBox="0 0 47 48" fill="none" xmlns="http://www.w3.org/2000/svg">
<rect width="47" height="48" rx="10" fill="#ED1C24"/>
<path d="M15.9194 17.4084C15.9194 15.398 16.718 13.4699 18.1396 12.0483C19.5612 10.6268 21.4892 9.82813 23.4996 9.82812C25.51 9.82813 27.4381 10.6268 28.8597 12.0483C30.2813 13.4699 31.0799 15.398 31.0799 17.4084C31.0799 19.4188 30.2813 21.3468 28.8597 22.7684C27.4381 24.19 25.51 24.9886 23.4996 24.9886C21.4892 24.9886 19.5612 24.19 18.1396 22.7684C16.718 21.3468 15.9194 19.4188 15.9194 17.4084ZM23.2333 26.9806C23.2901 26.972 23.3473 26.9672 23.4047 26.9661H23.5946C23.6526 26.9661 23.7097 26.9709 23.7659 26.9806L33.383 28.6719L33.4331 28.6825C35.2049 29.0912 37.1085 30.2157 37.4789 32.4001L37.4842 32.4383L37.6345 33.5945V33.5971C37.9825 36.2456 35.8825 38.1716 33.4027 38.1716C33.348 38.1706 33.2934 38.1662 33.2393 38.1584H13.5965C11.1168 38.1584 9.01545 36.2311 9.3648 33.5813L9.51508 32.4357L9.52167 32.3961C9.8908 30.2513 11.8102 29.0635 13.5781 28.6799L13.6163 28.6719L23.2333 26.9806Z" fill="white"/>
</svg>
