<svg width="56" height="55" viewBox="0 0 56 55" fill="none" xmlns="http://www.w3.org/2000/svg">
<rect x="0.986328" y="0.0688477" width="54.8314" height="54.8314" rx="12.1847" fill="#ED1C24"/>
<path d="M19.4326 20.8932C19.4326 18.8828 20.2312 16.9548 21.6528 15.5332C23.0744 14.1116 25.0024 13.313 27.0128 13.313C29.0232 13.313 30.9513 14.1116 32.3729 15.5332C33.7944 16.9548 34.5931 18.8828 34.5931 20.8932C34.5931 22.9036 33.7944 24.8317 32.3729 26.2533C30.9513 27.6748 29.0232 28.4735 27.0128 28.4735C25.0024 28.4735 23.0744 27.6748 21.6528 26.2533C20.2312 24.8317 19.4326 22.9036 19.4326 20.8932ZM26.7465 30.4654C26.8033 30.4569 26.8605 30.452 26.9179 30.4509H27.1077C27.1657 30.4509 27.2229 30.4558 27.2791 30.4654L36.8961 32.1568L36.9462 32.1674C38.718 32.576 40.6217 33.7005 40.9921 35.885L40.9974 35.9232L41.1477 37.0793V37.082C41.4957 39.7305 39.3956 41.6565 36.9159 41.6565C36.8612 41.6555 36.8066 41.6511 36.7524 41.6433H17.1097C14.63 41.6433 12.5286 39.716 12.878 37.0662L13.0283 35.9206L13.0349 35.881C13.404 33.7361 15.3234 32.5483 17.0913 32.1647L17.1295 32.1568L26.7465 30.4654Z" fill="white"/>
<circle cx="39.1113" cy="36.5" r="6.5" fill="#00FF5E"/>
</svg>
