<svg width="56" height="55" viewBox="0 0 56 55" fill="none" xmlns="http://www.w3.org/2000/svg">
<rect x="0.986328" y="0.0688477" width="54.8314" height="54.8314" rx="12.1847" fill="#ED1C24"/>
<path d="M20.8213 20.8932C20.8213 18.8828 21.6199 16.9548 23.0415 15.5332C24.463 14.1116 26.3911 13.313 28.4015 13.313C30.4119 13.313 32.34 14.1116 33.7615 15.5332C35.1831 16.9548 35.9817 18.8828 35.9817 20.8932C35.9817 22.9036 35.1831 24.8317 33.7615 26.2533C32.34 27.6748 30.4119 28.4735 28.4015 28.4735C26.3911 28.4735 24.463 27.6748 23.0415 26.2533C21.6199 24.8317 20.8213 22.9036 20.8213 20.8932ZM28.1352 30.4654C28.1919 30.4569 28.2492 30.452 28.3066 30.4509H28.4964C28.5544 30.4509 28.6115 30.4558 28.6678 30.4654L38.2848 32.1568L38.3349 32.1674C40.1067 32.576 42.0103 33.7005 42.3808 35.885L42.3861 35.9232L42.5363 37.0793V37.082C42.8844 39.7305 40.7843 41.6565 38.3046 41.6565C38.2499 41.6555 38.1953 41.6511 38.1411 41.6433H18.4984C16.0187 41.6433 13.9173 39.716 14.2667 37.0662L14.4169 35.9206L14.4235 35.881C14.7927 33.7361 16.7121 32.5483 18.4799 32.1647L18.5182 32.1568L28.1352 30.4654Z" fill="white"/>
<path d="M38.5756 9.17666L38.5723 14.1838C38.5721 14.3952 38.4917 14.5987 38.3472 14.7531C38.2028 14.9075 38.0051 15.0013 37.7941 15.0156C37.5832 15.0299 37.3747 14.9636 37.2107 14.83C37.0468 14.6965 36.9397 14.5057 36.911 14.2962L36.9033 14.1827L36.9065 9.17558C36.9067 8.96414 36.9872 8.76066 37.1316 8.60625C37.2761 8.45185 37.4737 8.35803 37.6847 8.34375C37.8956 8.32948 38.1042 8.39581 38.2681 8.52935C38.432 8.66289 38.5392 8.85367 38.5678 9.06316L38.5756 9.17666ZM45.0059 10.8165C45.147 10.958 45.2326 11.1455 45.2471 11.3448C45.2617 11.5441 45.2043 11.742 45.0853 11.9025L45.004 11.9959L41.107 15.8879C40.9579 16.0357 40.7584 16.1219 40.5485 16.1291C40.3386 16.1364 40.1336 16.0642 39.9746 15.927C39.8155 15.7898 39.7141 15.5977 39.6904 15.389C39.6668 15.1803 39.7227 14.9703 39.8471 14.8011L39.9284 14.7076L43.8253 10.8157C43.9819 10.6595 44.1941 10.5719 44.4152 10.572C44.6364 10.5722 44.8495 10.6601 45.0059 10.8165ZM47.4703 18.084C47.4701 18.2857 47.397 18.4805 47.2643 18.6323C47.1317 18.7842 46.9485 18.883 46.7487 18.9103L46.6352 18.918L41.6281 18.9147C41.4166 18.9145 41.2131 18.8341 41.0587 18.6896C40.9043 18.5452 40.8105 18.3475 40.7962 18.1366C40.782 17.9256 40.8483 17.7171 40.9818 17.5532C41.1154 17.3892 41.3062 17.2821 41.5156 17.2534L41.6291 17.2457L46.6363 17.2489C46.8576 17.2491 47.0698 17.3371 47.2262 17.4937C47.3826 17.6503 47.4704 17.8627 47.4703 18.084Z" fill="white"/>
</svg>
