<svg width="56" height="55" viewBox="0 0 56 55" fill="none" xmlns="http://www.w3.org/2000/svg">
<rect x="0.386719" y="0.0688477" width="54.8314" height="54.8314" rx="12.1847" fill="#ED1C24"/>
<path d="M27.7168 31.6747C33.5235 31.6747 38.4816 32.5723 38.4816 36.164C38.4816 39.7542 33.5553 40.6845 27.7168 40.6845C21.9101 40.6845 16.952 39.7869 16.952 36.1967C16.952 32.605 21.8783 31.6747 27.7168 31.6747ZM37.001 29.512C39.2209 29.4719 41.6075 29.7691 42.4895 29.9801C44.3578 30.3382 45.5868 31.0693 46.0959 32.1318C46.5262 33.0041 46.5262 34.0161 46.0959 34.8869C45.317 36.5349 42.8062 37.0639 41.8303 37.2006C41.6288 37.2304 41.4666 37.0595 41.4878 36.8618C41.9864 32.2953 38.0208 30.1302 36.9949 29.6324C36.951 29.6101 36.9419 29.5759 36.9464 29.5551C36.9495 29.5402 36.9677 29.5164 37.001 29.512ZM18.1883 29.5089L18.6063 29.5126C18.6396 29.517 18.6563 29.5408 18.6593 29.5542C18.6639 29.5765 18.6548 29.6092 18.6124 29.633C17.585 30.1308 13.6194 32.2959 14.1179 36.8609C14.1392 37.0601 13.9785 37.2295 13.777 37.2012C12.8011 37.0645 10.2903 36.5355 9.5114 34.8875C9.07953 34.0152 9.07953 33.0047 9.5114 32.1324C10.0205 31.0699 11.2479 30.3388 13.1163 29.9792C13.9998 29.7697 16.3849 29.4725 18.6063 29.5126L18.1883 29.5089ZM27.7168 14.2842C31.6703 14.2842 34.8403 17.39 34.8403 21.2685C34.8403 25.1455 31.6703 28.2542 27.7168 28.2542C23.7634 28.2542 20.5933 25.1455 20.5933 21.2685C20.5933 17.39 23.7634 14.2842 27.7168 14.2842ZM37.3874 15.4489C41.206 15.4489 44.2048 18.9723 43.1835 22.8968C42.494 25.539 39.9983 27.294 37.2177 27.2226C36.9389 27.2152 36.6646 27.1899 36.3994 27.1454C36.207 27.1127 36.11 26.9002 36.2191 26.7426C37.2798 25.2121 37.8844 23.3709 37.8844 21.3945C37.8844 19.3319 37.2237 17.409 36.0767 15.8323C36.0403 15.7833 36.013 15.7075 36.0494 15.651C36.0797 15.605 36.1357 15.5812 36.1888 15.5693C36.5752 15.492 36.9722 15.4489 37.3874 15.4489ZM18.2176 15.4488C18.6328 15.4488 19.0298 15.4919 19.4178 15.5691C19.4693 15.581 19.5269 15.6063 19.5572 15.6509C19.592 15.7073 19.5663 15.7831 19.5299 15.8322C18.3828 17.4088 17.7221 19.3317 17.7221 21.3943C17.7221 23.3707 18.3267 25.2119 19.3875 26.7425C19.4966 26.9 19.3996 27.1125 19.2071 27.1452C18.9404 27.1913 18.6677 27.2151 18.3889 27.2225C15.6083 27.2938 13.1125 25.5388 12.4231 22.8967C11.4002 18.9721 14.399 15.4488 18.2176 15.4488Z" fill="white"/>
</svg>
