<svg width="56" height="55" viewBox="0 0 56 55" fill="none" xmlns="http://www.w3.org/2000/svg">
<rect x="0.986328" y="0.0688477" width="54.8314" height="54.8314" rx="12.1847" fill="#ED1C24"/>
<path fill-rule="evenodd" clip-rule="evenodd" d="M44.7039 7C44.9188 6.99998 45.1305 7.04925 45.3206 7.14356C45.5108 7.23787 45.6737 7.37437 45.7954 7.54129L45.8529 7.62859L48.0596 11.2655C48.1944 11.4874 48.2534 11.7431 48.2288 11.9977C48.2042 12.2524 48.0971 12.4938 47.922 12.6892L47.8465 12.7659L41.7023 18.5548C41.5582 18.6905 41.366 18.7714 41.1625 18.7819C40.959 18.7923 40.7586 18.7317 40.5996 18.6115L40.5321 18.5554L34.3879 12.7659C34.196 12.5851 34.0677 12.3532 34.0203 12.1014C33.973 11.8496 34.0089 11.5903 34.1232 11.3584L34.1748 11.2648L36.3808 7.62797C36.4875 7.45216 36.6379 7.30345 36.8192 7.19469C37.0005 7.08594 37.2071 7.0204 37.4213 7.00374L37.5292 7H44.7039ZM38.0011 10.9244C37.877 11.0413 37.8073 11.1999 37.8073 11.3652C37.8073 11.5306 37.877 11.6892 38.0011 11.8061L40.5315 14.1902C40.6083 14.2626 40.6995 14.32 40.7999 14.3592C40.9003 14.3984 41.0079 14.4186 41.1166 14.4186C41.2252 14.4186 41.3328 14.3984 41.4332 14.3592C41.5336 14.32 41.6248 14.2626 41.7017 14.1902L44.232 11.8061C44.2952 11.7486 44.3456 11.6798 44.3803 11.6037C44.415 11.5276 44.4333 11.4458 44.434 11.363C44.4348 11.2802 44.4181 11.1981 44.3848 11.1214C44.3515 11.0448 44.3024 10.9752 44.2402 10.9166C44.1781 10.8581 44.1042 10.8118 44.0228 10.7804C43.9415 10.7491 43.8543 10.7333 43.7664 10.734C43.6786 10.7347 43.5917 10.7519 43.511 10.7846C43.4302 10.8173 43.3572 10.8648 43.2961 10.9244L41.1166 12.9779L38.937 10.9244C38.8129 10.8074 38.6446 10.7418 38.4691 10.7418C38.2935 10.7418 38.1252 10.8074 38.0011 10.9244Z" fill="white"/>
<path d="M18.9189 22.2282C18.9189 20.2178 19.7175 18.2897 21.1391 16.8681C22.5607 15.4466 24.4887 14.6479 26.4992 14.6479C28.5096 14.6479 30.4376 15.4466 31.8592 16.8681C33.2808 18.2897 34.0794 20.2178 34.0794 22.2282C34.0794 24.2386 33.2808 26.1667 31.8592 27.5882C30.4376 29.0098 28.5096 29.8084 26.4992 29.8084C24.4887 29.8084 22.5607 29.0098 21.1391 27.5882C19.7175 26.1667 18.9189 24.2386 18.9189 22.2282ZM26.2329 31.8004C26.2896 31.7918 26.3469 31.787 26.4042 31.7859H26.5941C26.6521 31.7859 26.7092 31.7907 26.7654 31.8004L36.3825 33.4918L36.4326 33.5023C38.2044 33.911 40.108 35.0355 40.4784 37.2199L40.4837 37.2582L40.634 38.4143V38.4169C40.982 41.0654 38.882 42.9915 36.4022 42.9915C36.3475 42.9905 36.2929 42.9861 36.2388 42.9783H16.5961C14.1163 42.9783 12.015 41.0509 12.3643 38.4011L12.5146 37.2555L12.5212 37.216C12.8903 35.0711 14.8098 33.8833 16.5776 33.4997L16.6158 33.4918L26.2329 31.8004Z" fill="white"/>
</svg>
