<svg width="56" height="56" viewBox="0 0 56 56" fill="none" xmlns="http://www.w3.org/2000/svg">
<rect x="0.987305" y="0.40332" width="54.8314" height="54.8314" rx="12.1847" fill="#ED1C24"/>
<path d="M20.823 21.2267C20.823 19.2163 21.6216 17.2883 23.0432 15.8667C24.4647 14.4451 26.3928 13.6465 28.4032 13.6465C30.4136 13.6465 32.3417 14.4451 33.7632 15.8667C35.1848 17.2883 35.9834 19.2163 35.9834 21.2267C35.9834 23.2371 35.1848 25.1652 33.7632 26.5868C32.3417 28.0083 30.4136 28.807 28.4032 28.807C26.3928 28.807 24.4647 28.0083 23.0432 26.5868C21.6216 25.1652 20.823 23.2371 20.823 21.2267ZM28.1369 30.7989C28.1937 30.7904 28.2509 30.7855 28.3083 30.7844H28.4981C28.5561 30.7844 28.6133 30.7893 28.6695 30.7989L38.2865 32.4903L38.3366 32.5008C40.1084 32.9095 42.012 34.034 42.3825 36.2185L42.3878 36.2567L42.5381 37.4128V37.4155C42.8861 40.064 40.786 41.99 38.3063 41.99C38.2516 41.989 38.197 41.9846 38.1428 41.9768H18.5001C16.0204 41.9768 13.919 40.0494 14.2684 37.3997L14.4186 36.2541L14.4252 36.2145C14.7944 34.0696 16.7138 32.8818 18.4817 32.4982L18.5199 32.4903L28.1369 30.7989Z" fill="white"/>
</svg>
