<svg width="56" height="56" viewBox="0 0 56 56" fill="none" xmlns="http://www.w3.org/2000/svg">
<rect x="0.987305" y="0.331055" width="54.8314" height="54.8314" rx="12.1847" fill="#ED1C24"/>
<path d="M37.843 14.939L34.4584 13.162C31.4867 11.6034 30.0008 10.8232 28.4032 10.8232C26.8057 10.8232 25.3198 11.6017 22.3481 13.162L21.8049 13.448L36.9055 22.0772L43.7019 18.6756C42.6086 17.4369 40.8452 16.5111 37.843 14.9356M44.9 20.9163L38.1341 24.3009V29.4388C38.1341 29.7755 38.0004 30.0983 37.7624 30.3363C37.5243 30.5743 37.2015 30.7081 36.8649 30.7081C36.5282 30.7081 36.2054 30.5743 35.9674 30.3363C35.7293 30.0983 35.5956 29.7755 35.5956 29.4388V25.5702L29.6725 28.5317V44.5073C30.8876 44.2044 32.2702 43.4801 34.4584 42.331L37.843 40.554C41.4832 38.6434 43.3042 37.6889 44.3162 35.9712C45.3265 34.2552 45.3265 32.1178 45.3265 27.848V27.65C45.3265 24.4465 45.3265 22.4428 44.9 20.9163ZM27.134 44.5073V28.5317L11.9064 20.9163C11.48 22.4428 11.48 24.4465 11.48 27.6467V27.8447C11.48 32.1178 11.48 34.2552 12.4903 35.9712C13.5023 37.6889 15.3233 38.6451 18.9634 40.5557L22.3481 42.331C24.5363 43.4801 25.9189 44.2044 27.134 44.5073ZM13.1046 18.6773L28.4032 26.3266L34.1758 23.4412L19.1378 14.8476L18.9634 14.939C15.963 16.5128 14.1979 17.4385 13.1046 18.679" fill="white"/>
</svg>
