<svg width="56" height="56" viewBox="0 0 56 56" fill="none" xmlns="http://www.w3.org/2000/svg">
<rect x="0.495361" y="0.331055" width="54.8314" height="54.8314" rx="12.1847" fill="#ED1C24"/>
<path d="M27.8247 31.9374C33.6314 31.9374 38.5895 32.835 38.5895 36.4267C38.5895 40.0169 33.6632 40.9472 27.8247 40.9472C22.0181 40.9472 17.0599 40.0496 17.0599 36.4594C17.0599 32.8677 21.9862 31.9374 27.8247 31.9374ZM37.1089 29.7747C39.3288 29.7346 41.7155 30.0318 42.5974 30.2428C44.4657 30.6009 45.6947 31.332 46.2038 32.3945C46.6342 33.2668 46.6342 34.2788 46.2038 35.1496C45.4249 36.7976 42.9141 37.3266 41.9382 37.4633C41.7367 37.4931 41.5745 37.3222 41.5957 37.1245C42.0943 32.558 38.1287 30.3929 37.1028 29.8951C37.0589 29.8728 37.0498 29.8386 37.0544 29.8178C37.0574 29.8029 37.0756 29.7791 37.1089 29.7747ZM18.2962 29.7716L18.7142 29.7753C18.7476 29.7797 18.7642 29.8035 18.7673 29.8169C18.7718 29.8392 18.7627 29.8719 18.7203 29.8956C17.6929 30.3935 13.7273 32.5586 14.2259 37.1236C14.2471 37.3228 14.0865 37.4922 13.8849 37.4639C12.9091 37.3272 10.3982 36.7982 9.61931 35.1502C9.18744 34.2779 9.18744 33.2674 9.61931 32.3951C10.1285 31.3326 11.3559 30.6015 13.2242 30.2419C14.1077 30.0324 16.4928 29.7352 18.7142 29.7753L18.2962 29.7716ZM27.8247 14.5469C31.7782 14.5469 34.9482 17.6527 34.9482 21.5312C34.9482 25.4082 31.7782 28.5169 27.8247 28.5169C23.8713 28.5169 20.7012 25.4082 20.7012 21.5312C20.7012 17.6527 23.8713 14.5469 27.8247 14.5469ZM37.4953 15.7116C41.3139 15.7116 44.3127 19.235 43.2914 23.1595C42.6019 25.8017 40.1062 27.5567 37.3256 27.4853C37.0468 27.4779 36.7725 27.4526 36.5073 27.4081C36.3149 27.3754 36.2179 27.1629 36.327 27.0053C37.3877 25.4747 37.9923 23.6336 37.9923 21.6572C37.9923 19.5946 37.3317 17.6717 36.1846 16.095C36.1482 16.046 36.1209 15.9702 36.1573 15.9137C36.1876 15.8676 36.2437 15.8439 36.2967 15.832C36.6831 15.7547 37.0801 15.7116 37.4953 15.7116ZM18.3255 15.7115C18.7407 15.7115 19.1377 15.7546 19.5257 15.8318C19.5772 15.8437 19.6348 15.869 19.6651 15.9136C19.6999 15.97 19.6742 16.0458 19.6378 16.0949C18.4907 17.6715 17.83 19.5944 17.83 21.657C17.83 23.6334 18.4346 25.4746 19.4954 27.0052C19.6045 27.1627 19.5075 27.3752 19.315 27.4079C19.0483 27.454 18.7756 27.4777 18.4968 27.4852C15.7162 27.5565 13.2204 25.8015 12.531 23.1594C11.5081 19.2348 14.5069 15.7115 18.3255 15.7115Z" fill="white"/>
</svg>
