<svg width="182" height="155" viewBox="0 0 182 155" fill="none" xmlns="http://www.w3.org/2000/svg">
<g clip-path="url(#clip0_3005_4282)">
<rect x="0.5" y="0.5" width="180.549" height="153.365" rx="13.4949" fill="white" stroke="#E0E0E0"/>
<path d="M29.9194 60.8544C28.758 60.8544 27.6964 60.5684 26.7344 59.9964C25.7724 59.4157 25.001 58.6444 24.4204 57.6824C23.8484 56.7117 23.5624 55.6414 23.5624 54.4714C23.5624 53.8474 23.636 53.284 23.7834 52.7814C23.9307 52.2787 24.156 51.75 24.4594 51.1954L29.5814 42.3164H32.7274L29.1784 48.4524C29.8977 48.3137 30.5997 48.3094 31.2844 48.4394C31.9777 48.5607 32.6277 48.799 33.2344 49.1544C33.841 49.501 34.374 49.943 34.8334 50.4804C35.3014 51.009 35.6654 51.6114 35.9254 52.2874C36.1854 52.9634 36.3154 53.6914 36.3154 54.4714C36.3154 55.3467 36.1464 56.17 35.8084 56.9414C35.479 57.7127 35.0197 58.393 34.4304 58.9824C33.8497 59.563 33.1694 60.0224 32.3894 60.3604C31.618 60.6897 30.7947 60.8544 29.9194 60.8544ZM29.9194 58.1504C30.63 58.1504 31.2627 57.977 31.8174 57.6304C32.372 57.2837 32.8097 56.8287 33.1304 56.2654C33.451 55.702 33.6114 55.104 33.6114 54.4714C33.6114 53.804 33.4467 53.193 33.1174 52.6384C32.7967 52.0837 32.359 51.6417 31.8044 51.3124C31.2497 50.9744 30.63 50.8054 29.9454 50.8054C29.2347 50.8054 28.602 50.9787 28.0474 51.3254C27.4927 51.672 27.055 52.1227 26.7344 52.6774C26.4224 53.232 26.2664 53.83 26.2664 54.4714C26.2664 55.1734 26.4354 55.8017 26.7734 56.3564C27.12 56.911 27.5707 57.3487 28.1254 57.6694C28.68 57.99 29.278 58.1504 29.9194 58.1504ZM44.0997 60.8544C42.999 60.8544 41.998 60.603 41.0967 60.1004C40.1954 59.5977 39.476 58.926 38.9387 58.0854C38.41 57.236 38.1457 56.2914 38.1457 55.2514C38.1457 54.376 38.3624 53.5614 38.7957 52.8074C39.229 52.0534 39.8054 51.4294 40.5247 50.9354C39.944 50.502 39.4717 49.956 39.1077 49.2974C38.7437 48.6387 38.5617 47.928 38.5617 47.1654C38.5617 46.212 38.8087 45.3454 39.3027 44.5654C39.8054 43.7767 40.477 43.1484 41.3177 42.6804C42.1584 42.2124 43.0857 41.9784 44.0997 41.9784C45.1137 41.9784 46.041 42.2124 46.8817 42.6804C47.7224 43.1484 48.3897 43.7767 48.8837 44.5654C49.3864 45.3454 49.6377 46.212 49.6377 47.1654C49.6377 47.928 49.4557 48.6387 49.0917 49.2974C48.7364 49.956 48.264 50.502 47.6747 50.9354C48.4114 51.4294 48.992 52.0534 49.4167 52.8074C49.85 53.5614 50.0667 54.376 50.0667 55.2514C50.0667 56.2827 49.798 57.223 49.2607 58.0724C48.7234 58.9217 48.004 59.5977 47.1027 60.1004C46.2014 60.603 45.2004 60.8544 44.0997 60.8544ZM44.0997 58.1504C44.6717 58.1504 45.1917 58.0204 45.6597 57.7604C46.1277 57.5004 46.5004 57.1537 46.7777 56.7204C47.0637 56.2784 47.2067 55.7887 47.2067 55.2514C47.2067 54.7227 47.0637 54.2417 46.7777 53.8084C46.5004 53.3664 46.1277 53.0154 45.6597 52.7554C45.1917 52.4954 44.6717 52.3654 44.0997 52.3654C43.5364 52.3654 43.0164 52.4954 42.5397 52.7554C42.0717 53.0154 41.6947 53.3664 41.4087 53.8084C41.1314 54.2417 40.9927 54.7227 40.9927 55.2514C40.9927 55.7887 41.1314 56.2784 41.4087 56.7204C41.6947 57.1537 42.0717 57.5004 42.5397 57.7604C43.0164 58.0204 43.5364 58.1504 44.0997 58.1504ZM44.0997 49.6614C44.5937 49.6614 45.04 49.5487 45.4387 49.3234C45.846 49.098 46.171 48.799 46.4137 48.4264C46.6564 48.045 46.7777 47.6247 46.7777 47.1654C46.7777 46.706 46.6564 46.29 46.4137 45.9174C46.171 45.5447 45.846 45.2457 45.4387 45.0204C45.04 44.795 44.5937 44.6824 44.0997 44.6824C43.6057 44.6824 43.155 44.795 42.7477 45.0204C42.349 45.2457 42.0284 45.5447 41.7857 45.9174C41.543 46.29 41.4217 46.706 41.4217 47.1654C41.4217 47.6247 41.543 48.045 41.7857 48.4264C42.0284 48.799 42.349 49.098 42.7477 49.3234C43.155 49.5487 43.6057 49.6614 44.0997 49.6614ZM57.6479 60.8544C56.5473 60.8544 55.5593 60.5987 54.6839 60.0874C53.8173 59.576 53.1326 58.8914 52.6299 58.0334C52.1273 57.1754 51.8759 56.222 51.8759 55.1734H54.5799C54.5799 55.7194 54.7099 56.2177 54.9699 56.6684C55.2299 57.119 55.5896 57.4787 56.0489 57.7474C56.5083 58.016 57.0413 58.1504 57.6479 58.1504C58.1939 58.1504 58.7009 58.016 59.1689 57.7474C59.6369 57.4787 60.0139 57.119 60.2999 56.6684C60.5859 56.2177 60.7289 55.7194 60.7289 55.1734C60.7289 54.48 60.5469 53.8994 60.1829 53.4314C59.8189 52.9634 59.3119 52.6167 58.6619 52.3914C58.0206 52.1574 57.2796 52.0404 56.4389 52.0404V49.9084C57.5829 49.9084 58.4973 49.683 59.1819 49.2324C59.8666 48.7817 60.2089 48.11 60.2089 47.2174C60.2089 46.7494 60.0833 46.3247 59.8319 45.9434C59.5893 45.5534 59.2643 45.2457 58.8569 45.0204C58.4583 44.7864 58.0293 44.6694 57.5699 44.6694C57.0933 44.6694 56.6339 44.7864 56.1919 45.0204C55.7586 45.2457 55.4033 45.5534 55.1259 45.9434C54.8486 46.3247 54.7099 46.7494 54.7099 47.2174H52.0059C52.0059 46.498 52.1533 45.822 52.4479 45.1894C52.7513 44.548 53.1586 43.989 53.6699 43.5124C54.1899 43.027 54.7793 42.65 55.4379 42.3814C56.1053 42.104 56.8029 41.9654 57.5309 41.9654C58.4843 41.9654 59.3683 42.2037 60.1829 42.6804C61.0063 43.1484 61.6649 43.781 62.1589 44.5784C62.6616 45.367 62.9129 46.2467 62.9129 47.2174C62.9129 47.9887 62.7223 48.721 62.3409 49.4144C61.9683 50.099 61.4483 50.5844 60.7809 50.8704C61.3616 51.0784 61.8469 51.4077 62.2369 51.8584C62.6356 52.3004 62.9346 52.8117 63.1339 53.3924C63.3333 53.9644 63.4329 54.558 63.4329 55.1734C63.4329 56.2134 63.1686 57.1667 62.6399 58.0334C62.1113 58.8914 61.4049 59.576 60.5209 60.0874C59.6456 60.5987 58.6879 60.8544 57.6479 60.8544Z" fill="#333333"/>
<path d="M20.7569 21.6217H22.2149L25.2689 30.0217H23.9489L23.3669 28.4257H19.6049L19.0289 30.0217H17.7029L20.7569 21.6217ZM20.0669 27.1777H22.9049L21.4829 23.2777L20.0669 27.1777ZM28.9569 30.0217H27.3549L25.1649 24.0097H26.4969L28.1529 28.5817L29.8149 24.0097H31.1409L28.9569 30.0217ZM36.3956 24.0217H37.6436V30.1777C37.6436 30.5897 37.5556 30.9697 37.3796 31.3177C37.2076 31.6657 36.9736 31.9657 36.6776 32.2177C36.3816 32.4737 36.0416 32.6717 35.6576 32.8117C35.2776 32.9517 34.8796 33.0217 34.4636 33.0217C34.0436 33.0217 33.6396 32.9317 33.2516 32.7517C32.8636 32.5757 32.5216 32.3357 32.2256 32.0317C31.9336 31.7277 31.7156 31.3837 31.5716 30.9997L32.7176 30.4837C32.7976 30.7317 32.9256 30.9517 33.1016 31.1437C33.2816 31.3357 33.4896 31.4877 33.7256 31.5997C33.9656 31.7117 34.2116 31.7677 34.4636 31.7677C34.7116 31.7677 34.9496 31.7277 35.1776 31.6477C35.4096 31.5717 35.6156 31.4637 35.7956 31.3237C35.9796 31.1837 36.1256 31.0157 36.2336 30.8197C36.3416 30.6237 36.3956 30.4097 36.3956 30.1777V29.1637C36.1996 29.4677 35.9476 29.7137 35.6396 29.9017C35.3316 30.0857 34.9736 30.1777 34.5656 30.1777C34.1416 30.1777 33.7416 30.0957 33.3656 29.9317C32.9896 29.7677 32.6596 29.5417 32.3756 29.2537C32.0916 28.9617 31.8696 28.6257 31.7096 28.2457C31.5496 27.8657 31.4696 27.4577 31.4696 27.0217C31.4696 26.5857 31.5496 26.1777 31.7096 25.7977C31.8696 25.4137 32.0916 25.0777 32.3756 24.7897C32.6596 24.4977 32.9896 24.2697 33.3656 24.1057C33.7416 23.9417 34.1416 23.8597 34.5656 23.8597C34.9736 23.8597 35.3316 23.9537 35.6396 24.1417C35.9476 24.3257 36.1996 24.5717 36.3956 24.8797V24.0217ZM34.5776 28.9717C34.9256 28.9717 35.2296 28.8837 35.4896 28.7077C35.7496 28.5277 35.9516 28.2897 36.0956 27.9937C36.2396 27.6977 36.3116 27.3737 36.3116 27.0217C36.3116 26.6617 36.2376 26.3357 36.0896 26.0437C35.9456 25.7477 35.7436 25.5117 35.4836 25.3357C35.2236 25.1557 34.9216 25.0657 34.5776 25.0657C34.2416 25.0657 33.9336 25.1537 33.6536 25.3297C33.3776 25.5057 33.1576 25.7417 32.9936 26.0377C32.8296 26.3337 32.7476 26.6617 32.7476 27.0217C32.7476 27.3817 32.8296 27.7097 32.9936 28.0057C33.1616 28.3017 33.3836 28.5377 33.6596 28.7137C33.9396 28.8857 34.2456 28.9717 34.5776 28.9717ZM39.4975 30.1777C39.3135 30.1777 39.1575 30.1137 39.0295 29.9857C38.9055 29.8577 38.8435 29.7017 38.8435 29.5177C38.8435 29.3377 38.9055 29.1837 39.0295 29.0557C39.1575 28.9277 39.3135 28.8637 39.4975 28.8637C39.6815 28.8637 39.8375 28.9277 39.9655 29.0557C40.0935 29.1837 40.1575 29.3377 40.1575 29.5177C40.1575 29.7017 40.0935 29.8577 39.9655 29.9857C39.8375 30.1137 39.6815 30.1777 39.4975 30.1777ZM44.4859 30.0217V21.6217H49.4359V22.8697H45.7339V24.8977H48.8599V26.1457H45.7339V30.0217H44.4859ZM52.4227 30.1777C51.8707 30.1777 51.3667 30.0357 50.9107 29.7517C50.4587 29.4677 50.0967 29.0877 49.8247 28.6117C49.5567 28.1317 49.4227 27.6017 49.4227 27.0217C49.4227 26.5817 49.5007 26.1717 49.6567 25.7917C49.8127 25.4077 50.0267 25.0717 50.2987 24.7837C50.5747 24.4917 50.8947 24.2637 51.2587 24.0997C51.6227 23.9357 52.0107 23.8537 52.4227 23.8537C52.9747 23.8537 53.4767 23.9957 53.9287 24.2797C54.3847 24.5637 54.7467 24.9457 55.0147 25.4257C55.2867 25.9057 55.4227 26.4377 55.4227 27.0217C55.4227 27.4577 55.3447 27.8657 55.1887 28.2457C55.0327 28.6257 54.8167 28.9617 54.5407 29.2537C54.2687 29.5417 53.9507 29.7677 53.5867 29.9317C53.2267 30.0957 52.8387 30.1777 52.4227 30.1777ZM52.4227 28.9297C52.7547 28.9297 53.0527 28.8417 53.3167 28.6657C53.5807 28.4897 53.7887 28.2577 53.9407 27.9697C54.0967 27.6777 54.1747 27.3617 54.1747 27.0217C54.1747 26.6737 54.0947 26.3537 53.9347 26.0617C53.7787 25.7697 53.5687 25.5377 53.3047 25.3657C53.0407 25.1897 52.7467 25.1017 52.4227 25.1017C52.0947 25.1017 51.7967 25.1897 51.5287 25.3657C51.2647 25.5417 51.0547 25.7757 50.8987 26.0677C50.7467 26.3597 50.6707 26.6777 50.6707 27.0217C50.6707 27.3777 50.7507 27.6997 50.9107 27.9877C51.0707 28.2757 51.2827 28.5057 51.5467 28.6777C51.8147 28.8457 52.1067 28.9297 52.4227 28.9297ZM59.0204 30.1777C58.4684 30.1777 57.9644 30.0357 57.5084 29.7517C57.0564 29.4677 56.6944 29.0877 56.4224 28.6117C56.1544 28.1317 56.0204 27.6017 56.0204 27.0217C56.0204 26.5817 56.0984 26.1717 56.2544 25.7917C56.4104 25.4077 56.6244 25.0717 56.8964 24.7837C57.1724 24.4917 57.4924 24.2637 57.8564 24.0997C58.2204 23.9357 58.6084 23.8537 59.0204 23.8537C59.5724 23.8537 60.0744 23.9957 60.5264 24.2797C60.9824 24.5637 61.3444 24.9457 61.6124 25.4257C61.8844 25.9057 62.0204 26.4377 62.0204 27.0217C62.0204 27.4577 61.9424 27.8657 61.7864 28.2457C61.6304 28.6257 61.4144 28.9617 61.1384 29.2537C60.8664 29.5417 60.5484 29.7677 60.1844 29.9317C59.8244 30.0957 59.4364 30.1777 59.0204 30.1777ZM59.0204 28.9297C59.3524 28.9297 59.6504 28.8417 59.9144 28.6657C60.1784 28.4897 60.3864 28.2577 60.5384 27.9697C60.6944 27.6777 60.7724 27.3617 60.7724 27.0217C60.7724 26.6737 60.6924 26.3537 60.5324 26.0617C60.3764 25.7697 60.1664 25.5377 59.9024 25.3657C59.6384 25.1897 59.3444 25.1017 59.0204 25.1017C58.6924 25.1017 58.3944 25.1897 58.1264 25.3657C57.8624 25.5417 57.6524 25.7757 57.4964 26.0677C57.3444 26.3597 57.2684 26.6777 57.2684 27.0217C57.2684 27.3777 57.3484 27.6997 57.5084 27.9877C57.6684 28.2757 57.8804 28.5057 58.1444 28.6777C58.4124 28.8457 58.7044 28.9297 59.0204 28.9297ZM66.1226 25.2697H64.8626L64.8566 30.0217H63.6086L63.6146 25.2697H62.6606V24.0217H63.6146L63.6086 22.1377H64.8566L64.8626 24.0217H66.1226V25.2697ZM68.7388 22.6597V24.0217H70.4308V25.2697H68.7388V30.0217H67.4908V25.2697H66.7768V24.0217H67.4908V22.6597C67.4908 22.3317 67.5708 22.0337 67.7308 21.7657C67.8908 21.4937 68.1048 21.2777 68.3728 21.1177C68.6448 20.9577 68.9468 20.8777 69.2788 20.8777C69.5188 20.8777 69.7528 20.9257 69.9808 21.0217C70.2088 21.1177 70.4128 21.2657 70.5928 21.4657L69.6988 22.3477C69.6548 22.2757 69.5928 22.2217 69.5128 22.1857C69.4368 22.1457 69.3588 22.1257 69.2788 22.1257C69.1308 22.1257 69.0028 22.1777 68.8948 22.2817C68.7908 22.3857 68.7388 22.5117 68.7388 22.6597ZM75.9429 24.0217H77.1909V30.0217H75.9369L75.8889 29.1517C75.7129 29.4597 75.4749 29.7077 75.1749 29.8957C74.8749 30.0837 74.5209 30.1777 74.1129 30.1777C73.6729 30.1777 73.2589 30.0957 72.8709 29.9317C72.4829 29.7637 72.1409 29.5317 71.8449 29.2357C71.5529 28.9397 71.3249 28.5997 71.1609 28.2157C70.9969 27.8277 70.9149 27.4117 70.9149 26.9677C70.9149 26.5397 70.9949 26.1377 71.1549 25.7617C71.3149 25.3817 71.5369 25.0497 71.8209 24.7657C72.1049 24.4817 72.4329 24.2597 72.8049 24.0997C73.1809 23.9357 73.5829 23.8537 74.0109 23.8537C74.4469 23.8537 74.8309 23.9537 75.1629 24.1537C75.4989 24.3497 75.7769 24.6017 75.9969 24.9097L75.9429 24.0217ZM74.0829 28.9717C74.4349 28.9717 74.7429 28.8857 75.0069 28.7137C75.2709 28.5377 75.4749 28.3017 75.6189 28.0057C75.7669 27.7097 75.8409 27.3817 75.8409 27.0217C75.8409 26.6577 75.7669 26.3277 75.6189 26.0317C75.4709 25.7357 75.2649 25.5017 75.0009 25.3297C74.7409 25.1537 74.4349 25.0657 74.0829 25.0657C73.7349 25.0657 73.4169 25.1537 73.1289 25.3297C72.8409 25.5057 72.6129 25.7417 72.4449 26.0377C72.2769 26.3337 72.1929 26.6617 72.1929 27.0217C72.1929 27.3857 72.2789 27.7157 72.4509 28.0117C72.6269 28.3037 72.8569 28.5377 73.1409 28.7137C73.4289 28.8857 73.7429 28.9717 74.0829 28.9717ZM78.4351 30.0217V21.0217H79.6831V30.0217H78.4351ZM81.1187 30.0217V21.0217H82.3667V30.0217H81.1187Z" fill="#333333"/>
<path d="M98.7262 54.9762C98.3128 54.9762 97.9395 54.8829 97.6062 54.6962C97.2762 54.5062 96.9912 54.2445 96.7512 53.9112C96.5112 53.5779 96.3278 53.1929 96.2012 52.7562C96.0745 52.3162 96.0112 51.8462 96.0112 51.3462C96.0112 50.8462 96.0745 50.3762 96.2012 49.9362C96.3278 49.4962 96.5112 49.1112 96.7512 48.7812C96.9912 48.4479 97.2762 48.1879 97.6062 48.0012C97.9395 47.8112 98.3128 47.7162 98.7262 47.7162C99.1328 47.7162 99.5028 47.8112 99.8362 48.0012C100.17 48.1879 100.453 48.4479 100.686 48.7812C100.923 49.1112 101.105 49.4962 101.231 49.9362C101.358 50.3762 101.421 50.8462 101.421 51.3462C101.421 51.8462 101.358 52.3162 101.231 52.7562C101.105 53.1929 100.923 53.5779 100.686 53.9112C100.453 54.2445 100.17 54.5062 99.8362 54.6962C99.5028 54.8829 99.1328 54.9762 98.7262 54.9762ZM98.7262 53.9362C99.1095 53.9362 99.4278 53.8162 99.6812 53.5762C99.9378 53.3329 100.13 53.0145 100.256 52.6212C100.383 52.2279 100.446 51.8029 100.446 51.3462C100.446 50.8662 100.38 50.4312 100.246 50.0412C100.116 49.6479 99.9228 49.3362 99.6662 49.1062C99.4128 48.8729 99.0995 48.7562 98.7262 48.7562C98.4295 48.7562 98.1712 48.8262 97.9512 48.9662C97.7345 49.1062 97.5545 49.2979 97.4112 49.5412C97.2712 49.7845 97.1645 50.0612 97.0912 50.3712C97.0212 50.6812 96.9862 51.0062 96.9862 51.3462C96.9862 51.8029 97.0512 52.2279 97.1812 52.6212C97.3112 53.0145 97.5045 53.3329 97.7612 53.5762C98.0212 53.8162 98.3428 53.9362 98.7262 53.9362ZM102.662 54.9762C102.509 54.9762 102.379 54.9229 102.272 54.8162C102.169 54.7095 102.117 54.5795 102.117 54.4262C102.117 54.2762 102.169 54.1479 102.272 54.0412C102.379 53.9345 102.509 53.8812 102.662 53.8812C102.815 53.8812 102.945 53.9345 103.052 54.0412C103.159 54.1479 103.212 54.2762 103.212 54.4262C103.212 54.5795 103.159 54.7095 103.052 54.8162C102.945 54.9229 102.815 54.9762 102.662 54.9762ZM106.532 54.9762C106.088 54.9762 105.687 54.8695 105.327 54.6562C104.97 54.4395 104.687 54.1529 104.477 53.7962C104.27 53.4362 104.167 53.0429 104.167 52.6162H105.207C105.207 52.8595 105.267 53.0812 105.387 53.2812C105.507 53.4812 105.667 53.6412 105.867 53.7612C106.067 53.8779 106.288 53.9362 106.532 53.9362C106.772 53.9362 106.992 53.8779 107.192 53.7612C107.392 53.6412 107.552 53.4812 107.672 53.2812C107.792 53.0812 107.852 52.8595 107.852 52.6162C107.852 52.3729 107.797 52.1512 107.687 51.9512C107.577 51.7479 107.412 51.5862 107.192 51.4662C106.972 51.3429 106.692 51.2812 106.352 51.2812H104.587L105.297 47.8462H108.682V48.8862H106.142L105.867 50.2412L106.472 50.2512C106.948 50.2612 107.367 50.3712 107.727 50.5812C108.09 50.7879 108.375 51.0679 108.582 51.4212C108.788 51.7712 108.892 52.1695 108.892 52.6162C108.892 52.9395 108.83 53.2445 108.707 53.5312C108.583 53.8145 108.413 54.0645 108.197 54.2812C107.983 54.4979 107.733 54.6679 107.447 54.7912C107.163 54.9145 106.858 54.9762 106.532 54.9762ZM110.44 54.8462L114.48 47.8462H115.68L111.64 54.8462H110.44ZM111.285 50.7812C111.032 50.7812 110.799 50.7195 110.585 50.5962C110.375 50.4695 110.207 50.3012 110.08 50.0912C109.954 49.8779 109.89 49.6429 109.89 49.3862C109.89 49.1195 109.954 48.8812 110.08 48.6712C110.21 48.4612 110.38 48.2962 110.59 48.1762C110.804 48.0529 111.035 47.9912 111.285 47.9912C111.542 47.9912 111.775 48.0545 111.985 48.1812C112.195 48.3045 112.364 48.4712 112.49 48.6812C112.617 48.8912 112.68 49.1262 112.68 49.3862C112.68 49.6495 112.615 49.8862 112.485 50.0962C112.359 50.3062 112.189 50.4729 111.975 50.5962C111.765 50.7195 111.535 50.7812 111.285 50.7812ZM111.285 50.0462C111.472 50.0462 111.629 49.9829 111.755 49.8562C111.882 49.7262 111.945 49.5695 111.945 49.3862C111.945 49.1995 111.882 49.0429 111.755 48.9162C111.629 48.7862 111.472 48.7212 111.285 48.7212C111.102 48.7212 110.945 48.7862 110.815 48.9162C110.689 49.0429 110.625 49.1995 110.625 49.3862C110.625 49.5695 110.689 49.7262 110.815 49.8562C110.945 49.9829 111.102 50.0462 111.285 50.0462ZM114.845 54.7112C114.585 54.7112 114.349 54.6462 114.135 54.5162C113.925 54.3829 113.757 54.2112 113.63 54.0012C113.507 53.7879 113.445 53.5579 113.445 53.3112C113.445 53.0512 113.51 52.8162 113.64 52.6062C113.77 52.3929 113.94 52.2245 114.15 52.1012C114.364 51.9745 114.595 51.9112 114.845 51.9112C115.109 51.9112 115.345 51.9762 115.555 52.1062C115.765 52.2362 115.932 52.4079 116.055 52.6212C116.179 52.8345 116.24 53.0645 116.24 53.3112C116.24 53.5679 116.177 53.8029 116.05 54.0162C115.927 54.2262 115.759 54.3945 115.545 54.5212C115.335 54.6479 115.102 54.7112 114.845 54.7112ZM114.845 53.9762C115.025 53.9762 115.18 53.9112 115.31 53.7812C115.44 53.6512 115.505 53.4945 115.505 53.3112C115.505 53.1279 115.44 52.9712 115.31 52.8412C115.18 52.7112 115.025 52.6462 114.845 52.6462C114.662 52.6462 114.504 52.7112 114.37 52.8412C114.24 52.9712 114.175 53.1279 114.175 53.3112C114.175 53.4945 114.24 53.6512 114.37 53.7812C114.504 53.9112 114.662 53.9762 114.845 53.9762Z" fill="#27AE60"/>
<path d="M91.4946 46.75V51.25C91.4946 51.7 91.1946 52 90.7446 52C90.2946 52 89.9946 51.7 89.9946 51.25V48.55L84.1446 54.4C83.8446 54.7 83.3946 54.7 83.0946 54.4L79.8696 51.175L74.7696 56.275C74.6196 56.425 74.4696 56.5 74.2446 56.5C74.0196 56.5 73.8696 56.425 73.7196 56.275C73.4196 55.975 73.4196 55.525 73.7196 55.225L79.3446 49.6C79.6446 49.3 80.0946 49.3 80.3946 49.6L83.6196 52.825L88.9446 47.5H86.2446C85.7946 47.5 85.4946 47.2 85.4946 46.75C85.4946 46.3 85.7946 46 86.2446 46H90.7446C90.8196 46 90.9696 46 91.0446 46.075C91.1946 46.15 91.3446 46.3 91.4196 46.45C91.4946 46.525 91.4946 46.675 91.4946 46.75Z" fill="#27AE60"/>
<path d="M146.412 131.485H33.9784" stroke="#E4E4E4" stroke-opacity="0.4" stroke-width="0.429134" stroke-linecap="square"/>
<path d="M146.412 115.606H33.9784" stroke="#E4E4E4" stroke-opacity="0.4" stroke-width="0.429134" stroke-linecap="square"/>
<path d="M146.411 99.7287H33.9779" stroke="#E4E4E4" stroke-opacity="0.4" stroke-width="0.429134" stroke-linecap="square"/>
<path d="M39.5571 89.2898L49.8153 97.1145C51.3891 98.3149 53.5797 98.2833 55.1181 97.0379L59.943 93.132C62.2532 91.2618 65.7192 92.2498 66.6961 95.0571L76.7046 123.82C78.0166 127.591 83.3151 127.684 84.7586 123.961L90.6496 108.771C91.918 105.501 96.3611 105.051 98.2593 108L99.8494 110.471C101.619 113.221 105.69 113.061 107.238 110.18L109.994 105.052C110.573 103.975 111.583 103.196 112.772 102.911L119.954 101.185C120.699 101.006 121.383 100.63 121.935 100.097L131.914 90.4454C132.682 89.7019 133.701 89.2722 134.77 89.2405L146.412 88.8954" stroke="#6FCF97" stroke-width="1.49644" stroke-linejoin="round"/>
<circle cx="69.4946" cy="103" r="4" fill="#1D864A"/>
<circle cx="69.4946" cy="103" r="5.5" stroke="#1D864A"/>
<rect x="32.4946" y="110" width="74" height="35" rx="5" fill="#2D3748"/>
<path d="M43.2246 123L40.8646 116H41.6246L43.8346 122.59H43.4546L45.7346 116H46.4146L48.6646 122.59H48.3046L50.5346 116H51.2446L48.8846 123H48.1046L45.9546 116.75H46.1546L43.9946 123H43.2246ZM54.281 123.05C53.7344 123.05 53.2544 122.937 52.841 122.71C52.4277 122.477 52.1044 122.16 51.871 121.76C51.6377 121.353 51.521 120.89 51.521 120.37C51.521 119.85 51.631 119.39 51.851 118.99C52.0777 118.59 52.3844 118.277 52.771 118.05C53.1644 117.817 53.6044 117.7 54.091 117.7C54.5844 117.7 55.021 117.813 55.401 118.04C55.7877 118.26 56.091 118.573 56.311 118.98C56.531 119.38 56.641 119.843 56.641 120.37C56.641 120.403 56.6377 120.44 56.631 120.48C56.631 120.513 56.631 120.55 56.631 120.59H52.061V120.06H56.251L55.971 120.27C55.971 119.89 55.8877 119.553 55.721 119.26C55.561 118.96 55.341 118.727 55.061 118.56C54.781 118.393 54.4577 118.31 54.091 118.31C53.731 118.31 53.4077 118.393 53.121 118.56C52.8344 118.727 52.611 118.96 52.451 119.26C52.291 119.56 52.211 119.903 52.211 120.29V120.4C52.211 120.8 52.2977 121.153 52.471 121.46C52.651 121.76 52.8977 121.997 53.211 122.17C53.531 122.337 53.8944 122.42 54.301 122.42C54.621 122.42 54.9177 122.363 55.191 122.25C55.471 122.137 55.711 121.963 55.911 121.73L56.311 122.19C56.0777 122.47 55.7844 122.683 55.431 122.83C55.0844 122.977 54.701 123.05 54.281 123.05ZM60.1762 123.05C59.6762 123.05 59.2262 122.937 58.8262 122.71C58.4329 122.483 58.1229 122.17 57.8962 121.77C57.6695 121.363 57.5562 120.897 57.5562 120.37C57.5562 119.837 57.6695 119.37 57.8962 118.97C58.1229 118.57 58.4329 118.26 58.8262 118.04C59.2262 117.813 59.6762 117.7 60.1762 117.7C60.6362 117.7 61.0462 117.803 61.4062 118.01C61.7729 118.217 62.0629 118.52 62.2762 118.92C62.4962 119.313 62.6062 119.797 62.6062 120.37C62.6062 120.937 62.4995 121.42 62.2862 121.82C62.0729 122.22 61.7829 122.527 61.4162 122.74C61.0562 122.947 60.6429 123.05 60.1762 123.05ZM60.2262 122.42C60.5995 122.42 60.9329 122.337 61.2262 122.17C61.5262 121.997 61.7595 121.757 61.9262 121.45C62.0995 121.137 62.1862 120.777 62.1862 120.37C62.1862 119.957 62.0995 119.597 61.9262 119.29C61.7595 118.983 61.5262 118.747 61.2262 118.58C60.9329 118.407 60.5995 118.32 60.2262 118.32C59.8595 118.32 59.5295 118.407 59.2362 118.58C58.9429 118.747 58.7095 118.983 58.5362 119.29C58.3629 119.597 58.2762 119.957 58.2762 120.37C58.2762 120.777 58.3629 121.137 58.5362 121.45C58.7095 121.757 58.9429 121.997 59.2362 122.17C59.5295 122.337 59.8595 122.42 60.2262 122.42ZM62.2062 123V121.42L62.2762 120.36L62.1762 119.3V115.58H62.8862V123H62.2062ZM67.5435 117.7C67.9702 117.7 68.3435 117.783 68.6635 117.95C68.9902 118.11 69.2435 118.357 69.4235 118.69C69.6102 119.023 69.7035 119.443 69.7035 119.95V123H68.9935V120.02C68.9935 119.467 68.8535 119.05 68.5735 118.77C68.3002 118.483 67.9135 118.34 67.4135 118.34C67.0402 118.34 66.7135 118.417 66.4335 118.57C66.1602 118.717 65.9469 118.933 65.7935 119.22C65.6469 119.5 65.5735 119.84 65.5735 120.24V123H64.8635V117.75H65.5435V119.19L65.4335 118.92C65.6002 118.54 65.8669 118.243 66.2335 118.03C66.6002 117.81 67.0369 117.7 67.5435 117.7ZM73.8513 123.05C73.3047 123.05 72.8247 122.937 72.4113 122.71C71.998 122.477 71.6747 122.16 71.4413 121.76C71.208 121.353 71.0913 120.89 71.0913 120.37C71.0913 119.85 71.2013 119.39 71.4213 118.99C71.648 118.59 71.9547 118.277 72.3413 118.05C72.7347 117.817 73.1747 117.7 73.6613 117.7C74.1547 117.7 74.5913 117.813 74.9713 118.04C75.358 118.26 75.6613 118.573 75.8813 118.98C76.1013 119.38 76.2113 119.843 76.2113 120.37C76.2113 120.403 76.208 120.44 76.2013 120.48C76.2013 120.513 76.2013 120.55 76.2013 120.59H71.6313V120.06H75.8213L75.5413 120.27C75.5413 119.89 75.458 119.553 75.2913 119.26C75.1313 118.96 74.9113 118.727 74.6313 118.56C74.3513 118.393 74.028 118.31 73.6613 118.31C73.3013 118.31 72.978 118.393 72.6913 118.56C72.4047 118.727 72.1813 118.96 72.0213 119.26C71.8613 119.56 71.7813 119.903 71.7813 120.29V120.4C71.7813 120.8 71.868 121.153 72.0413 121.46C72.2213 121.76 72.468 121.997 72.7813 122.17C73.1013 122.337 73.4647 122.42 73.8713 122.42C74.1913 122.42 74.488 122.363 74.7613 122.25C75.0413 122.137 75.2813 121.963 75.4813 121.73L75.8813 122.19C75.648 122.47 75.3547 122.683 75.0013 122.83C74.6547 122.977 74.2713 123.05 73.8513 123.05ZM79.0665 123.05C78.6332 123.05 78.2232 122.99 77.8365 122.87C77.4498 122.743 77.1465 122.587 76.9265 122.4L77.2465 121.84C77.4598 122 77.7332 122.14 78.0665 122.26C78.3998 122.373 78.7498 122.43 79.1165 122.43C79.6165 122.43 79.9765 122.353 80.1965 122.2C80.4165 122.04 80.5265 121.83 80.5265 121.57C80.5265 121.377 80.4632 121.227 80.3365 121.12C80.2165 121.007 80.0565 120.923 79.8565 120.87C79.6565 120.81 79.4332 120.76 79.1865 120.72C78.9398 120.68 78.6932 120.633 78.4465 120.58C78.2065 120.527 77.9865 120.45 77.7865 120.35C77.5865 120.243 77.4232 120.1 77.2965 119.92C77.1765 119.74 77.1165 119.5 77.1165 119.2C77.1165 118.913 77.1965 118.657 77.3565 118.43C77.5165 118.203 77.7498 118.027 78.0565 117.9C78.3698 117.767 78.7498 117.7 79.1965 117.7C79.5365 117.7 79.8765 117.747 80.2165 117.84C80.5565 117.927 80.8365 118.043 81.0565 118.19L80.7465 118.76C80.5132 118.6 80.2632 118.487 79.9965 118.42C79.7298 118.347 79.4632 118.31 79.1965 118.31C78.7232 118.31 78.3732 118.393 78.1465 118.56C77.9265 118.72 77.8165 118.927 77.8165 119.18C77.8165 119.38 77.8765 119.537 77.9965 119.65C78.1232 119.763 78.2865 119.853 78.4865 119.92C78.6932 119.98 78.9165 120.03 79.1565 120.07C79.4032 120.11 79.6465 120.16 79.8865 120.22C80.1332 120.273 80.3565 120.35 80.5565 120.45C80.7632 120.543 80.9265 120.68 81.0465 120.86C81.1732 121.033 81.2365 121.263 81.2365 121.55C81.2365 121.857 81.1498 122.123 80.9765 122.35C80.8098 122.57 80.5632 122.743 80.2365 122.87C79.9165 122.99 79.5265 123.05 79.0665 123.05ZM84.6293 123.05C84.1293 123.05 83.6793 122.937 83.2793 122.71C82.886 122.483 82.576 122.17 82.3493 121.77C82.1226 121.363 82.0093 120.897 82.0093 120.37C82.0093 119.837 82.1226 119.37 82.3493 118.97C82.576 118.57 82.886 118.26 83.2793 118.04C83.6793 117.813 84.1293 117.7 84.6293 117.7C85.0893 117.7 85.4993 117.803 85.8593 118.01C86.226 118.217 86.516 118.52 86.7293 118.92C86.9493 119.313 87.0593 119.797 87.0593 120.37C87.0593 120.937 86.9526 121.42 86.7393 121.82C86.526 122.22 86.236 122.527 85.8693 122.74C85.5093 122.947 85.096 123.05 84.6293 123.05ZM84.6793 122.42C85.0526 122.42 85.386 122.337 85.6793 122.17C85.9793 121.997 86.2127 121.757 86.3793 121.45C86.5526 121.137 86.6393 120.777 86.6393 120.37C86.6393 119.957 86.5526 119.597 86.3793 119.29C86.2127 118.983 85.9793 118.747 85.6793 118.58C85.386 118.407 85.0526 118.32 84.6793 118.32C84.3126 118.32 83.9826 118.407 83.6893 118.58C83.396 118.747 83.1626 118.983 82.9893 119.29C82.816 119.597 82.7293 119.957 82.7293 120.37C82.7293 120.777 82.816 121.137 82.9893 121.45C83.1626 121.757 83.396 121.997 83.6893 122.17C83.9826 122.337 84.3126 122.42 84.6793 122.42ZM86.6593 123V121.42L86.7293 120.36L86.6293 119.3V115.58H87.3393V123H86.6593ZM92.6067 123V121.84L92.5767 121.65V119.71C92.5767 119.263 92.45 118.92 92.1967 118.68C91.95 118.44 91.58 118.32 91.0867 118.32C90.7467 118.32 90.4233 118.377 90.1167 118.49C89.81 118.603 89.55 118.753 89.3367 118.94L89.0167 118.41C89.2833 118.183 89.6033 118.01 89.9767 117.89C90.35 117.763 90.7433 117.7 91.1567 117.7C91.8367 117.7 92.36 117.87 92.7267 118.21C93.1 118.543 93.2867 119.053 93.2867 119.74V123H92.6067ZM90.7967 123.05C90.4033 123.05 90.06 122.987 89.7667 122.86C89.48 122.727 89.26 122.547 89.1067 122.32C88.9533 122.087 88.8767 121.82 88.8767 121.52C88.8767 121.247 88.94 121 89.0667 120.78C89.2 120.553 89.4133 120.373 89.7067 120.24C90.0067 120.1 90.4067 120.03 90.9067 120.03H92.7167V120.56H90.9267C90.42 120.56 90.0667 120.65 89.8667 120.83C89.6733 121.01 89.5767 121.233 89.5767 121.5C89.5767 121.8 89.6933 122.04 89.9267 122.22C90.16 122.4 90.4867 122.49 90.9067 122.49C91.3067 122.49 91.65 122.4 91.9367 122.22C92.23 122.033 92.4433 121.767 92.5767 121.42L92.7367 121.91C92.6033 122.257 92.37 122.533 92.0367 122.74C91.71 122.947 91.2967 123.05 90.7967 123.05ZM95.1574 124.99C94.9108 124.99 94.6741 124.95 94.4474 124.87C94.2274 124.79 94.0374 124.67 93.8774 124.51L94.2074 123.98C94.3408 124.107 94.4841 124.203 94.6374 124.27C94.7974 124.343 94.9741 124.38 95.1674 124.38C95.4008 124.38 95.6008 124.313 95.7674 124.18C95.9408 124.053 96.1041 123.827 96.2574 123.5L96.5974 122.73L96.6774 122.62L98.8374 117.75H99.5374L96.9074 123.63C96.7608 123.97 96.5974 124.24 96.4174 124.44C96.2441 124.64 96.0541 124.78 95.8474 124.86C95.6408 124.947 95.4108 124.99 95.1574 124.99ZM96.5574 123.15L94.1374 117.75H94.8774L97.0174 122.57L96.5574 123.15Z" fill="#EDF2F7"/>
<path d="M52.3666 140V132.2L53.0506 132.908H50.5906V131.6H53.9266V140H52.3666ZM55.4729 138.092V137.012L59.6129 131.6H61.2809L57.2009 137.012L56.4209 136.772H63.0809V138.092H55.4729ZM60.0809 140V138.092L60.1289 136.772V135.08H61.5929V140H60.0809ZM66.5109 131.48C67.2789 131.48 67.9309 131.644 68.4669 131.972C69.0109 132.292 69.4269 132.76 69.7149 133.376C70.0029 133.992 70.1469 134.752 70.1469 135.656C70.1469 136.616 69.9709 137.428 69.6189 138.092C69.2749 138.756 68.7949 139.26 68.1789 139.604C67.5629 139.948 66.8469 140.12 66.0309 140.12C65.6069 140.12 65.2029 140.076 64.8189 139.988C64.4349 139.9 64.1029 139.764 63.8229 139.58L64.3989 138.404C64.6309 138.556 64.8829 138.664 65.1549 138.728C65.4269 138.784 65.7069 138.812 65.9949 138.812C66.7869 138.812 67.4149 138.568 67.8789 138.08C68.3429 137.592 68.5749 136.872 68.5749 135.92C68.5749 135.768 68.5709 135.592 68.5629 135.392C68.5549 135.184 68.5269 134.976 68.4789 134.768L68.9589 135.296C68.8229 135.624 68.6269 135.9 68.3709 136.124C68.1149 136.34 67.8149 136.504 67.4709 136.616C67.1269 136.728 66.7469 136.784 66.3309 136.784C65.7869 136.784 65.2949 136.68 64.8549 136.472C64.4229 136.256 64.0789 135.956 63.8229 135.572C63.5669 135.18 63.4389 134.724 63.4389 134.204C63.4389 133.644 63.5749 133.164 63.8469 132.764C64.1189 132.356 64.4869 132.04 64.9509 131.816C65.4229 131.592 65.9429 131.48 66.5109 131.48ZM66.5949 132.704C66.2749 132.704 65.9909 132.764 65.7429 132.884C65.4949 132.996 65.2989 133.16 65.1549 133.376C65.0189 133.584 64.9509 133.836 64.9509 134.132C64.9509 134.572 65.1029 134.92 65.4069 135.176C65.7109 135.432 66.1189 135.56 66.6309 135.56C66.9669 135.56 67.2629 135.5 67.5189 135.38C67.7749 135.252 67.9749 135.08 68.1189 134.864C68.2629 134.64 68.3349 134.392 68.3349 134.12C68.3349 133.856 68.2669 133.62 68.1309 133.412C67.9949 133.196 67.7989 133.024 67.5429 132.896C67.2869 132.768 66.9709 132.704 66.5949 132.704ZM71.9977 140.084C71.7257 140.084 71.4937 139.992 71.3017 139.808C71.1097 139.616 71.0137 139.376 71.0137 139.088C71.0137 138.784 71.1097 138.544 71.3017 138.368C71.4937 138.184 71.7257 138.092 71.9977 138.092C72.2697 138.092 72.5017 138.184 72.6937 138.368C72.8857 138.544 72.9817 138.784 72.9817 139.088C72.9817 139.376 72.8857 139.616 72.6937 139.808C72.5017 139.992 72.2697 140.084 71.9977 140.084ZM75.2196 140L78.6876 132.224L79.0956 132.92H74.3316L75.0756 132.164V134.348H73.6236V131.6H80.1516V132.644L76.8876 140H75.2196ZM82.7964 138.572L82.8324 136.688L86.1804 133.592H87.9804L85.1364 136.448L84.3444 137.108L82.7964 138.572ZM81.5724 140V131.096H83.0724V140H81.5724ZM86.4084 140L84.0684 137.108L85.0164 135.908L88.2324 140H86.4084Z" fill="#EDF2F7"/>
</g>
<defs>
<clipPath id="clip0_3005_4282">
<rect width="181.549" height="154.365" fill="white"/>
</clipPath>
</defs>
</svg>
