<svg width="59" height="58" viewBox="0 0 59 58" fill="none" xmlns="http://www.w3.org/2000/svg">
<rect y="0.5" width="59" height="57" rx="12" fill="#24A855"/>
<g clip-path="url(#clip0_4136_865)">
<path d="M29.4928 11C27.1088 10.9663 24.7418 11.4067 22.5295 12.2957C20.3171 13.1847 18.3036 14.5046 16.6058 16.1785C14.9079 17.8525 13.5598 19.8472 12.6396 22.0467C11.7194 24.2463 11.2455 26.6068 11.2455 28.991C11.2455 31.3753 11.7194 33.7358 12.6396 35.9353C13.5598 38.1349 14.9079 40.1296 16.6058 41.8035C18.3036 43.4775 20.3171 44.7973 22.5295 45.6863C24.7418 46.5753 27.1088 47.0158 29.4928 46.982C34.2202 46.9152 38.7314 44.9903 42.0508 41.6236C45.3702 38.2569 47.2311 33.7189 47.2311 28.991C47.2311 24.2631 45.3702 19.7252 42.0508 16.3585C38.7314 12.9918 34.2202 11.0669 29.4928 11ZM15.1 28.9928C15.0698 27.0838 15.4197 25.1879 16.1294 23.4154C16.839 21.643 17.8943 20.0294 19.2336 18.6688C20.5729 17.3081 22.1696 16.2275 23.9306 15.4899C25.6916 14.7523 27.5817 14.3724 29.491 14.3724C31.4002 14.3724 33.2904 14.7523 35.0514 15.4899C36.8124 16.2275 38.4091 17.3081 39.7484 18.6688C41.0877 20.0294 42.1429 21.643 42.8526 23.4154C43.5623 25.1879 43.9122 27.0838 43.882 28.9928C43.8222 32.7701 42.2798 36.3725 39.5874 39.0226C36.8951 41.6727 33.2688 43.158 29.491 43.158C25.7132 43.158 22.0869 41.6727 19.3945 39.0226C16.7022 36.3725 15.1597 32.7701 15.1 28.9928ZM37.0744 23.2256C37.242 23.3928 37.375 23.5915 37.4657 23.8101C37.5565 24.0288 37.6032 24.2633 37.6032 24.5C37.6032 24.7368 37.5565 24.9712 37.4657 25.1899C37.375 25.4086 37.242 25.6072 37.0744 25.7744L28.9744 33.8744C28.8072 34.0421 28.6085 34.1751 28.3899 34.2658C28.1712 34.3565 27.9367 34.4032 27.7 34.4032C27.4632 34.4032 27.2288 34.3565 27.0101 34.2658C26.7914 34.1751 26.5928 34.0421 26.4256 33.8744L22.8256 30.2744C22.4876 29.9364 22.2977 29.478 22.2977 29C22.2977 28.522 22.4876 28.0636 22.8256 27.7256C23.1636 27.3876 23.622 27.1978 24.1 27.1978C24.578 27.1978 25.0364 27.3876 25.3744 27.7256L27.7 30.0548L34.5256 23.2256C34.6928 23.058 34.8914 22.925 35.1101 22.8343C35.3288 22.7435 35.5632 22.6968 35.8 22.6968C36.0367 22.6968 36.2712 22.7435 36.4899 22.8343C36.7085 22.925 36.9072 23.058 37.0744 23.2256Z" fill="white"/>
</g>
<defs>
<clipPath id="clip0_4136_865">
<rect width="36" height="36" fill="white" transform="translate(11.5 11)"/>
</clipPath>
</defs>
</svg>
