<svg width="59" height="58" viewBox="0 0 59 58" fill="none" xmlns="http://www.w3.org/2000/svg">
<rect y="0.5" width="59" height="57" rx="12" fill="#ED1C24"/>
<path fill-rule="evenodd" clip-rule="evenodd" d="M29.4997 45.6668C38.7047 45.6668 46.1663 38.2052 46.1663 29.0002C46.1663 19.7952 38.7047 12.3335 29.4997 12.3335C20.2947 12.3335 12.833 19.7952 12.833 29.0002C12.833 38.2052 20.2947 45.6668 29.4997 45.6668ZM36.2763 22.2235C36.5104 22.4579 36.6419 22.7756 36.6419 23.1068C36.6419 23.4381 36.5104 23.7558 36.2763 23.9902L31.2663 29.0002L36.2747 34.0085C36.4955 34.2455 36.6157 34.5589 36.61 34.8827C36.6042 35.2065 36.4731 35.5155 36.244 35.7445C36.015 35.9736 35.706 36.1047 35.3822 36.1105C35.0584 36.1162 34.745 35.996 34.508 35.7752L29.4997 30.7702L24.4913 35.7785C24.3769 35.9013 24.2389 35.9998 24.0856 36.0681C23.9322 36.1365 23.7667 36.1732 23.5989 36.1761C23.431 36.1791 23.2643 36.1482 23.1087 36.0854C22.953 36.0225 22.8116 35.9289 22.6929 35.8102C22.5742 35.6915 22.4807 35.5501 22.4178 35.3945C22.3549 35.2388 22.3241 35.0721 22.327 34.9043C22.33 34.7365 22.3667 34.5709 22.435 34.4176C22.5034 34.2643 22.6019 34.1263 22.7247 34.0118L27.7297 29.0002L22.723 23.9918C22.6002 23.8774 22.5017 23.7394 22.4334 23.5861C22.3651 23.4327 22.3283 23.2672 22.3254 23.0994C22.3224 22.9315 22.3533 22.7648 22.4161 22.6092C22.479 22.4535 22.5726 22.3121 22.6913 22.1934C22.81 22.0747 22.9514 21.9812 23.107 21.9183C23.2627 21.8554 23.4294 21.8245 23.5972 21.8275C23.765 21.8305 23.9306 21.8672 24.0839 21.9355C24.2372 22.0038 24.3752 22.1024 24.4897 22.2252L29.4997 27.2302L34.508 22.2218C34.7424 21.9877 35.0601 21.8563 35.3913 21.8563C35.7226 21.8563 36.0403 21.9877 36.2747 22.2218" fill="white"/>
</svg>
