<svg width="59" height="58" viewBox="0 0 59 58" fill="none" xmlns="http://www.w3.org/2000/svg">
<rect y="0.5" width="59" height="57" rx="12" fill="#ED1C24"/>
<rect x="22.75" y="6.5" width="13.5" height="11.25" fill="#ED1C24"/>
<g clip-path="url(#clip0_4136_913)">
<path d="M29.75 8.16248C31.5859 8.16248 33.3568 8.39685 35.0625 8.8656C36.7682 9.33435 38.3568 10.0114 39.8281 10.8969C41.2995 11.7823 42.6471 12.8239 43.8711 14.0219C45.0951 15.2198 46.1432 16.5674 47.0156 18.0648C47.888 19.5622 48.5586 21.1573 49.0273 22.85C49.4961 24.5427 49.737 26.3135 49.75 28.1625C49.75 29.9984 49.5156 31.7692 49.0469 33.475C48.5781 35.1807 47.901 36.7692 47.0156 38.2406C46.1302 39.712 45.0885 41.0596 43.8906 42.2836C42.6927 43.5075 41.3451 44.5557 39.8477 45.4281C38.3503 46.3005 36.7552 46.9711 35.0625 47.4398C33.3698 47.9086 31.599 48.1495 29.75 48.1625C27.9141 48.1625 26.1432 47.9281 24.4375 47.4594C22.7318 46.9906 21.1432 46.3135 19.6719 45.4281C18.2005 44.5427 16.8529 43.501 15.6289 42.3031C14.4049 41.1052 13.3568 39.7575 12.4844 38.2601C11.612 36.7627 10.9414 35.1677 10.4727 33.475C10.0039 31.7823 9.76302 30.0114 9.75 28.1625C9.75 26.3265 9.98438 24.5557 10.4531 22.85C10.9219 21.1442 11.599 19.5557 12.4844 18.0844C13.3698 16.613 14.4115 15.2653 15.6094 14.0414C16.8073 12.8174 18.1549 11.7692 19.6523 10.8969C21.1497 10.0245 22.7448 9.35388 24.4375 8.88513C26.1302 8.41638 27.901 8.1755 29.75 8.16248ZM29.75 45.6625C31.3646 45.6625 32.9141 45.4541 34.3984 45.0375C35.8828 44.6208 37.276 44.0349 38.5781 43.2797C39.8802 42.5245 41.0586 41.613 42.1133 40.5453C43.168 39.4776 44.0794 38.2992 44.8477 37.0101C45.6159 35.7211 46.2083 34.3278 46.625 32.8304C47.0417 31.333 47.25 29.7771 47.25 28.1625C47.25 26.5479 47.0417 24.9984 46.625 23.514C46.2083 22.0297 45.6224 20.6364 44.8672 19.3344C44.112 18.0323 43.2005 16.8539 42.1328 15.7992C41.0651 14.7445 39.8867 13.833 38.5977 13.0648C37.3086 12.2966 35.9154 11.7041 34.418 11.2875C32.9206 10.8708 31.3646 10.6625 29.75 10.6625C28.1354 10.6625 26.5859 10.8708 25.1016 11.2875C23.6172 11.7041 22.224 12.2901 20.9219 13.0453C19.6198 13.8005 18.4414 14.712 17.3867 15.7797C16.332 16.8474 15.4206 18.0258 14.6523 19.3148C13.8841 20.6039 13.2917 21.9971 12.875 23.4945C12.4583 24.9919 12.25 26.5479 12.25 28.1625C12.25 29.7771 12.4583 31.3265 12.875 32.8109C13.2917 34.2953 13.8776 35.6885 14.6328 36.9906C15.388 38.2927 16.2995 39.4711 17.3672 40.5258C18.4349 41.5804 19.6133 42.4919 20.9023 43.2601C22.1914 44.0284 23.5846 44.6208 25.082 45.0375C26.5794 45.4541 28.1354 45.6625 29.75 45.6625ZM38.4023 21.2679L31.5273 28.1625L38.4023 35.057L36.6445 36.8148L29.75 29.9398L22.8555 36.8148L21.0977 35.057L27.9727 28.1625L21.0977 21.2679L22.8555 19.5101L29.75 26.3851L36.6445 19.5101L38.4023 21.2679Z" fill="white"/>
</g>
<defs>
<clipPath id="clip0_4136_913">
<rect width="40" height="40" fill="white" transform="translate(9.75 8.16248)"/>
</clipPath>
</defs>
</svg>
