<svg width="59" height="58" viewBox="0 0 59 58" fill="none" xmlns="http://www.w3.org/2000/svg">
<rect y="0.5" width="59" height="57" rx="12" fill="#FF8714"/>
<path fill-rule="evenodd" clip-rule="evenodd" d="M46.1663 29.0002C46.1663 19.7952 38.7047 12.3335 29.4997 12.3335C20.2947 12.3335 12.833 19.7952 12.833 29.0002C12.833 38.2052 20.2947 45.6668 29.4997 45.6668C38.7047 45.6668 46.1663 38.2052 46.1663 29.0002ZM29.4997 20.6668C29.9417 20.6668 30.3656 20.8424 30.6782 21.155C30.9907 21.4675 31.1663 21.8915 31.1663 22.3335V30.6668C31.1663 31.1089 30.9907 31.5328 30.6782 31.8453C30.3656 32.1579 29.9417 32.3335 29.4997 32.3335C29.0576 32.3335 28.6337 32.1579 28.3212 31.8453C28.0086 31.5328 27.833 31.1089 27.833 30.6668V22.3335C27.833 21.8915 28.0086 21.4675 28.3212 21.155C28.6337 20.8424 29.0576 20.6668 29.4997 20.6668ZM27.833 35.6668C27.833 35.2248 28.0086 34.8009 28.3212 34.4883C28.6337 34.1758 29.0576 34.0002 29.4997 34.0002H29.513C29.955 34.0002 30.379 34.1758 30.6915 34.4883C31.0041 34.8009 31.1797 35.2248 31.1797 35.6668C31.1797 36.1089 31.0041 36.5328 30.6915 36.8453C30.379 37.1579 29.955 37.3335 29.513 37.3335H29.4997C29.0576 37.3335 28.6337 37.1579 28.3212 36.8453C28.0086 36.5328 27.833 36.1089 27.833 35.6668Z" fill="white"/>
</svg>
