<svg width="59" height="58" viewBox="0 0 59 58" fill="none" xmlns="http://www.w3.org/2000/svg">
<rect y="0.5" width="59" height="57" rx="12" fill="#24A855"/>
<g clip-path="url(#clip0_4869_466)">
<path d="M29.5 46C34.0087 46 38.3327 44.2089 41.5208 41.0208C44.7089 37.8327 46.5 33.5087 46.5 29C46.5 24.4913 44.7089 20.1673 41.5208 16.9792C38.3327 13.7911 34.0087 12 29.5 12C24.9913 12 20.6673 13.7911 17.4792 16.9792C14.2911 20.1673 12.5 24.4913 12.5 29C12.5 33.5087 14.2911 37.8327 17.4792 41.0208C20.6673 44.2089 24.9913 46 29.5 46ZM37.3774 26.2524L28.871 34.7524C28.6736 34.9499 28.4393 35.1067 28.1813 35.2136C27.9233 35.3206 27.6468 35.3756 27.3676 35.3756C27.0883 35.3756 26.8118 35.3206 26.5538 35.2136C26.2958 35.1067 26.0615 34.9499 25.8641 34.7524L21.6205 30.5024C21.222 30.1034 20.9984 29.5624 20.9988 28.9985C20.9992 28.4346 21.2236 27.894 21.6226 27.4955C22.0216 27.097 22.5626 26.8734 23.1265 26.8738C23.6904 26.8742 24.231 27.0986 24.6295 27.4976L27.3708 30.2453L34.3726 23.2476C34.7734 22.8605 35.3102 22.6464 35.8674 22.6512C36.4245 22.656 36.9575 22.8795 37.3515 23.2735C37.7455 23.6675 37.969 24.2005 37.9738 24.7576C37.9786 25.3148 37.7645 25.8516 37.3774 26.2524Z" fill="white"/>
</g>
<defs>
<clipPath id="clip0_4869_466">
<rect width="34" height="34" fill="white" transform="translate(12.5 12)"/>
</clipPath>
</defs>
</svg>
