<svg width="59" height="58" viewBox="0 0 59 58" fill="none" xmlns="http://www.w3.org/2000/svg">
<rect y="0.5" width="59" height="57" rx="12" fill="#FF8714"/>
<rect x="21.6666" y="9.41669" width="13.7083" height="9.79167" fill="#FF8714"/>
<path d="M30.2503 12.2676C39.6854 12.2676 47.3337 19.7293 47.3337 28.9343C47.3337 38.1393 39.6854 45.601 30.2503 45.601C20.8152 45.601 13.167 38.1393 13.167 28.9343C13.167 19.7293 20.8152 12.2676 30.2503 12.2676ZM30.2503 15.601C26.6257 15.601 23.1495 17.0057 20.5865 19.5062C18.0235 22.0067 16.5837 25.3981 16.5837 28.9343C16.5837 32.4705 18.0235 35.8619 20.5865 38.3624C23.1495 40.8629 26.6257 42.2676 30.2503 42.2676C33.875 42.2676 37.3511 40.8629 39.9141 38.3624C42.4771 35.8619 43.917 32.4705 43.917 28.9343C43.917 25.3981 42.4771 22.0067 39.9141 19.5062C37.3511 17.0057 33.875 15.601 30.2503 15.601ZM30.2503 33.9343C30.7034 33.9343 31.1379 34.1099 31.4583 34.4225C31.7787 34.735 31.9587 35.1589 31.9587 35.601C31.9587 36.043 31.7787 36.4669 31.4583 36.7795C31.1379 37.092 30.7034 37.2676 30.2503 37.2676C29.7972 37.2676 29.3627 37.092 29.0424 36.7795C28.722 36.4669 28.542 36.043 28.542 35.601C28.542 35.1589 28.722 34.735 29.0424 34.4225C29.3627 34.1099 29.7972 33.9343 30.2503 33.9343ZM30.2503 18.9343C30.7034 18.9343 31.1379 19.1099 31.4583 19.4225C31.7787 19.735 31.9587 20.1589 31.9587 20.601V30.601C31.9587 31.043 31.7787 31.4669 31.4583 31.7795C31.1379 32.092 30.7034 32.2676 30.2503 32.2676C29.7972 32.2676 29.3627 32.092 29.0424 31.7795C28.722 31.4669 28.542 31.043 28.542 30.601V20.601C28.542 20.1589 28.722 19.735 29.0424 19.4225C29.3627 19.1099 29.7972 18.9343 30.2503 18.9343Z" fill="white"/>
</svg>
