<svg width="47" height="49" viewBox="0 0 47 49" fill="none" xmlns="http://www.w3.org/2000/svg">
<rect y="0.5" width="47" height="48" rx="10" fill="#ED1C24"/>
<path d="M31.1697 14.094L28.4197 12.6502C26.0052 11.3839 24.798 10.75 23.5 10.75C22.202 10.75 20.9947 11.3825 18.5802 12.6502L18.1389 12.8826L30.408 19.8937L35.93 17.13C35.0417 16.1235 33.609 15.3714 31.1697 14.0912M36.9035 18.9505L31.4062 21.7005V25.875C31.4062 26.1485 31.2976 26.4108 31.1042 26.6042C30.9108 26.7976 30.6485 26.9062 30.375 26.9062C30.1015 26.9062 29.8392 26.7976 29.6458 26.6042C29.4524 26.4108 29.3437 26.1485 29.3437 25.875V22.7317L24.5312 25.138V38.118C25.5185 37.8719 26.6419 37.2834 28.4197 36.3498L31.1697 34.906C34.1274 33.3536 35.6069 32.5781 36.4291 31.1825C37.25 29.7882 37.25 28.0516 37.25 24.5825V24.4216C37.25 21.8187 37.25 20.1908 36.9035 18.9505ZM22.4687 38.118V25.138L10.0965 18.9505C9.75 20.1908 9.75 21.8188 9.75 24.4189V24.5797C9.75 28.0516 9.75 29.7882 10.5709 31.1825C11.3931 32.5781 12.8726 33.355 15.8302 34.9074L18.5802 36.3498C20.3581 37.2834 21.4815 37.8719 22.4687 38.118ZM11.07 17.1314L23.5 23.3464L28.1901 21.002L15.9719 14.0197L15.8302 14.094C13.3924 15.3728 11.9582 16.1249 11.07 17.1328" fill="white"/>
</svg>
