<svg width="25" height="25" viewBox="0 0 25 25" fill="none" xmlns="http://www.w3.org/2000/svg">
<path d="M12.0244 1.81055C9.83718 1.81313 7.74026 2.68315 6.19364 4.22977C4.64703 5.77638 3.777 7.8733 3.77442 10.0605C3.7718 11.848 4.35566 13.5869 5.43642 15.0105C5.43642 15.0105 5.66142 15.3068 5.69817 15.3495L12.0244 22.8105L18.3537 15.3458C18.3867 15.306 18.6124 15.0105 18.6124 15.0105L18.6132 15.0083C19.6934 13.5853 20.277 11.8471 20.2744 10.0605C20.2718 7.8733 19.4018 5.77638 17.8552 4.22977C16.3086 2.68315 14.2117 1.81313 12.0244 1.81055ZM12.0244 13.0605C11.4311 13.0605 10.8511 12.8846 10.3577 12.555C9.86436 12.2253 9.47985 11.7568 9.25278 11.2086C9.02572 10.6604 8.96631 10.0572 9.08207 9.47528C9.19782 8.89333 9.48354 8.35878 9.9031 7.93923C10.3227 7.51967 10.8572 7.23395 11.4392 7.11819C12.0211 7.00244 12.6243 7.06185 13.1725 7.28891C13.7207 7.51597 14.1892 7.90049 14.5188 8.39384C14.8485 8.88718 15.0244 9.4672 15.0244 10.0605C15.0234 10.8559 14.707 11.6184 14.1446 12.1808C13.5823 12.7432 12.8198 13.0596 12.0244 13.0605Z" fill="white"/>
</svg>
