<svg width="24" height="30" viewBox="0 0 24 30" fill="none" xmlns="http://www.w3.org/2000/svg">
<path d="M2.66667 22.0003H21.3333V12.7083C21.3333 7.53099 17.1547 3.33366 12 3.33366C6.84533 3.33366 2.66667 7.53099 2.66667 12.7083V22.0003ZM12 0.666992C18.6267 0.666992 24 6.05766 24 12.7083V24.667H0V12.7083C0 6.05766 5.37333 0.666992 12 0.666992ZM8.66667 26.0003H15.3333C15.3333 26.8844 14.9821 27.7322 14.357 28.3573C13.7319 28.9825 12.8841 29.3337 12 29.3337C11.1159 29.3337 10.2681 28.9825 9.64298 28.3573C9.01786 27.7322 8.66667 26.8844 8.66667 26.0003Z" fill="#484C52"/>
</svg>
