<svg width="24" height="29" viewBox="0 0 24 29" fill="none" xmlns="http://www.w3.org/2000/svg">
<path fill-rule="evenodd" clip-rule="evenodd" d="M13.4583 1.4974C13.4583 1.11062 13.3046 0.739689 13.0311 0.466198C12.7576 0.192708 12.3867 0.0390625 11.9999 0.0390625C11.6132 0.0390625 11.2422 0.192708 10.9687 0.466198C10.6952 0.739689 10.5416 1.11062 10.5416 1.4974V2.59115H9.7293C8.16601 2.59104 6.66145 3.18672 5.5219 4.25691C4.38235 5.3271 3.69349 6.79134 3.59555 8.35156L3.27326 13.5053C3.14867 15.47 2.48903 17.3632 1.36576 18.9799C1.13335 19.3139 0.991343 19.7025 0.953551 20.1076C0.915759 20.5128 0.983467 20.9209 1.15009 21.2922C1.31671 21.6634 1.57658 21.9853 1.90442 22.2264C2.23226 22.4675 2.61691 22.6196 3.02097 22.668L7.98951 23.263V24.8307C7.98951 25.8944 8.41203 26.9144 9.16413 27.6665C9.91623 28.4186 10.9363 28.8411 11.9999 28.8411C13.0636 28.8411 14.0836 28.4186 14.8357 27.6665C15.5878 26.9144 16.0103 25.8944 16.0103 24.8307V23.263L20.9789 22.6666C21.3827 22.618 21.7671 22.4659 22.0947 22.2248C22.4224 21.9838 22.6821 21.6622 22.8487 21.2911C23.0153 20.9201 23.0831 20.5123 23.0455 20.1073C23.0079 19.7023 22.8661 19.3139 22.6341 18.9799C21.5108 17.3632 20.8512 15.47 20.7266 13.5053L20.4043 8.35302C20.3067 6.79254 19.618 5.32793 18.4784 4.25744C17.3388 3.18694 15.8341 2.59107 14.2706 2.59115H13.4583V1.4974ZM9.7293 4.77865C8.72243 4.77852 7.75336 5.16215 7.0194 5.85141C6.28543 6.54067 5.84174 7.48375 5.77868 8.48865L5.45784 13.6424C5.3079 16.006 4.5141 18.2835 3.16243 20.2282C3.14561 20.2524 3.13533 20.2805 3.13258 20.3098C3.12984 20.3391 3.13472 20.3686 3.14676 20.3955C3.15879 20.4223 3.17757 20.4456 3.20127 20.4631C3.22497 20.4805 3.25279 20.4916 3.28201 20.4951L8.7318 21.1499C10.9033 21.4095 13.0966 21.4095 15.2681 21.1499L20.7178 20.4951C20.7471 20.4916 20.7749 20.4805 20.7986 20.4631C20.8223 20.4456 20.8411 20.4223 20.8531 20.3955C20.8651 20.3686 20.87 20.3391 20.8673 20.3098C20.8645 20.2805 20.8542 20.2524 20.8374 20.2282C19.4863 18.2833 18.693 16.0058 18.5435 13.6424L18.2212 8.48865C18.1581 7.48375 17.7144 6.54067 16.9805 5.85141C16.2465 5.16215 15.2774 4.77852 14.2706 4.77865H9.7293ZM11.9999 26.6536C10.9937 26.6536 10.177 25.837 10.177 24.8307V23.737H13.8228V24.8307C13.8228 25.837 13.0062 26.6536 11.9999 26.6536Z" fill="#484C52"/>
</svg>
