<svg width="40" height="40" viewBox="0 0 40 40" fill="none" xmlns="http://www.w3.org/2000/svg">
<path d="M23.0895 5.24409C23.2457 5.40036 23.3335 5.61229 23.3335 5.83326C23.3335 6.05423 23.2457 6.26615 23.0895 6.42242L21.1787 8.33326L23.0895 10.2441C23.2413 10.4013 23.3253 10.6118 23.3234 10.8303C23.3215 11.0488 23.2338 11.2578 23.0793 11.4123C22.9248 11.5668 22.7158 11.6544 22.4973 11.6563C22.2788 11.6582 22.0683 11.5742 21.9112 11.4224L20.0003 9.51159L18.0895 11.4224C18.0121 11.4998 17.9202 11.5612 17.819 11.603C17.7179 11.6449 17.6095 11.6664 17.5 11.6663C17.3906 11.6663 17.2822 11.6447 17.1811 11.6028C17.08 11.5609 16.9881 11.4994 16.9107 11.422C16.8334 11.3446 16.772 11.2527 16.7302 11.1515C16.6883 11.0504 16.6668 10.942 16.6668 10.8325C16.6669 10.7231 16.6885 10.6147 16.7304 10.5136C16.7723 10.4125 16.8337 10.3206 16.9112 10.2433L18.822 8.33326L16.9112 6.42242C16.8338 6.345 16.7724 6.25309 16.7306 6.15195C16.6887 6.05081 16.6672 5.94242 16.6672 5.83296C16.6673 5.72351 16.6889 5.61513 16.7308 5.51402C16.7727 5.41291 16.8342 5.32105 16.9116 5.24367C16.989 5.1663 17.0809 5.10494 17.182 5.06309C17.2832 5.02124 17.3916 4.99972 17.501 4.99976C17.6105 4.99979 17.7189 5.02139 17.82 5.06332C17.9211 5.10524 18.013 5.16667 18.0903 5.24409L20.0003 7.15493L21.9112 5.24409C22.0674 5.08787 22.2794 5.0001 22.5003 5.0001C22.7213 5.0001 22.9332 5.08787 23.0895 5.24409ZM15.9987 27.2733C16.5566 27.4592 17.1577 27.4721 17.7231 27.3103C18.2886 27.1485 18.7919 26.8195 19.167 26.3666V35.0191L9.16699 31.2499V24.9966L15.9987 27.2733Z" fill="#ED1C24"/>
<path fill-rule="evenodd" clip-rule="evenodd" d="M30.8335 31.25L20.8335 35.0191V26.3666C21.2087 26.8196 21.712 27.1485 22.2774 27.3103C22.8428 27.4721 23.4439 27.4592 24.0019 27.2733L30.8335 24.9966V31.25ZM20.2727 12.5458C20.0962 12.4847 19.9042 12.4847 19.7277 12.5458L8.89604 16.2958L8.87687 16.3016C8.73125 16.3558 8.60367 16.4496 8.50854 16.5725L5.18354 20.7291C5.09956 20.8339 5.04214 20.9575 5.01619 21.0892C4.99024 21.221 4.99652 21.3571 5.0345 21.4859C5.07247 21.6147 5.14101 21.7325 5.23429 21.8291C5.32756 21.9257 5.44281 21.9983 5.5702 22.0408L16.8202 25.7908C16.9906 25.8474 17.1747 25.8475 17.3451 25.7911C17.5155 25.7346 17.6632 25.6246 17.766 25.4775L20.0002 22.2858L22.2335 25.4775C22.3365 25.6248 22.4842 25.7349 22.6548 25.7914C22.8254 25.8478 23.0097 25.8476 23.1802 25.7908L34.4302 22.0408C34.5577 21.9984 34.673 21.9259 34.7664 21.8293C34.8597 21.7327 34.9284 21.615 34.9664 21.4862C35.0045 21.3573 35.0108 21.2212 34.9849 21.0894C34.9591 20.9576 34.9017 20.834 34.8177 20.7291L31.4927 16.5725C31.3931 16.4441 31.2581 16.3476 31.1044 16.295L20.2727 12.5458ZM20.0002 19.9516L28.286 17.0833L20.0002 14.215L11.7144 17.0833L20.0002 19.9516Z" fill="#ED1C24"/>
<rect x="15" y="3.33325" width="10" height="8.33333" fill="#FFDBDC"/>
</svg>
