<svg width="630" height="220" viewBox="0 0 630 220" fill="none" xmlns="http://www.w3.org/2000/svg">
<g clip-path="url(#clip0_3005_4171)">
<rect x="0.41183" y="0.41183" width="628.534" height="218.335" rx="10.3082" fill="white" stroke="#E0E0E0" stroke-width="0.823661"/>
<path d="M36.5563 42.5284C35.7458 42.5284 34.9996 42.395 34.3176 42.1281C33.6356 41.8612 33.0426 41.4906 32.5385 41.0161C32.0344 40.5318 31.644 39.9684 31.3673 39.326C31.0905 38.6737 30.9521 37.962 30.9521 37.1911C30.9521 36.4201 31.0905 35.7134 31.3673 35.071C31.644 34.4186 32.0344 33.8552 32.5385 33.3808C33.0426 32.8965 33.6356 32.5209 34.3176 32.254C34.9996 31.9872 35.7409 31.8537 36.5415 31.8537C37.352 31.8537 38.0933 31.9872 38.7654 32.254C39.4474 32.5209 40.0404 32.8965 40.5445 33.3808C41.0486 33.8552 41.439 34.4186 41.7157 35.071C41.9925 35.7134 42.1309 36.4201 42.1309 37.1911C42.1309 37.962 41.9925 38.6737 41.7157 39.326C41.439 39.9783 41.0486 40.5417 40.5445 41.0161C40.0404 41.4906 39.4474 41.8612 38.7654 42.1281C38.0933 42.395 37.3569 42.5284 36.5563 42.5284ZM36.5415 40.8382C37.0654 40.8382 37.5497 40.7493 37.9944 40.5714C38.4392 40.3935 38.8247 40.1414 39.1509 39.8152C39.477 39.4792 39.7291 39.0937 39.907 38.6588C40.0948 38.2141 40.1887 37.7248 40.1887 37.1911C40.1887 36.6573 40.0948 36.173 39.907 35.7381C39.7291 35.2934 39.477 34.9079 39.1509 34.5817C38.8247 34.2457 38.4392 33.9887 37.9944 33.8108C37.5497 33.6329 37.0654 33.5439 36.5415 33.5439C36.0177 33.5439 35.5333 33.6329 35.0886 33.8108C34.6537 33.9887 34.2682 34.2457 33.9321 34.5817C33.606 34.9079 33.349 35.2934 33.1612 35.7381C32.9833 36.173 32.8943 36.6573 32.8943 37.1911C32.8943 37.7149 32.9833 38.1992 33.1612 38.644C33.349 39.0888 33.606 39.4792 33.9321 39.8152C34.2583 40.1414 34.6438 40.3935 35.0886 40.5714C35.5333 40.7493 36.0177 40.8382 36.5415 40.8382ZM46.1012 42.3801L42.7061 34.4631H44.6334L47.5541 41.4461H46.6053L49.6298 34.4631H51.4089L48.0137 42.3801H46.1012ZM56.0713 42.4839C55.1916 42.4839 54.4206 42.3109 53.7584 41.965C53.1061 41.6092 52.5971 41.1249 52.2313 40.5121C51.8755 39.8993 51.6976 39.2024 51.6976 38.4216C51.6976 37.6309 51.8706 36.9341 52.2165 36.3312C52.5723 35.7184 53.0567 35.239 53.6695 34.8931C54.2921 34.5471 54.9988 34.3741 55.7896 34.3741C56.5605 34.3741 57.2474 34.5422 57.8504 34.8782C58.4533 35.2143 58.9277 35.6887 59.2736 36.3015C59.6196 36.9143 59.7926 37.6358 59.7926 38.4661C59.7926 38.5452 59.7876 38.6341 59.7777 38.733C59.7777 38.8318 59.7728 38.9257 59.7629 39.0146H53.1654V37.7841H58.7844L58.0579 38.1696C58.0678 37.7149 57.9739 37.3146 57.7762 36.9687C57.5786 36.6227 57.3067 36.3509 56.9608 36.1533C56.6248 35.9556 56.2343 35.8567 55.7896 35.8567C55.3349 35.8567 54.9346 35.9556 54.5887 36.1533C54.2526 36.3509 53.9857 36.6277 53.7881 36.9835C53.6003 37.3294 53.5064 37.7396 53.5064 38.2141V38.5106C53.5064 38.985 53.6151 39.4051 53.8325 39.7708C54.05 40.1365 54.3564 40.4182 54.7518 40.6158C55.1471 40.8135 55.6018 40.9124 56.1157 40.9124C56.5605 40.9124 56.9608 40.8432 57.3166 40.7048C57.6725 40.5664 57.9887 40.349 58.2655 40.0525L59.2588 41.1941C58.903 41.6092 58.4533 41.9304 57.9097 42.1577C57.3759 42.3752 56.7631 42.4839 56.0713 42.4839ZM61.5727 42.3801V34.4631H63.337V36.6425L63.1294 36.005C63.3666 35.4713 63.7373 35.066 64.2414 34.7893C64.7553 34.5125 65.3928 34.3741 66.1539 34.3741V36.1384C66.0748 36.1187 66.0007 36.1088 65.9315 36.1088C65.8623 36.0989 65.7931 36.0939 65.724 36.0939C65.0222 36.0939 64.4638 36.3015 64.0486 36.7166C63.6335 37.1219 63.4259 37.7297 63.4259 38.5402V42.3801H61.5727ZM72.0391 42.3801V40.7789L71.9353 40.4379V37.6358C71.9353 37.0922 71.7722 36.6722 71.446 36.3756C71.1199 36.0692 70.6257 35.916 69.9635 35.916C69.5187 35.916 69.0788 35.9852 68.644 36.1236C68.2189 36.262 67.8582 36.4547 67.5617 36.7018L66.8352 35.3527C67.2602 35.0265 67.7643 34.7843 68.3474 34.6262C68.9405 34.4582 69.5533 34.3741 70.1858 34.3741C71.3324 34.3741 72.217 34.6509 72.8397 35.2044C73.4723 35.748 73.7885 36.5931 73.7885 37.7396V42.3801H72.0391ZM69.5483 42.4839C68.9553 42.4839 68.4364 42.3851 67.9916 42.1874C67.5468 41.9798 67.2009 41.6981 66.9538 41.3423C66.7166 40.9766 66.598 40.5664 66.598 40.1118C66.598 39.667 66.7018 39.2667 66.9093 38.9109C67.1268 38.555 67.4777 38.2734 67.962 38.0658C68.4463 37.8582 69.0887 37.7544 69.8893 37.7544H72.1873V38.985H70.0228C69.3902 38.985 68.9652 39.0888 68.7477 39.2963C68.5303 39.494 68.4216 39.7411 68.4216 40.0376C68.4216 40.3737 68.555 40.6406 68.8219 40.8382C69.0887 41.0359 69.4594 41.1348 69.9338 41.1348C70.3885 41.1348 70.7937 41.031 71.1495 40.8234C71.5152 40.6158 71.7772 40.3094 71.9353 39.9042L72.2466 41.0161C72.0687 41.4807 71.7475 41.8415 71.283 42.0984C70.8283 42.3554 70.2501 42.4839 69.5483 42.4839ZM76.1669 42.3801V31.3793H78.0202V42.3801H76.1669ZM80.4525 42.3801V31.3793H82.3058V42.3801H80.4525ZM90.7926 36.3163H95.952V37.9027H90.7926V36.3163ZM90.9408 40.7641H96.797V42.3801H89.0135V32.002H96.5895V33.618H90.9408V40.7641ZM103.573 42.3801V40.7789L103.469 40.4379V37.6358C103.469 37.0922 103.306 36.6722 102.98 36.3756C102.654 36.0692 102.16 35.916 101.497 35.916C101.053 35.916 100.613 35.9852 100.178 36.1236C99.7529 36.262 99.3922 36.4547 99.0956 36.7018L98.3692 35.3527C98.7942 35.0265 99.2983 34.7843 99.8814 34.6262C100.474 34.4582 101.087 34.3741 101.72 34.3741C102.866 34.3741 103.751 34.6509 104.374 35.2044C105.006 35.748 105.323 36.5931 105.323 37.7396V42.3801H103.573ZM101.082 42.4839C100.489 42.4839 99.9704 42.3851 99.5256 42.1874C99.0808 41.9798 98.7349 41.6981 98.4878 41.3423C98.2506 40.9766 98.132 40.5664 98.132 40.1118C98.132 39.667 98.2357 39.2667 98.4433 38.9109C98.6607 38.555 99.0116 38.2734 99.4959 38.0658C99.9802 37.8582 100.623 37.7544 101.423 37.7544H103.721V38.985H101.557C100.924 38.985 100.499 39.0888 100.282 39.2963C100.064 39.494 99.9555 39.7411 99.9555 40.0376C99.9555 40.3737 100.089 40.6406 100.356 40.8382C100.623 41.0359 100.993 41.1348 101.468 41.1348C101.922 41.1348 102.328 41.031 102.684 40.8234C103.049 40.6158 103.311 40.3094 103.469 39.9042L103.781 41.0161C103.603 41.4807 103.281 41.8415 102.817 42.0984C102.362 42.3554 101.784 42.4839 101.082 42.4839ZM107.701 42.3801V34.4631H109.465V36.6425L109.258 36.005C109.495 35.4713 109.865 35.066 110.37 34.7893C110.884 34.5125 111.521 34.3741 112.282 34.3741V36.1384C112.203 36.1187 112.129 36.1088 112.06 36.1088C111.991 36.0989 111.921 36.0939 111.852 36.0939C111.15 36.0939 110.592 36.3015 110.177 36.7166C109.762 37.1219 109.554 37.7297 109.554 38.5402V42.3801H107.701ZM118.346 34.3741C118.979 34.3741 119.542 34.4977 120.037 34.7448C120.541 34.9919 120.936 35.3724 121.223 35.8864C121.509 36.3905 121.653 37.0428 121.653 37.8434V42.3801H119.799V38.0806C119.799 37.3789 119.631 36.855 119.295 36.5091C118.969 36.1631 118.51 35.9902 117.917 35.9902C117.482 35.9902 117.096 36.0791 116.76 36.257C116.424 36.4349 116.162 36.7018 115.974 37.0576C115.796 37.4036 115.707 37.8434 115.707 38.3771V42.3801H113.854V34.4631H115.619V36.598L115.307 35.9457C115.584 35.4416 115.984 35.0561 116.508 34.7893C117.042 34.5125 117.655 34.3741 118.346 34.3741ZM124.004 42.3801V34.4631H125.857V42.3801H124.004ZM124.938 33.1584C124.592 33.1584 124.305 33.0497 124.078 32.8323C123.86 32.6148 123.752 32.3529 123.752 32.0465C123.752 31.7302 123.86 31.4683 124.078 31.2607C124.305 31.0433 124.592 30.9345 124.938 30.9345C125.284 30.9345 125.565 31.0383 125.783 31.2459C126.01 31.4436 126.124 31.6956 126.124 32.002C126.124 32.3282 126.015 32.6049 125.798 32.8323C125.58 33.0497 125.293 33.1584 124.938 33.1584ZM132.781 34.3741C133.414 34.3741 133.977 34.4977 134.472 34.7448C134.976 34.9919 135.371 35.3724 135.658 35.8864C135.944 36.3905 136.088 37.0428 136.088 37.8434V42.3801H134.234V38.0806C134.234 37.3789 134.066 36.855 133.73 36.5091C133.404 36.1631 132.945 35.9902 132.351 35.9902C131.917 35.9902 131.531 36.0791 131.195 36.257C130.859 36.4349 130.597 36.7018 130.409 37.0576C130.231 37.4036 130.142 37.8434 130.142 38.3771V42.3801H128.289V34.4631H130.053V36.598L129.742 35.9457C130.019 35.4416 130.419 35.0561 130.943 34.7893C131.477 34.5125 132.09 34.3741 132.781 34.3741ZM142.041 45.3601C141.309 45.3601 140.593 45.2613 139.891 45.0636C139.199 44.8758 138.631 44.5991 138.186 44.2334L139.016 42.8397C139.362 43.1264 139.797 43.3537 140.321 43.5217C140.855 43.6996 141.394 43.7886 141.937 43.7886C142.807 43.7886 143.444 43.586 143.85 43.1807C144.255 42.7854 144.458 42.1874 144.458 41.3868V39.9783L144.606 38.1844L144.546 36.3905V34.4631H146.311V41.1792C146.311 42.6124 145.945 43.665 145.214 44.3371C144.482 45.0191 143.425 45.3601 142.041 45.3601ZM141.804 42.0243C141.053 42.0243 140.371 41.8662 139.758 41.5499C139.155 41.2237 138.675 40.774 138.32 40.2007C137.974 39.6275 137.801 38.9553 137.801 38.1844C137.801 37.4233 137.974 36.7562 138.32 36.1829C138.675 35.6096 139.155 35.1649 139.758 34.8486C140.371 34.5323 141.053 34.3741 141.804 34.3741C142.476 34.3741 143.079 34.5076 143.612 34.7744C144.146 35.0413 144.571 35.4564 144.887 36.0198C145.214 36.5832 145.377 37.3047 145.377 38.1844C145.377 39.0641 145.214 39.7905 144.887 40.3638C144.571 40.9272 144.146 41.3473 143.612 41.624C143.079 41.8909 142.476 42.0243 141.804 42.0243ZM142.085 40.4528C142.55 40.4528 142.965 40.3589 143.331 40.1711C143.696 39.9734 143.978 39.7065 144.176 39.3705C144.383 39.0245 144.487 38.6292 144.487 38.1844C144.487 37.7396 144.383 37.3492 144.176 37.0132C143.978 36.6672 143.696 36.4053 143.331 36.2274C142.965 36.0396 142.55 35.9457 142.085 35.9457C141.621 35.9457 141.201 36.0396 140.825 36.2274C140.459 36.4053 140.173 36.6672 139.965 37.0132C139.768 37.3492 139.669 37.7396 139.669 38.1844C139.669 38.6292 139.768 39.0245 139.965 39.3705C140.173 39.7065 140.459 39.9734 140.825 40.1711C141.201 40.3589 141.621 40.4528 142.085 40.4528ZM151.193 42.4839C150.531 42.4839 149.894 42.3999 149.281 42.2319C148.678 42.054 148.199 41.8415 147.843 41.5944L148.554 40.1859C148.91 40.4132 149.335 40.601 149.829 40.7493C150.324 40.8975 150.818 40.9717 151.312 40.9717C151.895 40.9717 152.315 40.8926 152.572 40.7345C152.839 40.5763 152.973 40.3638 152.973 40.0969C152.973 39.8795 152.884 39.7164 152.706 39.6077C152.528 39.4891 152.296 39.4001 152.009 39.3408C151.722 39.2815 151.401 39.2272 151.045 39.1777C150.699 39.1283 150.348 39.0641 149.993 38.985C149.647 38.896 149.33 38.7725 149.044 38.6144C148.757 38.4463 148.525 38.2239 148.347 37.9472C148.169 37.6704 148.08 37.3047 148.08 36.8501C148.08 36.346 148.223 35.9111 148.51 35.5454C148.797 35.1698 149.197 34.8832 149.711 34.6855C150.235 34.4779 150.852 34.3741 151.564 34.3741C152.098 34.3741 152.637 34.4334 153.18 34.5521C153.724 34.6707 154.173 34.8387 154.529 35.0561L153.818 36.4646C153.442 36.2373 153.062 36.0841 152.676 36.005C152.3 35.916 151.925 35.8716 151.549 35.8716C150.986 35.8716 150.566 35.9556 150.289 36.1236C150.022 36.2916 149.889 36.5041 149.889 36.7611C149.889 36.9983 149.978 37.1762 150.156 37.2948C150.334 37.4135 150.566 37.5074 150.852 37.5765C151.139 37.6457 151.455 37.705 151.801 37.7544C152.157 37.794 152.508 37.8582 152.854 37.9472C153.2 38.0361 153.516 38.1597 153.803 38.3178C154.099 38.4661 154.337 38.6786 154.514 38.9553C154.692 39.2321 154.781 39.5929 154.781 40.0376C154.781 40.5318 154.633 40.9618 154.337 41.3275C154.05 41.6932 153.64 41.9798 153.106 42.1874C152.572 42.3851 151.935 42.4839 151.193 42.4839ZM159.951 39.6126V38.8977H162.972V39.6126H159.951ZM169.563 42.3801V35.0463H166.726V34.3083H173.253V35.0463H170.416V42.3801H169.563ZM177.533 36.2686C178.025 36.2686 178.456 36.3647 178.825 36.5568C179.202 36.7413 179.494 37.0258 179.701 37.4102C179.917 37.7945 180.024 38.2788 180.024 38.8631V42.3801H179.205V38.9438C179.205 38.3058 179.044 37.8253 178.721 37.5024C178.406 37.1718 177.96 37.0066 177.383 37.0066C176.953 37.0066 176.576 37.095 176.253 37.2718C175.938 37.4409 175.692 37.6908 175.515 38.0213C175.346 38.3442 175.262 38.7363 175.262 39.1975V42.3801H174.443V33.8239H175.262V37.9867L175.1 37.6754C175.292 37.2372 175.6 36.8951 176.023 36.6491C176.446 36.3954 176.949 36.2686 177.533 36.2686ZM182.236 42.3801V36.3262H183.054V42.3801H182.236ZM182.651 34.9886C182.482 34.9886 182.339 34.9309 182.224 34.8156C182.109 34.7003 182.051 34.5619 182.051 34.4005C182.051 34.2391 182.109 34.1045 182.224 33.9969C182.339 33.8816 182.482 33.8239 182.651 33.8239C182.82 33.8239 182.962 33.8778 183.077 33.9854C183.193 34.093 183.25 34.2275 183.25 34.389C183.25 34.5581 183.193 34.7003 183.077 34.8156C182.97 34.9309 182.828 34.9886 182.651 34.9886ZM186.958 42.4378C186.459 42.4378 185.986 42.3686 185.54 42.2302C185.094 42.0842 184.744 41.9035 184.491 41.6883L184.86 41.0425C185.106 41.227 185.421 41.3884 185.805 41.5268C186.19 41.6575 186.593 41.7228 187.016 41.7228C187.593 41.7228 188.008 41.6344 188.261 41.4576C188.515 41.2731 188.642 41.031 188.642 40.7312C188.642 40.5082 188.569 40.3353 188.423 40.2123C188.284 40.0816 188.1 39.9855 187.869 39.924C187.639 39.8548 187.381 39.7971 187.097 39.751C186.812 39.7049 186.528 39.6511 186.243 39.5896C185.967 39.5281 185.713 39.4397 185.482 39.3243C185.252 39.2013 185.063 39.0361 184.917 38.8285C184.779 38.6209 184.71 38.3442 184.71 37.9983C184.71 37.6677 184.802 37.3717 184.986 37.1103C185.171 36.849 185.44 36.6453 185.794 36.4992C186.155 36.3454 186.593 36.2686 187.108 36.2686C187.5 36.2686 187.892 36.3224 188.284 36.43C188.676 36.5299 188.999 36.6645 189.253 36.8336L188.896 37.4909C188.626 37.3064 188.338 37.1757 188.031 37.0988C187.723 37.0143 187.416 36.972 187.108 36.972C186.562 36.972 186.159 37.0681 185.897 37.2603C185.644 37.4448 185.517 37.6831 185.517 37.9752C185.517 38.2058 185.586 38.3865 185.724 38.5172C185.871 38.6478 186.059 38.7516 186.289 38.8285C186.528 38.8977 186.785 38.9553 187.062 39.0015C187.347 39.0476 187.627 39.1053 187.904 39.1744C188.188 39.2359 188.446 39.3243 188.676 39.4397C188.915 39.5473 189.103 39.7049 189.241 39.9124C189.388 40.1123 189.461 40.3775 189.461 40.7081C189.461 41.0617 189.361 41.3692 189.161 41.6306C188.969 41.8843 188.684 42.0842 188.307 42.2302C187.938 42.3686 187.489 42.4378 186.958 42.4378ZM195.987 42.3801L193.266 34.3083H194.142L196.691 41.9073H196.252L198.882 34.3083H199.666L202.26 41.9073H201.845L204.417 34.3083H205.235L202.514 42.3801H201.615L199.135 35.1731H199.366L196.875 42.3801H195.987ZM208.737 42.4378C208.106 42.4378 207.553 42.3071 207.076 42.0457C206.6 41.7767 206.227 41.4115 205.958 40.9503C205.689 40.4813 205.554 39.947 205.554 39.3474C205.554 38.7478 205.681 38.2173 205.935 37.7561C206.196 37.2948 206.55 36.9335 206.995 36.6722C207.449 36.4031 207.956 36.2686 208.518 36.2686C209.086 36.2686 209.59 36.3993 210.028 36.6606C210.474 36.9143 210.824 37.2756 211.078 37.7446C211.331 38.2058 211.458 38.7401 211.458 39.3474C211.458 39.3858 211.454 39.4281 211.447 39.4743C211.447 39.5127 211.447 39.555 211.447 39.6011H206.177V38.9899H211.008L210.685 39.2321C210.685 38.7939 210.589 38.4057 210.397 38.0674C210.213 37.7215 209.959 37.4524 209.636 37.2603C209.313 37.0681 208.94 36.972 208.518 36.972C208.102 36.972 207.73 37.0681 207.399 37.2603C207.068 37.4524 206.811 37.7215 206.626 38.0674C206.442 38.4134 206.35 38.8093 206.35 39.2552V39.382C206.35 39.8433 206.45 40.2507 206.65 40.6043C206.857 40.9503 207.142 41.2232 207.503 41.423C207.872 41.6152 208.291 41.7113 208.76 41.7113C209.129 41.7113 209.471 41.646 209.786 41.5153C210.109 41.3846 210.386 41.1847 210.616 40.9157L211.078 41.4461C210.808 41.769 210.47 42.015 210.063 42.1841C209.663 42.3532 209.221 42.4378 208.737 42.4378ZM215.696 42.4378C215.066 42.4378 214.512 42.3071 214.035 42.0457C213.559 41.7767 213.186 41.4115 212.917 40.9503C212.648 40.4813 212.513 39.947 212.513 39.3474C212.513 38.7478 212.64 38.2173 212.894 37.7561C213.155 37.2948 213.509 36.9335 213.955 36.6722C214.408 36.4031 214.916 36.2686 215.477 36.2686C216.046 36.2686 216.549 36.3993 216.987 36.6606C217.433 36.9143 217.783 37.2756 218.037 37.7446C218.291 38.2058 218.417 38.7401 218.417 39.3474C218.417 39.3858 218.414 39.4281 218.406 39.4743C218.406 39.5127 218.406 39.555 218.406 39.6011H213.136V38.9899H217.968L217.645 39.2321C217.645 38.7939 217.549 38.4057 217.356 38.0674C217.172 37.7215 216.918 37.4524 216.595 37.2603C216.273 37.0681 215.9 36.972 215.477 36.972C215.062 36.972 214.689 37.0681 214.358 37.2603C214.028 37.4524 213.77 37.7215 213.586 38.0674C213.401 38.4134 213.309 38.8093 213.309 39.2552V39.382C213.309 39.8433 213.409 40.2507 213.609 40.6043C213.816 40.9503 214.101 41.2232 214.462 41.423C214.831 41.6152 215.25 41.7113 215.719 41.7113C216.088 41.7113 216.43 41.646 216.745 41.5153C217.068 41.3846 217.345 41.1847 217.576 40.9157L218.037 41.4461C217.768 41.769 217.43 42.015 217.022 42.1841C216.622 42.3532 216.18 42.4378 215.696 42.4378ZM220.73 40.8119L220.753 39.7625L224.523 36.3262H225.527L222.863 38.8746L222.402 39.2667L220.73 40.8119ZM220.084 42.3801V33.8239H220.903V42.3801H220.084ZM224.777 42.3801L222.252 39.2321L222.782 38.5979L225.78 42.3801H224.777Z" fill="#333333"/>
<rect opacity="0.12" x="239.479" y="25.8215" width="23.1171" height="23.1171" rx="11.5586" fill="#27AE60"/>
<path d="M258.617 33.7684V37.4749C258.617 37.8455 258.37 38.0926 257.999 38.0926C257.629 38.0926 257.382 37.8455 257.382 37.4749V35.251L252.563 40.0694C252.316 40.3165 251.945 40.3165 251.698 40.0694L249.042 37.4131L244.841 41.6137C244.718 41.7373 244.594 41.7991 244.409 41.7991C244.224 41.7991 244.1 41.7373 243.977 41.6137C243.729 41.3666 243.729 40.996 243.977 40.7489L248.61 36.1158C248.857 35.8687 249.227 35.8687 249.475 36.1158L252.131 38.7721L256.517 34.3861H254.293C253.922 34.3861 253.675 34.139 253.675 33.7684C253.675 33.3977 253.922 33.1506 254.293 33.1506H257.999C258.061 33.1506 258.185 33.1506 258.247 33.2124C258.37 33.2742 258.494 33.3977 258.555 33.5213C258.617 33.5831 258.617 33.7066 258.617 33.7684Z" fill="#27AE60"/>
<path d="M279.925 43.7679V29.8315H281.141V43.7679H279.925ZM280.385 42.137C279.575 42.137 278.799 42.0234 278.057 41.796C277.316 41.5588 276.728 41.2574 276.293 40.8917L276.96 39.3942C277.375 39.7204 277.889 39.9922 278.502 40.2097C279.115 40.4271 279.743 40.5358 280.385 40.5358C280.929 40.5358 281.368 40.4765 281.705 40.3579C282.041 40.2393 282.288 40.0812 282.446 39.8835C282.604 39.6759 282.683 39.4437 282.683 39.1867C282.683 38.8704 282.569 38.6184 282.342 38.4306C282.115 38.2329 281.818 38.0797 281.452 37.971C281.097 37.8523 280.696 37.7436 280.252 37.6448C279.817 37.5459 279.377 37.4323 278.932 37.3038C278.497 37.1654 278.097 36.9924 277.731 36.7849C277.375 36.5674 277.084 36.2808 276.856 35.925C276.629 35.5692 276.515 35.1145 276.515 34.561C276.515 33.9976 276.664 33.4837 276.96 33.0191C277.267 32.5447 277.726 32.1691 278.339 31.8923C278.962 31.6057 279.748 31.4624 280.696 31.4624C281.319 31.4624 281.937 31.5415 282.55 31.6996C283.162 31.8577 283.696 32.0851 284.151 32.3816L283.543 33.879C283.078 33.6023 282.599 33.3996 282.105 33.2711C281.611 33.1328 281.136 33.0636 280.682 33.0636C280.148 33.0636 279.713 33.1278 279.377 33.2563C279.051 33.3848 278.809 33.5528 278.65 33.7604C278.502 33.968 278.428 34.2052 278.428 34.472C278.428 34.7883 278.537 35.0453 278.754 35.243C278.982 35.4308 279.273 35.579 279.629 35.6878C279.995 35.7965 280.4 35.9052 280.845 36.0139C281.289 36.1128 281.729 36.2264 282.164 36.3549C282.609 36.4834 283.009 36.6514 283.365 36.859C283.731 37.0666 284.022 37.3483 284.24 37.7041C284.467 38.0599 284.581 38.5096 284.581 39.0532C284.581 39.6067 284.428 40.1207 284.121 40.5951C283.825 41.0597 283.365 41.4353 282.742 41.7219C282.12 41.9987 281.334 42.137 280.385 42.137ZM285.747 39.6315V38.2971L290.862 31.6106H292.923L287.882 38.2971L286.918 38.0006H295.147V39.6315H285.747ZM291.44 41.9888V39.6315L291.5 38.0006V35.9102H293.308V41.9888H291.44ZM300.269 42.137C299.409 42.137 298.663 42.0085 298.03 41.7516C297.397 41.4946 296.908 41.1338 296.562 40.6693C296.216 40.1948 296.043 39.6413 296.043 39.0088C296.043 38.3762 296.211 37.8425 296.547 37.4076C296.883 36.9727 297.368 36.6416 298 36.4142C298.633 36.1869 299.389 36.0732 300.269 36.0732C301.148 36.0732 301.905 36.1869 302.537 36.4142C303.18 36.6416 303.669 36.9776 304.005 37.4224C304.351 37.8573 304.524 38.3861 304.524 39.0088C304.524 39.6413 304.346 40.1948 303.99 40.6693C303.644 41.1338 303.15 41.4946 302.507 41.7516C301.875 42.0085 301.129 42.137 300.269 42.137ZM300.269 40.6248C300.98 40.6248 301.544 40.4765 301.959 40.18C302.374 39.8835 302.582 39.4733 302.582 38.9495C302.582 38.4355 302.374 38.0303 301.959 37.7337C301.544 37.4372 300.98 37.289 300.269 37.289C299.557 37.289 298.999 37.4372 298.593 37.7337C298.188 38.0303 297.986 38.4355 297.986 38.9495C297.986 39.4733 298.188 39.8835 298.593 40.18C298.999 40.4765 299.557 40.6248 300.269 40.6248ZM300.269 37.0814C299.468 37.0814 298.781 36.9776 298.208 36.7701C297.635 36.5526 297.19 36.2413 296.874 35.836C296.567 35.4209 296.414 34.9267 296.414 34.3534C296.414 33.7604 296.572 33.2514 296.888 32.8264C297.215 32.3915 297.669 32.0554 298.252 31.8182C298.836 31.581 299.508 31.4624 300.269 31.4624C301.04 31.4624 301.717 31.581 302.3 31.8182C302.883 32.0554 303.338 32.3915 303.664 32.8264C303.99 33.2514 304.153 33.7604 304.153 34.3534C304.153 34.9267 303.995 35.4209 303.679 35.836C303.372 36.2413 302.928 36.5526 302.344 36.7701C301.761 36.9776 301.069 37.0814 300.269 37.0814ZM300.269 35.8953C300.882 35.8953 301.366 35.7668 301.722 35.5099C302.077 35.243 302.255 34.8872 302.255 34.4424C302.255 33.9778 302.073 33.6171 301.707 33.3601C301.341 33.1031 300.862 32.9746 300.269 32.9746C299.676 32.9746 299.201 33.1031 298.845 33.3601C298.49 33.6171 298.312 33.9778 298.312 34.4424C298.312 34.8872 298.485 35.243 298.831 35.5099C299.186 35.7668 299.666 35.8953 300.269 35.8953ZM277.583 60.0926C277.247 60.0926 276.96 59.9789 276.723 59.7516C276.486 59.5143 276.367 59.2178 276.367 58.862C276.367 58.4864 276.486 58.1899 276.723 57.9724C276.96 57.7451 277.247 57.6315 277.583 57.6315C277.919 57.6315 278.206 57.7451 278.443 57.9724C278.68 58.1899 278.799 58.4864 278.799 58.862C278.799 59.2178 278.68 59.5143 278.443 59.7516C278.206 59.9789 277.919 60.0926 277.583 60.0926ZM283.545 49.4624C284.494 49.4624 285.299 49.665 285.962 50.0702C286.634 50.4656 287.148 51.0438 287.504 51.8049C287.859 52.5659 288.037 53.5049 288.037 54.6218C288.037 55.8079 287.82 56.8111 287.385 57.6315C286.96 58.4518 286.367 59.0745 285.606 59.4995C284.845 59.9245 283.96 60.137 282.952 60.137C282.428 60.137 281.929 60.0827 281.455 59.9739C280.98 59.8652 280.57 59.6972 280.224 59.4699L280.936 58.0169C281.222 58.2047 281.534 58.3382 281.87 58.4172C282.206 58.4864 282.552 58.521 282.908 58.521C283.886 58.521 284.662 58.2195 285.235 57.6166C285.808 57.0137 286.095 56.1242 286.095 54.948C286.095 54.7602 286.09 54.5427 286.08 54.2956C286.07 54.0386 286.036 53.7817 285.976 53.5247L286.57 54.177C286.401 54.5823 286.159 54.9233 285.843 55.2C285.527 55.4669 285.156 55.6695 284.731 55.8079C284.306 55.9462 283.837 56.0154 283.323 56.0154C282.651 56.0154 282.043 55.8869 281.499 55.63C280.965 55.3631 280.54 54.9924 280.224 54.518C279.908 54.0337 279.75 53.4703 279.75 52.8279C279.75 52.136 279.918 51.543 280.254 51.0488C280.59 50.5447 281.044 50.1543 281.618 49.8775C282.201 49.6008 282.843 49.4624 283.545 49.4624ZM283.649 50.9746C283.253 50.9746 282.903 51.0488 282.596 51.197C282.29 51.3354 282.048 51.538 281.87 51.8049C281.702 52.0619 281.618 52.3732 281.618 52.7389C281.618 53.2825 281.805 53.7125 282.181 54.0288C282.557 54.345 283.061 54.5032 283.693 54.5032C284.108 54.5032 284.474 54.4291 284.79 54.2808C285.107 54.1227 285.354 53.9102 285.532 53.6433C285.71 53.3665 285.799 53.0601 285.799 52.7241C285.799 52.3979 285.715 52.1063 285.547 51.8494C285.378 51.5825 285.136 51.37 284.82 51.2118C284.504 51.0537 284.113 50.9746 283.649 50.9746ZM291.417 58.2245L291.461 55.8968L295.598 52.0717H297.822L294.308 55.6003L293.329 56.4157L291.417 58.2245ZM289.905 59.9888V48.988H291.758V59.9888H289.905ZM295.879 59.9888L292.988 56.4157L294.16 54.9331L298.133 59.9888H295.879Z" fill="#27AE60"/>
<rect x="510.965" y="24.5024" width="69.0704" height="25.3549" rx="7.82478" stroke="#E0E0E0" stroke-width="0.823661"/>
<path d="M524.971 40.6799V33.0728H528.068C528.879 33.0728 529.589 33.2358 530.198 33.5618C530.814 33.8806 531.292 34.3261 531.633 34.8985C531.973 35.4708 532.143 36.1301 532.143 36.8763C532.143 37.6226 531.973 38.2819 531.633 38.8542C531.292 39.4266 530.814 39.8757 530.198 40.2018C529.589 40.5205 528.879 40.6799 528.068 40.6799H524.971ZM525.775 39.9844H528.025C528.698 39.9844 529.282 39.854 529.774 39.5932C530.274 39.3251 530.662 38.9593 530.937 38.4956C531.212 38.0247 531.35 37.4849 531.35 36.8763C531.35 36.2605 531.212 35.7208 530.937 35.2571C530.662 34.7934 530.274 34.4312 529.774 34.1704C529.282 33.9023 528.698 33.7683 528.025 33.7683H525.775V39.9844ZM537.362 40.6799V39.4193L537.329 39.2128V37.1046C537.329 36.6192 537.191 36.246 536.916 35.9852C536.648 35.7244 536.246 35.594 535.71 35.594C535.34 35.594 534.989 35.6556 534.656 35.7787C534.322 35.9019 534.04 36.0649 533.808 36.2678L533.46 35.6918C533.75 35.4455 534.098 35.2571 534.503 35.1267C534.909 34.989 535.337 34.9202 535.786 34.9202C536.525 34.9202 537.093 35.105 537.492 35.4745C537.898 35.8367 538.1 36.3909 538.1 37.1372V40.6799H537.362ZM535.395 40.7343C534.967 40.7343 534.594 40.6654 534.275 40.5278C533.964 40.3829 533.725 40.1873 533.558 39.9409C533.391 39.6874 533.308 39.3976 533.308 39.0716C533.308 38.7745 533.377 38.5065 533.514 38.2674C533.659 38.021 533.891 37.8254 534.21 37.6805C534.536 37.5284 534.971 37.4523 535.514 37.4523H537.481V38.0283H535.536C534.985 38.0283 534.601 38.1261 534.384 38.3217C534.174 38.5173 534.069 38.76 534.069 39.0498C534.069 39.3758 534.195 39.6367 534.449 39.8323C534.703 40.0279 535.058 40.1257 535.514 40.1257C535.949 40.1257 536.322 40.0279 536.633 39.8323C536.952 39.6294 537.184 39.3396 537.329 38.9629L537.503 39.4954C537.358 39.8721 537.104 40.1728 536.742 40.3974C536.387 40.622 535.938 40.7343 535.395 40.7343ZM540.196 40.6799V34.9746H540.968V40.6799H540.196ZM540.587 33.7139C540.428 33.7139 540.294 33.6596 540.185 33.5509C540.077 33.4423 540.022 33.3118 540.022 33.1597C540.022 33.0076 540.077 32.8808 540.185 32.7793C540.294 32.6707 540.428 32.6163 540.587 32.6163C540.747 32.6163 540.881 32.667 540.99 32.7685C541.098 32.8699 541.153 32.9967 541.153 33.1488C541.153 33.3082 541.098 33.4423 540.99 33.5509C540.888 33.6596 540.754 33.7139 540.587 33.7139ZM543.115 40.6799V32.6163H543.886V40.6799H543.115ZM546.077 42.8425C545.809 42.8425 545.551 42.7991 545.305 42.7121C545.066 42.6252 544.859 42.4948 544.686 42.3209L545.044 41.7449C545.189 41.8826 545.345 41.9876 545.512 42.0601C545.685 42.1398 545.877 42.1796 546.088 42.1796C546.341 42.1796 546.558 42.1072 546.74 41.9623C546.928 41.8246 547.105 41.5783 547.272 41.2233L547.642 40.3865L547.728 40.267L550.076 34.9746H550.837L547.978 41.3646C547.819 41.7341 547.642 42.0275 547.446 42.2448C547.258 42.4622 547.051 42.6143 546.826 42.7013C546.602 42.7954 546.352 42.8425 546.077 42.8425ZM547.598 40.8429L544.968 34.9746H545.772L548.098 40.2126L547.598 40.8429Z" fill="#4F4F4F"/>
<path d="M561.616 35.3687L564.495 38.9911L567.269 35.3687" stroke="#4F4F4F" stroke-width="0.905616" stroke-linecap="round" stroke-linejoin="round"/>
<path d="M70.0064 189.206V182.287H70.6093L73.7722 187.684H73.4559L76.5891 182.287H77.192V189.206H76.4903V183.384H76.6583L73.7722 188.326H73.4262L70.5204 183.384H70.7082V189.206H70.0064ZM81.4132 189.255C80.9124 189.255 80.4611 189.143 80.0591 188.919C79.6638 188.689 79.3508 188.376 79.1202 187.98C78.8895 187.578 78.7742 187.12 78.7742 186.606C78.7742 186.086 78.8895 185.628 79.1202 185.232C79.3508 184.837 79.6638 184.527 80.0591 184.303C80.4545 184.079 80.9059 183.967 81.4132 183.967C81.9272 183.967 82.3819 184.079 82.7772 184.303C83.1792 184.527 83.4921 184.837 83.7162 185.232C83.9468 185.628 84.0621 186.086 84.0621 186.606C84.0621 187.12 83.9468 187.578 83.7162 187.98C83.4921 188.376 83.1792 188.689 82.7772 188.919C82.3753 189.143 81.9206 189.255 81.4132 189.255ZM81.4132 188.633C81.7888 188.633 82.1216 188.55 82.4115 188.385C82.7014 188.214 82.9288 187.977 83.0935 187.674C83.2648 187.364 83.3505 187.008 83.3505 186.606C83.3505 186.198 83.2648 185.842 83.0935 185.539C82.9288 185.236 82.7014 185.002 82.4115 184.837C82.1216 184.666 81.7921 184.58 81.4231 184.58C81.0541 184.58 80.7246 184.666 80.4347 184.837C80.1448 185.002 79.9142 185.236 79.7428 185.539C79.5715 185.842 79.4859 186.198 79.4859 186.606C79.4859 187.008 79.5715 187.364 79.7428 187.674C79.9142 187.977 80.1448 188.214 80.4347 188.385C80.7246 188.55 81.0508 188.633 81.4132 188.633ZM88.1437 183.967C88.5654 183.967 88.9344 184.05 89.2507 184.214C89.5736 184.373 89.824 184.616 90.0019 184.946C90.1864 185.275 90.2786 185.69 90.2786 186.191V189.206H89.5769V186.26C89.5769 185.713 89.4385 185.302 89.1618 185.025C88.8916 184.742 88.5094 184.6 88.0152 184.6C87.6462 184.6 87.3234 184.676 87.0466 184.827C86.7764 184.972 86.5656 185.186 86.414 185.47C86.2691 185.746 86.1966 186.082 86.1966 186.478V189.206H85.4948V184.017H86.1669V185.44L86.0582 185.173C86.2229 184.798 86.4865 184.504 86.8489 184.293C87.2113 184.076 87.6429 183.967 88.1437 183.967Z" fill="#333333"/>
<path d="M146.113 189.206V182.92H143.682V182.287H149.276V182.92H146.844V189.206H146.113ZM152.306 189.255C151.864 189.255 151.479 189.173 151.149 189.008C150.82 188.843 150.563 188.596 150.378 188.267C150.201 187.937 150.112 187.526 150.112 187.031V184.017H150.813V186.952C150.813 187.506 150.948 187.924 151.219 188.208C151.495 188.484 151.881 188.623 152.375 188.623C152.737 188.623 153.05 188.55 153.314 188.405C153.584 188.254 153.788 188.036 153.927 187.753C154.072 187.47 154.144 187.13 154.144 186.735V184.017H154.846V189.206H154.174V187.783L154.283 188.04C154.118 188.422 153.861 188.721 153.512 188.939C153.169 189.15 152.767 189.255 152.306 189.255ZM159.006 189.255C158.466 189.255 157.991 189.143 157.583 188.919C157.174 188.689 156.854 188.376 156.624 187.98C156.393 187.578 156.278 187.12 156.278 186.606C156.278 186.092 156.387 185.638 156.604 185.242C156.828 184.847 157.131 184.537 157.513 184.313C157.902 184.083 158.337 183.967 158.818 183.967C159.306 183.967 159.737 184.079 160.113 184.303C160.495 184.521 160.795 184.831 161.012 185.232C161.23 185.628 161.338 186.086 161.338 186.606C161.338 186.639 161.335 186.676 161.329 186.715C161.329 186.748 161.329 186.784 161.329 186.824H156.812V186.3H160.953L160.676 186.507C160.676 186.132 160.594 185.799 160.429 185.509C160.271 185.213 160.054 184.982 159.777 184.817C159.5 184.653 159.18 184.57 158.818 184.57C158.462 184.57 158.143 184.653 157.859 184.817C157.576 184.982 157.355 185.213 157.197 185.509C157.039 185.806 156.96 186.145 156.96 186.527V186.636C156.96 187.031 157.046 187.381 157.217 187.684C157.395 187.98 157.639 188.214 157.948 188.385C158.265 188.55 158.624 188.633 159.026 188.633C159.342 188.633 159.635 188.577 159.905 188.465C160.182 188.352 160.419 188.181 160.617 187.951L161.012 188.405C160.782 188.682 160.492 188.893 160.143 189.038C159.8 189.183 159.421 189.255 159.006 189.255Z" fill="#333333"/>
<path d="M229.613 189.206L227.28 182.287H228.031L230.216 188.801H229.84L232.093 182.287H232.766L234.989 188.801H234.634L236.838 182.287H237.54L235.207 189.206H234.436L232.311 183.028H232.509L230.374 189.206H229.613ZM240.541 189.255C240 189.255 239.526 189.143 239.117 188.919C238.709 188.689 238.389 188.376 238.159 187.98C237.928 187.578 237.813 187.12 237.813 186.606C237.813 186.092 237.921 185.638 238.139 185.242C238.363 184.847 238.666 184.537 239.048 184.313C239.437 184.083 239.872 183.967 240.353 183.967C240.841 183.967 241.272 184.079 241.648 184.303C242.03 184.521 242.33 184.831 242.547 185.232C242.765 185.628 242.873 186.086 242.873 186.606C242.873 186.639 242.87 186.676 242.863 186.715C242.863 186.748 242.863 186.784 242.863 186.824H238.346V186.3H242.488L242.211 186.507C242.211 186.132 242.129 185.799 241.964 185.509C241.806 185.213 241.588 184.982 241.312 184.817C241.035 184.653 240.715 184.57 240.353 184.57C239.997 184.57 239.677 184.653 239.394 184.817C239.111 184.982 238.89 185.213 238.732 185.509C238.574 185.806 238.495 186.145 238.495 186.527V186.636C238.495 187.031 238.58 187.381 238.752 187.684C238.93 187.98 239.173 188.214 239.483 188.385C239.799 188.55 240.159 188.633 240.56 188.633C240.877 188.633 241.17 188.577 241.44 188.465C241.717 188.352 241.954 188.181 242.152 187.951L242.547 188.405C242.317 188.682 242.027 188.893 241.677 189.038C241.335 189.183 240.956 189.255 240.541 189.255ZM246.367 189.255C245.873 189.255 245.428 189.143 245.033 188.919C244.644 188.695 244.338 188.385 244.114 187.99C243.89 187.588 243.778 187.127 243.778 186.606C243.778 186.079 243.89 185.618 244.114 185.223C244.338 184.827 244.644 184.521 245.033 184.303C245.428 184.079 245.873 183.967 246.367 183.967C246.822 183.967 247.227 184.069 247.583 184.274C247.946 184.478 248.232 184.778 248.443 185.173C248.66 185.562 248.769 186.04 248.769 186.606C248.769 187.166 248.664 187.644 248.453 188.04C248.242 188.435 247.955 188.738 247.593 188.949C247.237 189.153 246.829 189.255 246.367 189.255ZM246.417 188.633C246.786 188.633 247.115 188.55 247.405 188.385C247.702 188.214 247.932 187.977 248.097 187.674C248.268 187.364 248.354 187.008 248.354 186.606C248.354 186.198 248.268 185.842 248.097 185.539C247.932 185.236 247.702 185.002 247.405 184.837C247.115 184.666 246.786 184.58 246.417 184.58C246.054 184.58 245.728 184.666 245.438 184.837C245.148 185.002 244.918 185.236 244.746 185.539C244.575 185.842 244.489 186.198 244.489 186.606C244.489 187.008 244.575 187.364 244.746 187.674C244.918 187.977 245.148 188.214 245.438 188.385C245.728 188.55 246.054 188.633 246.417 188.633ZM248.374 189.206V187.644L248.443 186.596L248.344 185.549V181.872H249.046V189.206H248.374Z" fill="#333333"/>
<path d="M316.955 189.206V182.92H314.523V182.287H320.117V182.92H317.686V189.206H316.955ZM323.787 183.967C324.208 183.967 324.577 184.05 324.894 184.214C325.216 184.373 325.467 184.616 325.645 184.946C325.829 185.275 325.922 185.69 325.922 186.191V189.206H325.22V186.26C325.22 185.713 325.081 185.302 324.805 185.025C324.534 184.742 324.152 184.6 323.658 184.6C323.289 184.6 322.966 184.676 322.689 184.827C322.419 184.972 322.208 185.186 322.057 185.47C321.912 185.746 321.839 186.082 321.839 186.478V189.206H321.138V181.872H321.839V185.44L321.701 185.173C321.866 184.798 322.129 184.504 322.492 184.293C322.854 184.076 323.286 183.967 323.787 183.967ZM329.962 189.255C329.52 189.255 329.135 189.173 328.805 189.008C328.476 188.843 328.219 188.596 328.035 188.267C327.857 187.937 327.768 187.526 327.768 187.031V184.017H328.469V186.952C328.469 187.506 328.604 187.924 328.875 188.208C329.151 188.484 329.537 188.623 330.031 188.623C330.393 188.623 330.706 188.55 330.97 188.405C331.24 188.254 331.444 188.036 331.583 187.753C331.728 187.47 331.8 187.13 331.8 186.735V184.017H332.502V189.206H331.83V187.783L331.939 188.04C331.774 188.422 331.517 188.721 331.168 188.939C330.825 189.15 330.423 189.255 329.962 189.255Z" fill="#333333"/>
<path d="M405.115 185.638H408.772V186.27H405.115V185.638ZM405.194 189.206H404.463V182.287H409.207V182.92H405.194V189.206ZM410.473 189.206V184.017H411.145V185.43L411.076 185.183C411.22 184.788 411.464 184.488 411.807 184.284C412.15 184.073 412.575 183.967 413.082 183.967V184.649C413.056 184.649 413.029 184.649 413.003 184.649C412.977 184.643 412.95 184.639 412.924 184.639C412.377 184.639 411.949 184.807 411.639 185.144C411.329 185.473 411.174 185.944 411.174 186.557V189.206H410.473ZM414.362 189.206V184.017H415.064V189.206H414.362ZM414.718 182.87C414.573 182.87 414.451 182.821 414.353 182.722C414.254 182.623 414.204 182.505 414.204 182.366C414.204 182.228 414.254 182.112 414.353 182.02C414.451 181.921 414.573 181.872 414.718 181.872C414.863 181.872 414.985 181.918 415.084 182.01C415.183 182.103 415.232 182.218 415.232 182.356C415.232 182.501 415.183 182.623 415.084 182.722C414.992 182.821 414.87 182.87 414.718 182.87Z" fill="#333333"/>
<path d="M489.664 189.265C489.15 189.265 488.656 189.183 488.181 189.018C487.713 188.847 487.351 188.629 487.094 188.366L487.381 187.802C487.624 188.04 487.951 188.24 488.359 188.405C488.774 188.563 489.209 188.642 489.664 188.642C490.099 188.642 490.451 188.59 490.721 188.484C490.998 188.372 491.199 188.224 491.324 188.04C491.456 187.855 491.522 187.651 491.522 187.427C491.522 187.157 491.443 186.939 491.285 186.774C491.133 186.61 490.932 186.481 490.682 186.389C490.431 186.29 490.155 186.204 489.852 186.132C489.548 186.059 489.245 185.984 488.942 185.905C488.639 185.819 488.359 185.707 488.102 185.569C487.852 185.43 487.647 185.249 487.489 185.025C487.338 184.794 487.262 184.494 487.262 184.125C487.262 183.783 487.351 183.47 487.529 183.186C487.713 182.897 487.993 182.666 488.369 182.495C488.745 182.317 489.226 182.228 489.812 182.228C490.201 182.228 490.586 182.284 490.968 182.396C491.351 182.501 491.68 182.649 491.957 182.841L491.71 183.424C491.413 183.226 491.097 183.081 490.761 182.989C490.431 182.897 490.112 182.85 489.802 182.85C489.387 182.85 489.044 182.906 488.774 183.018C488.504 183.13 488.303 183.282 488.171 183.473C488.046 183.658 487.983 183.868 487.983 184.106C487.983 184.376 488.059 184.593 488.211 184.758C488.369 184.923 488.573 185.051 488.824 185.144C489.081 185.236 489.361 185.318 489.664 185.391C489.967 185.463 490.267 185.542 490.563 185.628C490.866 185.713 491.143 185.826 491.393 185.964C491.65 186.096 491.855 186.274 492.006 186.498C492.164 186.722 492.243 187.015 492.243 187.377C492.243 187.713 492.151 188.026 491.967 188.316C491.782 188.6 491.499 188.83 491.117 189.008C490.741 189.179 490.257 189.265 489.664 189.265ZM496.941 189.206V188.059L496.911 187.871V185.954C496.911 185.513 496.786 185.173 496.535 184.936C496.292 184.699 495.926 184.58 495.438 184.58C495.102 184.58 494.783 184.636 494.48 184.748C494.176 184.86 493.919 185.008 493.709 185.193L493.392 184.669C493.656 184.445 493.972 184.274 494.341 184.155C494.71 184.03 495.099 183.967 495.507 183.967C496.18 183.967 496.697 184.135 497.059 184.471C497.428 184.801 497.613 185.305 497.613 185.984V189.206H496.941ZM495.152 189.255C494.763 189.255 494.424 189.193 494.134 189.067C493.85 188.936 493.633 188.758 493.481 188.534C493.33 188.303 493.254 188.04 493.254 187.743C493.254 187.473 493.317 187.229 493.442 187.012C493.574 186.788 493.784 186.61 494.074 186.478C494.371 186.339 494.766 186.27 495.26 186.27H497.049V186.794H495.28C494.779 186.794 494.43 186.883 494.232 187.061C494.041 187.239 493.946 187.46 493.946 187.723C493.946 188.02 494.061 188.257 494.292 188.435C494.522 188.613 494.845 188.702 495.26 188.702C495.656 188.702 495.995 188.613 496.278 188.435C496.568 188.25 496.779 187.987 496.911 187.644L497.069 188.128C496.937 188.471 496.707 188.745 496.377 188.949C496.054 189.153 495.646 189.255 495.152 189.255ZM501.16 189.255C500.672 189.255 500.296 189.123 500.033 188.86C499.769 188.596 499.637 188.224 499.637 187.743V182.87H500.339V187.703C500.339 188.007 500.415 188.24 500.567 188.405C500.725 188.57 500.949 188.652 501.239 188.652C501.548 188.652 501.805 188.563 502.01 188.385L502.257 188.89C502.118 189.015 501.95 189.107 501.753 189.166C501.561 189.226 501.364 189.255 501.16 189.255ZM498.708 184.6V184.017H501.921V184.6H498.708Z" fill="#333333"/>
<path d="M562.63 189.265C562.116 189.265 561.621 189.183 561.147 189.018C560.679 188.847 560.317 188.629 560.06 188.366L560.346 187.802C560.59 188.04 560.916 188.24 561.325 188.405C561.74 188.563 562.175 188.642 562.63 188.642C563.064 188.642 563.417 188.59 563.687 188.484C563.964 188.372 564.165 188.224 564.29 188.04C564.422 187.855 564.488 187.651 564.488 187.427C564.488 187.157 564.409 186.939 564.251 186.774C564.099 186.61 563.898 186.481 563.648 186.389C563.397 186.29 563.12 186.204 562.817 186.132C562.514 186.059 562.211 185.984 561.908 185.905C561.605 185.819 561.325 185.707 561.068 185.569C560.818 185.43 560.613 185.249 560.455 185.025C560.304 184.794 560.228 184.494 560.228 184.125C560.228 183.783 560.317 183.47 560.495 183.186C560.679 182.897 560.959 182.666 561.335 182.495C561.71 182.317 562.191 182.228 562.778 182.228C563.167 182.228 563.552 182.284 563.934 182.396C564.316 182.501 564.646 182.649 564.923 182.841L564.676 183.424C564.379 183.226 564.063 183.081 563.727 182.989C563.397 182.897 563.078 182.85 562.768 182.85C562.353 182.85 562.01 182.906 561.74 183.018C561.47 183.13 561.269 183.282 561.137 183.473C561.012 183.658 560.949 183.868 560.949 184.106C560.949 184.376 561.025 184.593 561.177 184.758C561.335 184.923 561.539 185.051 561.789 185.144C562.046 185.236 562.326 185.318 562.63 185.391C562.933 185.463 563.232 185.542 563.529 185.628C563.832 185.713 564.109 185.826 564.359 185.964C564.616 186.096 564.821 186.274 564.972 186.498C565.13 186.722 565.209 187.015 565.209 187.377C565.209 187.713 565.117 188.026 564.933 188.316C564.748 188.6 564.465 188.83 564.083 189.008C563.707 189.179 563.223 189.265 562.63 189.265ZM568.799 189.255C568.358 189.255 567.973 189.173 567.643 189.008C567.314 188.843 567.057 188.596 566.872 188.267C566.694 187.937 566.605 187.526 566.605 187.031V184.017H567.307V186.952C567.307 187.506 567.442 187.924 567.712 188.208C567.989 188.484 568.374 188.623 568.869 188.623C569.231 188.623 569.544 188.55 569.808 188.405C570.078 188.254 570.282 188.036 570.42 187.753C570.565 187.47 570.638 187.13 570.638 186.735V184.017H571.34V189.206H570.668V187.783L570.776 188.04C570.612 188.422 570.355 188.721 570.005 188.939C569.663 189.15 569.261 189.255 568.799 189.255ZM575.944 183.967C576.366 183.967 576.735 184.05 577.051 184.214C577.374 184.373 577.625 184.616 577.802 184.946C577.987 185.275 578.079 185.69 578.079 186.191V189.206H577.377V186.26C577.377 185.713 577.239 185.302 576.962 185.025C576.692 184.742 576.31 184.6 575.816 184.6C575.447 184.6 575.124 184.676 574.847 184.827C574.577 184.972 574.366 185.186 574.215 185.47C574.07 185.746 573.997 186.082 573.997 186.478V189.206H573.295V184.017H573.968V185.44L573.859 185.173C574.024 184.798 574.287 184.504 574.65 184.293C575.012 184.076 575.444 183.967 575.944 183.967Z" fill="#333333"/>
<mask id="path-16-inside-1_3005_4171" fill="white">
<path d="M48.6968 181.437C48.1631 181.437 47.6886 181.299 47.2735 181.022C46.8584 180.739 46.5322 180.337 46.295 179.816C46.0578 179.289 45.9392 178.656 45.9392 177.918C45.9392 177.18 46.0578 176.551 46.295 176.03C46.5322 175.503 46.8584 175.101 47.2735 174.825C47.6886 174.541 48.1631 174.4 48.6968 174.4C49.2305 174.4 49.705 174.541 50.1201 174.825C50.5352 175.101 50.8614 175.503 51.0986 176.03C51.3424 176.551 51.4643 177.18 51.4643 177.918C51.4643 178.656 51.3424 179.289 51.0986 179.816C50.8614 180.337 50.5352 180.739 50.1201 181.022C49.705 181.299 49.2305 181.437 48.6968 181.437ZM48.6968 180.785C49.1053 180.785 49.4611 180.676 49.7643 180.458C50.0674 180.234 50.3046 179.912 50.4759 179.49C50.6472 179.062 50.7329 178.538 50.7329 177.918C50.7329 177.299 50.6472 176.778 50.4759 176.357C50.3046 175.928 50.0674 175.605 49.7643 175.388C49.4611 175.164 49.1053 175.052 48.6968 175.052C48.3014 175.052 47.9489 175.164 47.6392 175.388C47.3295 175.605 47.089 175.928 46.9177 176.357C46.7464 176.778 46.6607 177.299 46.6607 177.918C46.6607 178.538 46.7464 179.062 46.9177 179.49C47.089 179.912 47.3295 180.234 47.6392 180.458C47.9489 180.676 48.3014 180.785 48.6968 180.785Z"/>
</mask>
<path d="M48.6968 181.437C48.1631 181.437 47.6886 181.299 47.2735 181.022C46.8584 180.739 46.5322 180.337 46.295 179.816C46.0578 179.289 45.9392 178.656 45.9392 177.918C45.9392 177.18 46.0578 176.551 46.295 176.03C46.5322 175.503 46.8584 175.101 47.2735 174.825C47.6886 174.541 48.1631 174.4 48.6968 174.4C49.2305 174.4 49.705 174.541 50.1201 174.825C50.5352 175.101 50.8614 175.503 51.0986 176.03C51.3424 176.551 51.4643 177.18 51.4643 177.918C51.4643 178.656 51.3424 179.289 51.0986 179.816C50.8614 180.337 50.5352 180.739 50.1201 181.022C49.705 181.299 49.2305 181.437 48.6968 181.437ZM48.6968 180.785C49.1053 180.785 49.4611 180.676 49.7643 180.458C50.0674 180.234 50.3046 179.912 50.4759 179.49C50.6472 179.062 50.7329 178.538 50.7329 177.918C50.7329 177.299 50.6472 176.778 50.4759 176.357C50.3046 175.928 50.0674 175.605 49.7643 175.388C49.4611 175.164 49.1053 175.052 48.6968 175.052C48.3014 175.052 47.9489 175.164 47.6392 175.388C47.3295 175.605 47.089 175.928 46.9177 176.357C46.7464 176.778 46.6607 177.299 46.6607 177.918C46.6607 178.538 46.7464 179.062 46.9177 179.49C47.089 179.912 47.3295 180.234 47.6392 180.458C47.9489 180.676 48.3014 180.785 48.6968 180.785Z" fill="#333333"/>
<path d="M47.2735 181.022L46.7629 181.77L46.7712 181.775L47.2735 181.022ZM46.295 179.816L45.4691 180.188L45.4709 180.192L46.295 179.816ZM46.295 176.03L47.1191 176.406L47.1208 176.402L46.295 176.03ZM47.2735 174.825L47.7759 175.578L47.784 175.573L47.2735 174.825ZM50.1201 174.825L49.6095 175.573L49.6177 175.578L50.1201 174.825ZM51.0986 176.03L50.2726 176.402L50.2785 176.415L51.0986 176.03ZM51.0986 179.816L50.2766 179.436L50.2745 179.44L51.0986 179.816ZM50.1201 181.022L50.6225 181.775L50.6306 181.77L50.1201 181.022ZM49.7643 180.458L50.2922 181.194L50.3025 181.187L49.7643 180.458ZM50.4759 179.49L51.3149 179.831L51.3167 179.826L50.4759 179.49ZM50.4759 176.357L49.635 176.693L49.6369 176.698L50.4759 176.357ZM49.7643 175.388L49.2259 176.116L49.2364 176.124L49.7643 175.388ZM47.6392 175.388L48.1597 176.129L48.17 176.122L47.6392 175.388ZM46.9177 176.357L47.7567 176.698L47.7585 176.693L46.9177 176.357ZM46.9177 179.49L46.0768 179.826L46.0787 179.831L46.9177 179.49ZM47.6392 180.458L47.1084 181.192L47.1188 181.2L47.6392 180.458ZM48.6968 180.531C48.3288 180.531 48.0317 180.439 47.7759 180.268L46.7712 181.775C47.3456 182.158 47.9974 182.343 48.6968 182.343V180.531ZM47.784 180.274C47.5235 180.096 47.2974 179.832 47.1191 179.44L45.4709 180.192C45.767 180.841 46.1932 181.381 46.763 181.77L47.784 180.274ZM47.1208 179.444C46.9486 179.062 46.8448 178.562 46.8448 177.918H45.0336C45.0336 178.75 45.1669 179.516 45.4691 180.188L47.1208 179.444ZM46.8448 177.918C46.8448 177.274 46.9488 176.78 47.1191 176.406L45.4709 175.655C45.1668 176.322 45.0336 177.087 45.0336 177.918H46.8448ZM47.1208 176.402C47.2995 176.005 47.5236 175.746 47.7759 175.578L46.7712 174.071C46.1932 174.456 45.7649 175.002 45.4691 175.659L47.1208 176.402ZM47.784 175.573C48.0392 175.398 48.3333 175.305 48.6968 175.305V173.494C47.9928 173.494 47.3381 173.684 46.763 174.077L47.784 175.573ZM48.6968 175.305C49.0603 175.305 49.3544 175.398 49.6095 175.573L50.6306 174.077C50.0555 173.684 49.4008 173.494 48.6968 173.494V175.305ZM49.6177 175.578C49.87 175.746 50.0941 176.005 50.2727 176.402L51.9244 175.659C51.6287 175.002 51.2004 174.456 50.6224 174.071L49.6177 175.578ZM50.2785 176.415C50.4524 176.786 50.5587 177.277 50.5587 177.918H52.3699C52.3699 177.084 52.2324 176.316 51.9187 175.646L50.2785 176.415ZM50.5587 177.918C50.5587 178.559 50.4525 179.056 50.2766 179.436L51.9205 180.196C52.2323 179.522 52.3699 178.753 52.3699 177.918H50.5587ZM50.2745 179.44C50.0962 179.832 49.87 180.096 49.6095 180.274L50.6306 181.77C51.2004 181.381 51.6266 180.841 51.9227 180.192L50.2745 179.44ZM49.6177 180.268C49.3619 180.439 49.0648 180.531 48.6968 180.531V182.343C49.3962 182.343 50.048 182.158 50.6224 181.775L49.6177 180.268ZM48.6968 181.69C49.2758 181.69 49.8204 181.533 50.2921 181.194L49.2364 179.723C49.1019 179.819 48.9349 179.879 48.6968 179.879V181.69ZM50.3025 181.187C50.765 180.845 51.094 180.375 51.3149 179.831L49.6369 179.149C49.5152 179.449 49.3697 179.624 49.226 179.73L50.3025 181.187ZM51.3167 179.826C51.5428 179.261 51.6385 178.616 51.6385 177.918H49.8273C49.8273 178.46 49.7517 178.862 49.6351 179.154L51.3167 179.826ZM51.6385 177.918C51.6385 177.222 51.543 176.577 51.3149 176.016L49.6369 176.698C49.7515 176.98 49.8273 177.376 49.8273 177.918H51.6385ZM51.3167 176.02C51.0965 175.47 50.7654 174.992 50.2921 174.652L49.2364 176.124C49.3693 176.219 49.5127 176.387 49.6351 176.693L51.3167 176.02ZM50.3025 174.66C49.8303 174.311 49.2819 174.146 48.6968 174.146V175.958C48.9287 175.958 49.092 176.017 49.226 176.116L50.3025 174.66ZM48.6968 174.146C48.1178 174.146 47.5781 174.314 47.1084 174.654L48.17 176.122C48.3197 176.013 48.4851 175.958 48.6968 175.958V174.146ZM47.1188 174.647C46.6365 174.985 46.299 175.465 46.0768 176.02L47.7585 176.693C47.879 176.392 48.0225 176.225 48.1596 176.129L47.1188 174.647ZM46.0787 176.016C45.8506 176.577 45.7551 177.222 45.7551 177.918H47.5663C47.5663 177.376 47.6421 176.98 47.7567 176.698L46.0787 176.016ZM45.7551 177.918C45.7551 178.616 45.8508 179.261 46.0768 179.826L47.7585 179.154C47.6419 178.862 47.5663 178.46 47.5663 177.918H45.7551ZM46.0787 179.831C46.3015 180.379 46.6369 180.851 47.1084 181.192L48.17 179.725C48.0222 179.618 47.8765 179.444 47.7567 179.149L46.0787 179.831ZM47.1188 181.2C47.588 181.529 48.124 181.69 48.6968 181.69V179.879C48.4788 179.879 48.3098 179.823 48.1596 179.717L47.1188 181.2Z" fill="#333333" mask="url(#path-16-inside-1_3005_4171)"/>
<mask id="path-18-inside-2_3005_4171" fill="white">
<path d="M36.5891 128.006C36.0949 128.006 35.6237 127.927 35.1757 127.769C34.7276 127.604 34.3718 127.386 34.1082 127.116L34.4541 126.553C34.6716 126.784 34.9681 126.975 35.3437 127.126C35.7259 127.278 36.1377 127.353 36.5792 127.353C37.1656 127.353 37.6104 127.225 37.9135 126.968C38.2232 126.704 38.3781 126.362 38.3781 125.94C38.3781 125.644 38.3056 125.39 38.1606 125.179C38.0222 124.962 37.785 124.794 37.449 124.675C37.1129 124.556 36.6517 124.497 36.0652 124.497H34.5925L34.9483 121.028H38.7339V121.66H35.235L35.6007 121.314L35.2943 124.22L34.9286 123.864H36.2234C36.9218 123.864 37.4819 123.95 37.9036 124.121C38.3253 124.293 38.6285 124.533 38.813 124.843C39.004 125.146 39.0996 125.502 39.0996 125.91C39.0996 126.299 39.0073 126.655 38.8228 126.978C38.6383 127.294 38.3616 127.545 37.9926 127.729C37.6236 127.914 37.1557 128.006 36.5891 128.006ZM42.7607 128.006C42.2269 128.006 41.7525 127.867 41.3374 127.591C40.9222 127.307 40.5961 126.905 40.3589 126.385C40.1216 125.858 40.003 125.225 40.003 124.487C40.003 123.749 40.1216 123.12 40.3589 122.599C40.5961 122.072 40.9222 121.67 41.3374 121.393C41.7525 121.11 42.2269 120.968 42.7607 120.968C43.2944 120.968 43.7688 121.11 44.1839 121.393C44.5991 121.67 44.9252 122.072 45.1624 122.599C45.4063 123.12 45.5282 123.749 45.5282 124.487C45.5282 125.225 45.4063 125.858 45.1624 126.385C44.9252 126.905 44.5991 127.307 44.1839 127.591C43.7688 127.867 43.2944 128.006 42.7607 128.006ZM42.7607 127.353C43.1692 127.353 43.525 127.245 43.8281 127.027C44.1312 126.803 44.3684 126.48 44.5398 126.059C44.7111 125.63 44.7967 125.107 44.7967 124.487C44.7967 123.868 44.7111 123.347 44.5398 122.925C44.3684 122.497 44.1312 122.174 43.8281 121.957C43.525 121.733 43.1692 121.621 42.7607 121.621C42.3653 121.621 42.0128 121.733 41.7031 121.957C41.3934 122.174 41.1529 122.497 40.9815 122.925C40.8102 123.347 40.7246 123.868 40.7246 124.487C40.7246 125.107 40.8102 125.63 40.9815 126.059C41.1529 126.48 41.3934 126.803 41.7031 127.027C42.0128 127.245 42.3653 127.353 42.7607 127.353ZM47.5653 126.602L47.5851 125.703L50.8171 122.757H51.677L49.3939 124.942L48.9985 125.278L47.5653 126.602ZM47.0118 127.947V120.613H47.7136V127.947H47.0118ZM51.0346 127.947L48.87 125.248L49.3247 124.705L51.8945 127.947H51.0346Z"/>
</mask>
<path d="M36.5891 128.006C36.0949 128.006 35.6237 127.927 35.1757 127.769C34.7276 127.604 34.3718 127.386 34.1082 127.116L34.4541 126.553C34.6716 126.784 34.9681 126.975 35.3437 127.126C35.7259 127.278 36.1377 127.353 36.5792 127.353C37.1656 127.353 37.6104 127.225 37.9135 126.968C38.2232 126.704 38.3781 126.362 38.3781 125.94C38.3781 125.644 38.3056 125.39 38.1606 125.179C38.0222 124.962 37.785 124.794 37.449 124.675C37.1129 124.556 36.6517 124.497 36.0652 124.497H34.5925L34.9483 121.028H38.7339V121.66H35.235L35.6007 121.314L35.2943 124.22L34.9286 123.864H36.2234C36.9218 123.864 37.4819 123.95 37.9036 124.121C38.3253 124.293 38.6285 124.533 38.813 124.843C39.004 125.146 39.0996 125.502 39.0996 125.91C39.0996 126.299 39.0073 126.655 38.8228 126.978C38.6383 127.294 38.3616 127.545 37.9926 127.729C37.6236 127.914 37.1557 128.006 36.5891 128.006ZM42.7607 128.006C42.2269 128.006 41.7525 127.867 41.3374 127.591C40.9222 127.307 40.5961 126.905 40.3589 126.385C40.1216 125.858 40.003 125.225 40.003 124.487C40.003 123.749 40.1216 123.12 40.3589 122.599C40.5961 122.072 40.9222 121.67 41.3374 121.393C41.7525 121.11 42.2269 120.968 42.7607 120.968C43.2944 120.968 43.7688 121.11 44.1839 121.393C44.5991 121.67 44.9252 122.072 45.1624 122.599C45.4063 123.12 45.5282 123.749 45.5282 124.487C45.5282 125.225 45.4063 125.858 45.1624 126.385C44.9252 126.905 44.5991 127.307 44.1839 127.591C43.7688 127.867 43.2944 128.006 42.7607 128.006ZM42.7607 127.353C43.1692 127.353 43.525 127.245 43.8281 127.027C44.1312 126.803 44.3684 126.48 44.5398 126.059C44.7111 125.63 44.7967 125.107 44.7967 124.487C44.7967 123.868 44.7111 123.347 44.5398 122.925C44.3684 122.497 44.1312 122.174 43.8281 121.957C43.525 121.733 43.1692 121.621 42.7607 121.621C42.3653 121.621 42.0128 121.733 41.7031 121.957C41.3934 122.174 41.1529 122.497 40.9815 122.925C40.8102 123.347 40.7246 123.868 40.7246 124.487C40.7246 125.107 40.8102 125.63 40.9815 126.059C41.1529 126.48 41.3934 126.803 41.7031 127.027C42.0128 127.245 42.3653 127.353 42.7607 127.353ZM47.5653 126.602L47.5851 125.703L50.8171 122.757H51.677L49.3939 124.942L48.9985 125.278L47.5653 126.602ZM47.0118 127.947V120.613H47.7136V127.947H47.0118ZM51.0346 127.947L48.87 125.248L49.3247 124.705L51.8945 127.947H51.0346Z" fill="#333333"/>
<path d="M35.1757 127.769L34.8631 128.619L34.8743 128.623L35.1757 127.769ZM34.1082 127.116L33.3365 126.642L32.9673 127.244L33.46 127.749L34.1082 127.116ZM34.4541 126.553L35.1131 125.932L34.3015 125.071L33.6824 126.079L34.4541 126.553ZM35.3437 127.126L35.0048 127.966L35.0099 127.968L35.3437 127.126ZM37.9135 126.968L38.4992 127.659L38.5005 127.658L37.9135 126.968ZM38.1606 125.179L37.3966 125.665L37.4052 125.679L37.4144 125.692L38.1606 125.179ZM37.449 124.675L37.7504 123.821V123.821L37.449 124.675ZM34.5925 124.497L33.6916 124.405L33.5893 125.403H34.5925V124.497ZM34.9483 121.028V120.122H34.1309L34.0474 120.935L34.9483 121.028ZM38.7339 121.028H39.6395V120.122H38.7339V121.028ZM38.7339 121.66V122.566H39.6395V121.66H38.7339ZM35.235 121.66L34.6126 121.002L32.9598 122.566H35.235V121.66ZM35.6007 121.314L36.5013 121.409L36.7582 118.973L34.9783 120.657L35.6007 121.314ZM35.2943 124.22L34.6627 124.869L35.9993 126.17L36.1949 124.315L35.2943 124.22ZM34.9286 123.864V122.959H32.6992L34.297 124.514L34.9286 123.864ZM38.813 124.843L38.0349 125.306L38.0408 125.316L38.0469 125.326L38.813 124.843ZM38.8228 126.978L39.6051 127.434L39.6091 127.427L38.8228 126.978ZM37.9926 127.729L37.5876 126.919L37.9926 127.729ZM36.5891 127.1C36.1934 127.1 35.8245 127.037 35.4771 126.915L34.8743 128.623C35.423 128.816 35.9964 128.911 36.5891 128.911V127.1ZM35.4882 126.919C35.1343 126.789 34.9042 126.635 34.7564 126.484L33.46 127.749C33.8394 128.138 34.3209 128.419 34.8632 128.619L35.4882 126.919ZM34.8799 127.59L35.2259 127.027L33.6824 126.079L33.3365 126.642L34.8799 127.59ZM33.7952 127.174C34.1236 127.522 34.5405 127.779 35.0048 127.966L35.6826 126.286C35.3957 126.171 35.2196 126.045 35.1131 125.932L33.7952 127.174ZM35.0099 127.968C35.5059 128.165 36.0319 128.259 36.5792 128.259V126.448C36.2435 126.448 35.9458 126.391 35.6775 126.284L35.0099 127.968ZM36.5792 128.259C37.281 128.259 37.9701 128.107 38.4992 127.659L37.3279 126.277C37.2507 126.343 37.0503 126.448 36.5792 126.448V128.259ZM38.5005 127.658C39.0208 127.215 39.2837 126.616 39.2837 125.94H37.4724C37.4724 126.108 37.4257 126.194 37.3266 126.278L38.5005 127.658ZM39.2837 125.94C39.2837 125.49 39.1714 125.051 38.9069 124.666L37.4144 125.692C37.4398 125.729 37.4724 125.797 37.4724 125.94H39.2837ZM38.9246 124.693C38.6426 124.25 38.2054 123.982 37.7504 123.821L37.1476 125.529C37.2537 125.566 37.3186 125.603 37.3555 125.629C37.3734 125.642 37.384 125.651 37.3897 125.657C37.3925 125.66 37.3943 125.662 37.3953 125.663C37.3958 125.664 37.3961 125.665 37.3963 125.665C37.3965 125.665 37.3966 125.665 37.3966 125.665L38.9246 124.693ZM37.7504 123.821C37.2751 123.653 36.6969 123.591 36.0652 123.591V125.403C36.6064 125.403 36.9507 125.459 37.1476 125.529L37.7504 123.821ZM36.0652 123.591H34.5925V125.403H36.0652V123.591ZM35.4934 124.589L35.8492 121.12L34.0474 120.935L33.6916 124.405L35.4934 124.589ZM34.9483 121.933H38.7339V120.122H34.9483V121.933ZM37.8283 121.028V121.66H39.6395V121.028H37.8283ZM38.7339 120.755H35.235V122.566H38.7339V120.755ZM35.8573 122.318L36.223 121.972L34.9783 120.657L34.6126 121.002L35.8573 122.318ZM34.7001 121.219L34.3937 124.125L36.1949 124.315L36.5013 121.409L34.7001 121.219ZM35.9258 123.571L35.5601 123.215L34.297 124.514L34.6627 124.869L35.9258 123.571ZM34.9286 124.77H36.2234V122.959H34.9286V124.77ZM36.2234 124.77C36.861 124.77 37.2913 124.85 37.5628 124.96L38.2445 123.282C37.6725 123.05 36.9827 122.959 36.2234 122.959V124.77ZM37.5628 124.96C37.8504 125.077 37.9753 125.206 38.0349 125.306L39.591 124.379C39.2816 123.86 38.8003 123.508 38.2445 123.282L37.5628 124.96ZM38.0469 125.326C38.1345 125.465 38.194 125.648 38.194 125.91H40.0052C40.0052 125.356 39.8735 124.827 39.579 124.36L38.0469 125.326ZM38.194 125.91C38.194 126.149 38.1392 126.349 38.0365 126.529L39.6091 127.427C39.8754 126.961 40.0052 126.449 40.0052 125.91H38.194ZM38.0406 126.522C37.9557 126.667 37.8197 126.803 37.5876 126.919L38.3976 128.539C38.9035 128.286 39.321 127.921 39.6051 127.434L38.0406 126.522ZM37.5876 126.919C37.3823 127.022 37.0648 127.1 36.5891 127.1V128.911C37.2467 128.911 37.8649 128.805 38.3976 128.539L37.5876 126.919ZM41.3374 127.591L40.8268 128.339L40.835 128.344L41.3374 127.591ZM40.3589 126.385L39.533 126.757L39.5348 126.76L40.3589 126.385ZM40.3589 122.599L41.183 122.975L41.1847 122.971L40.3589 122.599ZM41.3374 121.393L41.8397 122.147L41.8479 122.141L41.3374 121.393ZM44.1839 121.393L43.6734 122.142L43.6816 122.147L44.1839 121.393ZM45.1624 122.599L44.3365 122.971L44.3423 122.983L45.1624 122.599ZM45.1624 126.385L44.3405 126.005L44.3384 126.009L45.1624 126.385ZM44.1839 127.591L44.6863 128.344L44.6945 128.339L44.1839 127.591ZM43.8281 127.027L44.3561 127.763L44.3664 127.756L43.8281 127.027ZM44.5398 126.059L45.3788 126.4L45.3806 126.395L44.5398 126.059ZM44.5398 122.925L43.6989 123.262L43.7007 123.266L44.5398 122.925ZM43.8281 121.957L43.2898 122.685L43.3002 122.693L43.8281 121.957ZM41.7031 121.957L42.2235 122.698L42.2339 122.691L41.7031 121.957ZM40.9815 122.925L41.8206 123.266L41.8224 123.262L40.9815 122.925ZM40.9815 126.059L40.1407 126.395L40.1425 126.4L40.9815 126.059ZM41.7031 127.027L41.1722 127.761L41.1827 127.768L41.7031 127.027ZM42.7607 127.1C42.3926 127.1 42.0955 127.008 41.8397 126.837L40.835 128.344C41.4094 128.727 42.0612 128.911 42.7607 128.911V127.1ZM41.8479 126.843C41.5874 126.665 41.3613 126.401 41.1829 126.009L39.5348 126.76C39.8309 127.41 40.2571 127.95 40.8268 128.339L41.8479 126.843ZM41.1847 126.013C41.0125 125.631 40.9087 125.131 40.9087 124.487H39.0974C39.0974 125.319 39.2308 126.085 39.533 126.757L41.1847 126.013ZM40.9087 124.487C40.9087 123.843 41.0127 123.349 41.1829 122.975L39.5348 122.224C39.2306 122.891 39.0974 123.656 39.0974 124.487H40.9087ZM41.1847 122.971C41.3634 122.574 41.5874 122.315 41.8397 122.147L40.835 120.64C40.2571 121.025 39.8288 121.57 39.533 122.228L41.1847 122.971ZM41.8479 122.141C42.103 121.967 42.3972 121.874 42.7607 121.874V120.063C42.0567 120.063 41.4019 120.253 40.8268 120.645L41.8479 122.141ZM42.7607 121.874C43.1241 121.874 43.4183 121.967 43.6734 122.141L44.6945 120.645C44.1194 120.253 43.4647 120.063 42.7607 120.063V121.874ZM43.6816 122.147C43.9339 122.315 44.1579 122.574 44.3366 122.971L45.9883 122.228C45.6926 121.57 45.2642 121.025 44.6863 120.64L43.6816 122.147ZM44.3423 122.983C44.5162 123.355 44.6225 123.846 44.6225 124.487H46.4338C46.4338 123.653 46.2963 122.885 45.9826 122.215L44.3423 122.983ZM44.6225 124.487C44.6225 125.128 44.5164 125.624 44.3405 126.005L45.9844 126.765C46.2961 126.091 46.4338 125.322 46.4338 124.487H44.6225ZM44.3384 126.009C44.16 126.401 43.9339 126.665 43.6734 126.843L44.6945 128.339C45.2642 127.95 45.6904 127.41 45.9865 126.76L44.3384 126.009ZM43.6816 126.837C43.4258 127.008 43.1287 127.1 42.7607 127.1V128.911C43.4601 128.911 44.1119 128.727 44.6863 128.344L43.6816 126.837ZM42.7607 128.259C43.3396 128.259 43.8843 128.102 44.356 127.763L43.3002 126.291C43.1657 126.388 42.9988 126.448 42.7607 126.448V128.259ZM44.3664 127.756C44.8289 127.414 45.1578 126.943 45.3788 126.4L43.7007 125.718C43.579 126.017 43.4335 126.193 43.2898 126.299L44.3664 127.756ZM45.3806 126.395C45.6066 125.83 45.7024 125.185 45.7024 124.487H43.8911C43.8911 125.029 43.8155 125.431 43.6989 125.722L45.3806 126.395ZM45.7024 124.487C45.7024 123.79 45.6068 123.146 45.3788 122.585L43.7007 123.266C43.8153 123.548 43.8911 123.945 43.8911 124.487H45.7024ZM45.3806 122.589C45.1604 122.039 44.8293 121.561 44.356 121.221L43.3002 122.693C43.4332 122.788 43.5765 122.956 43.6989 123.262L45.3806 122.589ZM44.3664 121.229C43.8942 120.88 43.3458 120.715 42.7607 120.715V122.526C42.9926 122.526 43.1558 122.586 43.2898 122.685L44.3664 121.229ZM42.7607 120.715C42.1817 120.715 41.642 120.883 41.1723 121.223L42.2339 122.691C42.3836 122.582 42.5489 122.526 42.7607 122.526V120.715ZM41.1827 121.216C40.7004 121.554 40.3629 122.034 40.1407 122.589L41.8224 123.262C41.9428 122.961 42.0864 122.794 42.2235 122.698L41.1827 121.216ZM40.1425 122.585C39.9145 123.146 39.819 123.79 39.819 124.487H41.6302C41.6302 123.945 41.706 123.548 41.8206 123.266L40.1425 122.585ZM39.819 124.487C39.819 125.185 39.9147 125.83 40.1407 126.395L41.8224 125.722C41.7058 125.431 41.6302 125.029 41.6302 124.487H39.819ZM40.1425 126.4C40.3654 126.948 40.7007 127.42 41.1723 127.761L42.2339 126.294C42.086 126.187 41.9403 126.013 41.8206 125.718L40.1425 126.4ZM41.1827 127.768C41.6519 128.098 42.1879 128.259 42.7607 128.259V126.448C42.5427 126.448 42.3736 126.392 42.2235 126.286L41.1827 127.768ZM47.5653 126.602L46.6599 126.582L46.613 128.715L48.18 127.267L47.5653 126.602ZM47.5851 125.703L46.9751 125.034L46.6882 125.295L46.6797 125.683L47.5851 125.703ZM50.8171 122.757V121.852H50.4664L50.2071 122.088L50.8171 122.757ZM51.677 122.757L52.3031 123.412L53.9337 121.852H51.677V122.757ZM49.3939 124.942L49.9804 125.632L50.0007 125.615L50.0199 125.596L49.3939 124.942ZM48.9985 125.278L48.412 124.588L48.3977 124.6L48.3839 124.613L48.9985 125.278ZM47.0118 127.947H46.1062V128.852H47.0118V127.947ZM47.0118 120.613V119.707H46.1062V120.613H47.0118ZM47.7136 120.613H48.6192V119.707H47.7136V120.613ZM47.7136 127.947V128.852H48.6192V127.947H47.7136ZM51.0346 127.947L50.3282 128.513L50.6001 128.852H51.0346V127.947ZM48.87 125.248L48.1753 124.667L47.6994 125.236L48.1636 125.815L48.87 125.248ZM49.3247 124.705L50.0344 124.142L49.3435 123.27L48.63 124.124L49.3247 124.705ZM51.8945 127.947V128.852H53.768L52.6042 127.384L51.8945 127.947ZM48.4707 126.622L48.4905 125.723L46.6797 125.683L46.6599 126.582L48.4707 126.622ZM48.1951 126.372L51.4271 123.427L50.2071 122.088L46.9751 125.034L48.1951 126.372ZM50.8171 123.663H51.677V121.852H50.8171V123.663ZM51.051 122.103L48.7678 124.287L50.0199 125.596L52.3031 123.412L51.051 122.103ZM48.8073 124.252L48.412 124.588L49.585 125.968L49.9804 125.632L48.8073 124.252ZM48.3839 124.613L46.9507 125.937L48.18 127.267L49.6131 125.943L48.3839 124.613ZM47.9174 127.947V120.613H46.1062V127.947H47.9174ZM47.0118 121.518H47.7136V119.707H47.0118V121.518ZM46.808 120.613V127.947H48.6192V120.613H46.808ZM47.7136 127.041H47.0118V128.852H47.7136V127.041ZM51.741 127.38L49.5764 124.682L48.1636 125.815L50.3282 128.513L51.741 127.38ZM49.5647 125.829L50.0193 125.286L48.63 124.124L48.1753 124.667L49.5647 125.829ZM48.615 125.267L51.1848 128.509L52.6042 127.384L50.0344 124.142L48.615 125.267ZM51.8945 127.041H51.0346V128.852H51.8945V127.041Z" fill="#333333" mask="url(#path-18-inside-2_3005_4171)"/>
<mask id="path-20-inside-3_3005_4171" fill="white">
<path d="M31.0933 74.5151V67.8929L31.4096 68.229H29.4625V67.5964H31.805V74.5151H31.0933ZM36.2165 74.5744C35.6827 74.5744 35.2083 74.4361 34.7932 74.1593C34.378 73.876 34.0519 73.474 33.8147 72.9535C33.5774 72.4263 33.4588 71.7938 33.4588 71.0558C33.4588 70.3178 33.5774 69.6885 33.8147 69.1679C34.0519 68.6408 34.378 68.2388 34.7932 67.9621C35.2083 67.6788 35.6827 67.5371 36.2165 67.5371C36.7502 67.5371 37.2246 67.6788 37.6397 67.9621C38.0549 68.2388 38.381 68.6408 38.6182 69.1679C38.8621 69.6885 38.984 70.3178 38.984 71.0558C38.984 71.7938 38.8621 72.4263 38.6182 72.9535C38.381 73.474 38.0549 73.876 37.6397 74.1593C37.2246 74.4361 36.7502 74.5744 36.2165 74.5744ZM36.2165 73.9221C36.625 73.9221 36.9808 73.8134 37.2839 73.5959C37.587 73.3719 37.8242 73.049 37.9956 72.6273C38.1669 72.199 38.2525 71.6752 38.2525 71.0558C38.2525 70.4364 38.1669 69.9158 37.9956 69.4941C37.8242 69.0658 37.587 68.7429 37.2839 68.5255C36.9808 68.3014 36.625 68.1894 36.2165 68.1894C35.8211 68.1894 35.4686 68.3014 35.1589 68.5255C34.8492 68.7429 34.6087 69.0658 34.4373 69.4941C34.266 69.9158 34.1804 70.4364 34.1804 71.0558C34.1804 71.6752 34.266 72.199 34.4373 72.6273C34.6087 73.049 34.8492 73.3719 35.1589 73.5959C35.4686 73.8134 35.8211 73.9221 36.2165 73.9221ZM42.7607 74.5744C42.227 74.5744 41.7525 74.4361 41.3374 74.1593C40.9223 73.876 40.5961 73.474 40.3589 72.9535C40.1217 72.4263 40.0031 71.7938 40.0031 71.0558C40.0031 70.3178 40.1217 69.6885 40.3589 69.1679C40.5961 68.6408 40.9223 68.2388 41.3374 67.9621C41.7525 67.6788 42.227 67.5371 42.7607 67.5371C43.2944 67.5371 43.7689 67.6788 44.184 67.9621C44.5991 68.2388 44.9253 68.6408 45.1625 69.1679C45.4063 69.6885 45.5282 70.3178 45.5282 71.0558C45.5282 71.7938 45.4063 72.4263 45.1625 72.9535C44.9253 73.474 44.5991 73.876 44.184 74.1593C43.7689 74.4361 43.2944 74.5744 42.7607 74.5744ZM42.7607 73.9221C43.1692 73.9221 43.5251 73.8134 43.8282 73.5959C44.1313 73.3719 44.3685 73.049 44.5398 72.6273C44.7111 72.199 44.7968 71.6752 44.7968 71.0558C44.7968 70.4364 44.7111 69.9158 44.5398 69.4941C44.3685 69.0658 44.1313 68.7429 43.8282 68.5255C43.5251 68.3014 43.1692 68.1894 42.7607 68.1894C42.3653 68.1894 42.0128 68.3014 41.7031 68.5255C41.3934 68.7429 41.1529 69.0658 40.9816 69.4941C40.8103 69.9158 40.7246 70.4364 40.7246 71.0558C40.7246 71.6752 40.8103 72.199 40.9816 72.6273C41.1529 73.049 41.3934 73.3719 41.7031 73.5959C42.0128 73.8134 42.3653 73.9221 42.7607 73.9221ZM47.5654 73.1709L47.5851 72.2715L50.8172 69.3261H51.6771L49.3939 71.5104L48.9985 71.8465L47.5654 73.1709ZM47.0119 74.5151V67.1813H47.7136V74.5151H47.0119ZM51.0346 74.5151L48.87 71.8168L49.3247 71.2732L51.8945 74.5151H51.0346Z"/>
</mask>
<path d="M31.0933 74.5151V67.8929L31.4096 68.229H29.4625V67.5964H31.805V74.5151H31.0933ZM36.2165 74.5744C35.6827 74.5744 35.2083 74.4361 34.7932 74.1593C34.378 73.876 34.0519 73.474 33.8147 72.9535C33.5774 72.4263 33.4588 71.7938 33.4588 71.0558C33.4588 70.3178 33.5774 69.6885 33.8147 69.1679C34.0519 68.6408 34.378 68.2388 34.7932 67.9621C35.2083 67.6788 35.6827 67.5371 36.2165 67.5371C36.7502 67.5371 37.2246 67.6788 37.6397 67.9621C38.0549 68.2388 38.381 68.6408 38.6182 69.1679C38.8621 69.6885 38.984 70.3178 38.984 71.0558C38.984 71.7938 38.8621 72.4263 38.6182 72.9535C38.381 73.474 38.0549 73.876 37.6397 74.1593C37.2246 74.4361 36.7502 74.5744 36.2165 74.5744ZM36.2165 73.9221C36.625 73.9221 36.9808 73.8134 37.2839 73.5959C37.587 73.3719 37.8242 73.049 37.9956 72.6273C38.1669 72.199 38.2525 71.6752 38.2525 71.0558C38.2525 70.4364 38.1669 69.9158 37.9956 69.4941C37.8242 69.0658 37.587 68.7429 37.2839 68.5255C36.9808 68.3014 36.625 68.1894 36.2165 68.1894C35.8211 68.1894 35.4686 68.3014 35.1589 68.5255C34.8492 68.7429 34.6087 69.0658 34.4373 69.4941C34.266 69.9158 34.1804 70.4364 34.1804 71.0558C34.1804 71.6752 34.266 72.199 34.4373 72.6273C34.6087 73.049 34.8492 73.3719 35.1589 73.5959C35.4686 73.8134 35.8211 73.9221 36.2165 73.9221ZM42.7607 74.5744C42.227 74.5744 41.7525 74.4361 41.3374 74.1593C40.9223 73.876 40.5961 73.474 40.3589 72.9535C40.1217 72.4263 40.0031 71.7938 40.0031 71.0558C40.0031 70.3178 40.1217 69.6885 40.3589 69.1679C40.5961 68.6408 40.9223 68.2388 41.3374 67.9621C41.7525 67.6788 42.227 67.5371 42.7607 67.5371C43.2944 67.5371 43.7689 67.6788 44.184 67.9621C44.5991 68.2388 44.9253 68.6408 45.1625 69.1679C45.4063 69.6885 45.5282 70.3178 45.5282 71.0558C45.5282 71.7938 45.4063 72.4263 45.1625 72.9535C44.9253 73.474 44.5991 73.876 44.184 74.1593C43.7689 74.4361 43.2944 74.5744 42.7607 74.5744ZM42.7607 73.9221C43.1692 73.9221 43.5251 73.8134 43.8282 73.5959C44.1313 73.3719 44.3685 73.049 44.5398 72.6273C44.7111 72.199 44.7968 71.6752 44.7968 71.0558C44.7968 70.4364 44.7111 69.9158 44.5398 69.4941C44.3685 69.0658 44.1313 68.7429 43.8282 68.5255C43.5251 68.3014 43.1692 68.1894 42.7607 68.1894C42.3653 68.1894 42.0128 68.3014 41.7031 68.5255C41.3934 68.7429 41.1529 69.0658 40.9816 69.4941C40.8103 69.9158 40.7246 70.4364 40.7246 71.0558C40.7246 71.6752 40.8103 72.199 40.9816 72.6273C41.1529 73.049 41.3934 73.3719 41.7031 73.5959C42.0128 73.8134 42.3653 73.9221 42.7607 73.9221ZM47.5654 73.1709L47.5851 72.2715L50.8172 69.3261H51.6771L49.3939 71.5104L48.9985 71.8465L47.5654 73.1709ZM47.0119 74.5151V67.1813H47.7136V74.5151H47.0119ZM51.0346 74.5151L48.87 71.8168L49.3247 71.2732L51.8945 74.5151H51.0346Z" fill="#333333"/>
<path d="M31.0933 74.5151H30.1877V75.4208H31.0933V74.5151ZM31.0933 67.8929L31.7528 67.2722L30.1877 65.6093V67.8929H31.0933ZM31.4096 68.229V69.1346H33.5056L32.0691 67.6083L31.4096 68.229ZM29.4625 68.229H28.5569V69.1346H29.4625V68.229ZM29.4625 67.5964V66.6908H28.5569V67.5964H29.4625ZM31.805 67.5964H32.7106V66.6908H31.805V67.5964ZM31.805 74.5151V75.4208H32.7106V74.5151H31.805ZM31.999 74.5151V67.8929H30.1877V74.5151H31.999ZM30.4339 68.5136L30.7502 68.8496L32.0691 67.6083L31.7528 67.2722L30.4339 68.5136ZM31.4096 67.3233H29.4625V69.1346H31.4096V67.3233ZM30.3681 68.229V67.5964H28.5569V68.229H30.3681ZM29.4625 68.502H31.805V66.6908H29.4625V68.502ZM30.8994 67.5964V74.5151H32.7106V67.5964H30.8994ZM31.805 73.6095H31.0933V75.4208H31.805V73.6095ZM34.7932 74.1593L34.2826 74.9074L34.2908 74.9128L34.7932 74.1593ZM33.8147 72.9535L32.9888 73.3251L32.9906 73.329L33.8147 72.9535ZM33.8147 69.1679L34.6388 69.5435L34.6405 69.5396L33.8147 69.1679ZM34.7932 67.9621L35.2955 68.7157L35.3037 68.7101L34.7932 67.9621ZM37.6397 67.9621L37.1292 68.7101L37.1374 68.7156L37.6397 67.9621ZM38.6182 69.1679L37.7923 69.5396L37.7981 69.552L38.6182 69.1679ZM38.6182 72.9535L37.7963 72.5733L37.7942 72.5779L38.6182 72.9535ZM37.6397 74.1593L38.1421 74.9129L38.1503 74.9073L37.6397 74.1593ZM37.2839 73.5959L37.8119 74.3319L37.8222 74.3242L37.2839 73.5959ZM37.9956 72.6273L38.8346 72.9682L38.8364 72.9636L37.9956 72.6273ZM37.9956 69.4941L37.1547 69.8304L37.1565 69.835L37.9956 69.4941ZM37.2839 68.5255L36.7456 69.2538L36.756 69.2613L37.2839 68.5255ZM35.1589 68.5255L35.6793 69.2667L35.6897 69.2592L35.1589 68.5255ZM34.4373 69.4941L35.2764 69.835L35.2782 69.8304L34.4373 69.4941ZM34.4373 72.6273L33.5965 72.9636L33.5983 72.9682L34.4373 72.6273ZM35.1589 73.5959L34.628 74.3298L34.6385 74.3371L35.1589 73.5959ZM36.2165 73.6688C35.8484 73.6688 35.5513 73.5763 35.2955 73.4058L34.2908 74.9128C34.8652 75.2958 35.517 75.4801 36.2165 75.4801V73.6688ZM35.3037 73.4113C35.0432 73.2335 34.8171 72.9693 34.6387 72.5779L32.9906 73.329C33.2867 73.9788 33.7129 74.5184 34.2826 74.9073L35.3037 73.4113ZM34.6405 72.5818C34.4683 72.1991 34.3645 71.6998 34.3645 71.0558H32.5532C32.5532 71.8877 32.6866 72.6535 32.9888 73.3251L34.6405 72.5818ZM34.3645 71.0558C34.3645 70.4112 34.4685 69.9172 34.6387 69.5435L32.9906 68.7924C32.6864 69.4598 32.5532 70.2243 32.5532 71.0558H34.3645ZM34.6405 69.5396C34.8192 69.1425 35.0432 68.8838 35.2955 68.7156L34.2908 67.2086C33.7129 67.5939 33.2846 68.1391 32.9888 68.7963L34.6405 69.5396ZM35.3037 68.7101C35.5588 68.5359 35.853 68.4427 36.2165 68.4427V66.6315C35.5125 66.6315 34.8577 66.8216 34.2826 67.2141L35.3037 68.7101ZM36.2165 68.4427C36.5799 68.4427 36.8741 68.5359 37.1292 68.7101L38.1503 67.2141C37.5752 66.8216 36.9205 66.6315 36.2165 66.6315V68.4427ZM37.1374 68.7156C37.3897 68.8838 37.6137 69.1425 37.7924 69.5396L39.4441 68.7963C39.1484 68.1391 38.72 67.5939 38.1421 67.2086L37.1374 68.7156ZM37.7981 69.552C37.972 69.9233 38.0783 70.4142 38.0783 71.0558H39.8896C39.8896 70.2213 39.7521 69.4537 39.4384 68.7838L37.7981 69.552ZM38.0783 71.0558C38.0783 71.6968 37.9722 72.193 37.7963 72.5733L39.4402 73.3336C39.7519 72.6597 39.8896 71.8907 39.8896 71.0558H38.0783ZM37.7942 72.5779C37.6158 72.9693 37.3897 73.2335 37.1292 73.4113L38.1503 74.9073C38.72 74.5184 39.1462 73.9788 39.4423 73.329L37.7942 72.5779ZM37.1374 73.4058C36.8816 73.5763 36.5845 73.6688 36.2165 73.6688V75.4801C36.9159 75.4801 37.5677 75.2958 38.1421 74.9128L37.1374 73.4058ZM36.2165 74.8277C36.7954 74.8277 37.3401 74.6702 37.8118 74.3318L36.756 72.8601C36.6215 72.9566 36.4546 73.0165 36.2165 73.0165V74.8277ZM37.8222 74.3242C38.2847 73.9824 38.6136 73.512 38.8346 72.9682L37.1565 72.2865C37.0348 72.586 36.8893 72.7614 36.7456 72.8677L37.8222 74.3242ZM38.8364 72.9636C39.0624 72.3986 39.1582 71.7532 39.1582 71.0558H37.3469C37.3469 71.5971 37.2713 71.9994 37.1547 72.291L38.8364 72.9636ZM39.1582 71.0558C39.1582 70.359 39.0626 69.7146 38.8346 69.1532L37.1565 69.835C37.2711 70.117 37.3469 70.5137 37.3469 71.0558H39.1582ZM38.8364 69.1578C38.6162 68.6071 38.2851 68.1291 37.8118 67.7896L36.756 69.2613C36.889 69.3567 37.0323 69.5245 37.1547 69.8304L38.8364 69.1578ZM37.8222 67.7972C37.35 67.4482 36.8016 67.2838 36.2165 67.2838V69.095C36.4484 69.095 36.6116 69.1547 36.7456 69.2538L37.8222 67.7972ZM36.2165 67.2838C35.6375 67.2838 35.0978 67.4519 34.6281 67.7917L35.6897 69.2592C35.8394 69.1509 36.0047 69.095 36.2165 69.095V67.2838ZM34.6385 67.7843C34.1562 68.1229 33.8187 68.6023 33.5965 69.1578L35.2782 69.8304C35.3986 69.5293 35.5422 69.3629 35.6793 69.2666L34.6385 67.7843ZM33.5983 69.1532C33.3703 69.7146 33.2748 70.359 33.2748 71.0558H35.086C35.086 70.5137 35.1618 70.117 35.2764 69.835L33.5983 69.1532ZM33.2748 71.0558C33.2748 71.7532 33.3705 72.3986 33.5965 72.9636L35.2782 72.291C35.1616 71.9994 35.086 71.5971 35.086 71.0558H33.2748ZM33.5983 72.9682C33.8212 73.5168 34.1565 73.9886 34.6281 74.3297L35.6897 72.8622C35.5418 72.7552 35.3961 72.5812 35.2764 72.2865L33.5983 72.9682ZM34.6385 74.3371C35.1077 74.6665 35.6437 74.8277 36.2165 74.8277V73.0165C35.9985 73.0165 35.8294 72.9602 35.6793 72.8548L34.6385 74.3371ZM41.3374 74.1593L40.8268 74.9074L40.8351 74.9128L41.3374 74.1593ZM40.3589 72.9535L39.533 73.3251L39.5348 73.329L40.3589 72.9535ZM40.3589 69.1679L41.183 69.5435L41.1848 69.5396L40.3589 69.1679ZM41.3374 67.9621L41.8398 68.7157L41.8479 68.7101L41.3374 67.9621ZM44.184 67.9621L43.6734 68.7101L43.6816 68.7156L44.184 67.9621ZM45.1625 69.1679L44.3365 69.5396L44.3424 69.552L45.1625 69.1679ZM45.1625 72.9535L44.3405 72.5733L44.3384 72.5779L45.1625 72.9535ZM44.184 74.1593L44.6864 74.9129L44.6945 74.9073L44.184 74.1593ZM43.8282 73.5959L44.3561 74.3319L44.3664 74.3242L43.8282 73.5959ZM44.5398 72.6273L45.3788 72.9682L45.3806 72.9636L44.5398 72.6273ZM44.5398 69.4941L43.6989 69.8304L43.7008 69.835L44.5398 69.4941ZM43.8282 68.5255L43.2898 69.2538L43.3003 69.2613L43.8282 68.5255ZM41.7031 68.5255L42.2236 69.2667L42.2339 69.2592L41.7031 68.5255ZM40.9816 69.4941L41.8206 69.835L41.8224 69.8304L40.9816 69.4941ZM40.9816 72.6273L40.1407 72.9636L40.1426 72.9682L40.9816 72.6273ZM41.7031 73.5959L41.1723 74.3298L41.1827 74.3371L41.7031 73.5959ZM42.7607 73.6688C42.3927 73.6688 42.0956 73.5763 41.8398 73.4058L40.8351 74.9128C41.4095 75.2958 42.0613 75.4801 42.7607 75.4801V73.6688ZM41.8479 73.4113C41.5874 73.2335 41.3613 72.9693 41.183 72.5779L39.5348 73.329C39.8309 73.9788 40.2571 74.5184 40.8269 74.9073L41.8479 73.4113ZM41.1848 72.5818C41.0125 72.1991 40.9087 71.6998 40.9087 71.0558H39.0975C39.0975 71.8877 39.2308 72.6535 39.5331 73.3251L41.1848 72.5818ZM40.9087 71.0558C40.9087 70.4112 41.0127 69.9172 41.183 69.5435L39.5348 68.7924C39.2307 69.4598 39.0975 70.2243 39.0975 71.0558H40.9087ZM41.1848 69.5396C41.3634 69.1425 41.5875 68.8838 41.8398 68.7156L40.8351 67.2086C40.2571 67.5939 39.8288 68.1391 39.5331 68.7963L41.1848 69.5396ZM41.8479 68.7101C42.1031 68.5359 42.3972 68.4427 42.7607 68.4427V66.6315C42.0567 66.6315 41.402 66.8216 40.8269 67.2141L41.8479 68.7101ZM42.7607 68.4427C43.1242 68.4427 43.4183 68.5359 43.6734 68.7101L44.6945 67.2141C44.1194 66.8216 43.4647 66.6315 42.7607 66.6315V68.4427ZM43.6816 68.7156C43.9339 68.8838 44.158 69.1425 44.3366 69.5396L45.9883 68.7963C45.6926 68.1391 45.2643 67.5939 44.6863 67.2086L43.6816 68.7156ZM44.3424 69.552C44.5163 69.9233 44.6226 70.4142 44.6226 71.0558H46.4338C46.4338 70.2213 46.2963 69.4537 45.9826 68.7838L44.3424 69.552ZM44.6226 71.0558C44.6226 71.6968 44.5164 72.193 44.3405 72.5733L45.9845 73.3336C46.2962 72.6597 46.4338 71.8907 46.4338 71.0558H44.6226ZM44.3384 72.5779C44.1601 72.9693 43.9339 73.2335 43.6734 73.4113L44.6945 74.9073C45.2643 74.5184 45.6905 73.9788 45.9866 73.329L44.3384 72.5779ZM43.6816 73.4058C43.4258 73.5763 43.1287 73.6688 42.7607 73.6688V75.4801C43.4601 75.4801 44.1119 75.2958 44.6863 74.9128L43.6816 73.4058ZM42.7607 74.8277C43.3397 74.8277 43.8843 74.6702 44.3561 74.3318L43.3003 72.8601C43.1658 72.9566 42.9988 73.0165 42.7607 73.0165V74.8277ZM44.3664 74.3242C44.829 73.9824 45.1579 73.512 45.3788 72.9682L43.7008 72.2865C43.5791 72.586 43.4336 72.7614 43.2899 72.8677L44.3664 74.3242ZM45.3806 72.9636C45.6067 72.3986 45.7024 71.7532 45.7024 71.0558H43.8912C43.8912 71.5971 43.8156 71.9994 43.699 72.291L45.3806 72.9636ZM45.7024 71.0558C45.7024 70.359 45.6069 69.7146 45.3788 69.1532L43.7008 69.835C43.8154 70.117 43.8912 70.5137 43.8912 71.0558H45.7024ZM45.3806 69.1578C45.1604 68.6071 44.8293 68.1291 44.3561 67.7896L43.3003 69.2613C43.4332 69.3567 43.5766 69.5245 43.699 69.8304L45.3806 69.1578ZM44.3665 67.7972C43.8942 67.4482 43.3458 67.2838 42.7607 67.2838V69.095C42.9926 69.095 43.1559 69.1547 43.2899 69.2538L44.3665 67.7972ZM42.7607 67.2838C42.1817 67.2838 41.642 67.4519 41.1723 67.7917L42.2339 69.2592C42.3836 69.1509 42.549 69.095 42.7607 69.095V67.2838ZM41.1827 67.7843C40.7004 68.1229 40.3629 68.6023 40.1407 69.1578L41.8224 69.8304C41.9429 69.5293 42.0864 69.3629 42.2235 69.2666L41.1827 67.7843ZM40.1426 69.1532C39.9145 69.7146 39.819 70.359 39.819 71.0558H41.6302C41.6302 70.5137 41.706 70.117 41.8206 69.835L40.1426 69.1532ZM39.819 71.0558C39.819 71.7532 39.9147 72.3986 40.1407 72.9636L41.8224 72.291C41.7058 71.9994 41.6302 71.5971 41.6302 71.0558H39.819ZM40.1426 72.9682C40.3655 73.5168 40.7008 73.9886 41.1723 74.3297L42.2339 72.8622C42.0861 72.7552 41.9404 72.5812 41.8206 72.2865L40.1426 72.9682ZM41.1827 74.3371C41.6519 74.6665 42.188 74.8277 42.7607 74.8277V73.0165C42.5427 73.0165 42.3737 72.9602 42.2235 72.8548L41.1827 74.3371ZM47.5654 73.1709L46.66 73.151L46.6131 75.2841L48.18 73.836L47.5654 73.1709ZM47.5851 72.2715L46.9751 71.6021L46.6883 71.8636L46.6797 72.2516L47.5851 72.2715ZM50.8172 69.3261V68.4205H50.4664L50.2072 68.6567L50.8172 69.3261ZM51.6771 69.3261L52.3031 69.9804L53.9337 68.4205H51.6771V69.3261ZM49.3939 71.5104L49.9804 72.2004L50.0007 72.1832L50.0199 72.1648L49.3939 71.5104ZM48.9985 71.8465L48.412 71.1565L48.3977 71.1686L48.3839 71.1814L48.9985 71.8465ZM47.0119 74.5151H46.1062V75.4208H47.0119V74.5151ZM47.0119 67.1813V66.2756H46.1062V67.1813H47.0119ZM47.7136 67.1813H48.6192V66.2756H47.7136V67.1813ZM47.7136 74.5151V75.4208H48.6192V74.5151H47.7136ZM51.0346 74.5151L50.3282 75.0818L50.6001 75.4208H51.0346V74.5151ZM48.87 71.8168L48.1754 71.2358L47.6994 71.8049L48.1636 72.3835L48.87 71.8168ZM49.3247 71.2732L50.0344 70.7106L49.3435 69.8391L48.63 70.6922L49.3247 71.2732ZM51.8945 74.5151V75.4208H53.768L52.6042 73.9526L51.8945 74.5151ZM48.4708 73.1908L48.4905 72.2914L46.6797 72.2516L46.66 73.151L48.4708 73.1908ZM48.1951 72.9408L51.4272 69.9954L50.2072 68.6567L46.9751 71.6021L48.1951 72.9408ZM50.8172 70.2317H51.6771V68.4205H50.8172V70.2317ZM51.051 68.6717L48.7678 70.856L50.0199 72.1648L52.3031 69.9804L51.051 68.6717ZM48.8074 70.8204L48.412 71.1565L49.5851 72.5365L49.9804 72.2004L48.8074 70.8204ZM48.3839 71.1814L46.9507 72.5058L48.18 73.836L49.6132 72.5116L48.3839 71.1814ZM47.9175 74.5151V67.1813H46.1062V74.5151H47.9175ZM47.0119 68.0869H47.7136V66.2756H47.0119V68.0869ZM46.808 67.1813V74.5151H48.6192V67.1813H46.808ZM47.7136 73.6095H47.0119V75.4208H47.7136V73.6095ZM51.741 73.9485L49.5765 71.2501L48.1636 72.3835L50.3282 75.0818L51.741 73.9485ZM49.5647 72.3978L50.0194 71.8542L48.63 70.6922L48.1754 71.2358L49.5647 72.3978ZM48.615 71.8358L51.1848 75.0777L52.6042 73.9526L50.0344 70.7106L48.615 71.8358ZM51.8945 73.6095H51.0346V75.4208H51.8945V73.6095Z" fill="#333333" mask="url(#path-20-inside-3_3005_4171)"/>
<path d="M79.1907 175.243H573.079" stroke="#F2F2F2" stroke-width="0.905616"/>
<path d="M79.1907 148.528H573.079" stroke="#F2F2F2" stroke-width="0.905616"/>
<path d="M79.1907 121.812H573.078" stroke="#F2F2F2" stroke-width="0.905616"/>
<path d="M79.1907 95.0964H573.079" stroke="#F2F2F2" stroke-width="0.905616"/>
<path d="M79.1907 68.3806H573.078" stroke="#F2F2F2" stroke-width="0.905616"/>
<path d="M79.1907 68.3806V175.243" stroke="#F2F2F2" stroke-width="0.905616"/>
<path d="M161.472 68.3806V175.243" stroke="#F2F2F2" stroke-width="0.905616"/>
<path d="M243.754 68.3806V175.243" stroke="#F2F2F2" stroke-width="0.905616"/>
<path d="M326.035 68.3806V175.243" stroke="#F2F2F2" stroke-width="0.905616"/>
<path d="M408.317 68.3806V175.243" stroke="#F2F2F2" stroke-width="0.905616"/>
<path d="M490.599 68.3806V175.243" stroke="#F2F2F2" stroke-width="0.905616"/>
<path d="M572.88 68.3806V175.243" stroke="#F2F2F2" stroke-width="0.905616"/>
<path d="M79.3508 156.958C103.742 109.56 136.346 94.5413 161.632 116.178C183.282 134.702 213.095 175.506 243.914 157.065C274.734 138.623 281.978 70.2738 326.196 70.2737C370.413 70.2735 389.931 126.128 408.477 148.524C427.024 170.921 460.297 145.064 491.047 122.21C521.797 99.3565 538.288 84.9873 573.041 77.96" stroke="#FF8714" stroke-width="1.63011"/>
<path d="M79.3508 69.3682V175.602" stroke="#F2F2F2" stroke-width="0.905616"/>
<path d="M161.24 117.551C162.438 117.551 163.409 116.574 163.409 115.369C163.409 114.164 162.438 113.187 161.24 113.187C160.043 113.187 159.072 114.164 159.072 115.369C159.072 116.574 160.043 117.551 161.24 117.551Z" fill="#2C8AA0"/>
<path d="M79.7117 158.781C80.9091 158.781 81.8799 157.804 81.8799 156.599C81.8799 155.393 80.9091 154.416 79.7117 154.416C78.5142 154.416 77.5435 155.393 77.5435 156.599C77.5435 157.804 78.5142 158.781 79.7117 158.781Z" fill="#2C8AA0"/>
<path d="M243.679 159.028C244.876 159.028 245.847 158.051 245.847 156.845C245.847 155.64 244.876 154.663 243.679 154.663C242.481 154.663 241.511 155.64 241.511 156.845C241.511 158.051 242.481 159.028 243.679 159.028Z" fill="#2C8AA0"/>
<path d="M325.913 71.9214C327.11 71.9214 328.081 70.9443 328.081 69.7391C328.081 68.5339 327.11 67.5569 325.913 67.5569C324.715 67.5569 323.745 68.5339 323.745 69.7391C323.745 70.9443 324.715 71.9214 325.913 71.9214Z" fill="#2C8AA0"/>
<path d="M408.142 150.047C409.339 150.047 410.31 149.07 410.31 147.865C410.31 146.66 409.339 145.683 408.142 145.683C406.944 145.683 405.974 146.66 405.974 147.865C405.974 149.07 406.944 150.047 408.142 150.047Z" fill="#2C8AA0"/>
<path d="M490.088 124.764C491.286 124.764 492.257 123.787 492.257 122.582C492.257 121.377 491.286 120.4 490.088 120.4C488.891 120.4 487.92 121.377 487.92 122.582C487.92 123.787 488.891 124.764 490.088 124.764Z" fill="#2C8AA0"/>
<path d="M573.433 79.6809C574.63 79.6809 575.601 78.7039 575.601 77.4987C575.601 76.2934 574.63 75.3164 573.433 75.3164C572.235 75.3164 571.265 76.2934 571.265 77.4987C571.265 78.7039 572.235 79.6809 573.433 79.6809Z" fill="#2C8AA0"/>
<rect x="449.297" y="129.52" width="82.0983" height="37.0647" rx="4.1183" fill="#2D3748"/>
<path d="M462.703 159.759V154.241L462.967 154.521H461.344V153.994H463.296V159.759H462.703ZM464.576 158.244V157.815L467.631 153.994H468.29L465.259 157.815L464.938 157.717H469.575V158.244H464.576ZM467.829 159.759V158.244L467.846 157.717V156.382H468.422V159.759H467.829ZM470.613 156.292C470.492 156.292 470.388 156.248 470.3 156.16C470.218 156.072 470.176 155.965 470.176 155.839C470.176 155.707 470.218 155.6 470.3 155.517C470.388 155.435 470.492 155.394 470.613 155.394C470.734 155.394 470.835 155.435 470.918 155.517C471.006 155.6 471.05 155.707 471.05 155.839C471.05 155.965 471.006 156.072 470.918 156.16C470.835 156.248 470.734 156.292 470.613 156.292ZM470.613 159.8C470.492 159.8 470.388 159.757 470.3 159.669C470.218 159.581 470.176 159.474 470.176 159.347C470.176 159.216 470.218 159.109 470.3 159.026C470.388 158.944 470.492 158.903 470.613 158.903C470.734 158.903 470.835 158.944 470.918 159.026C471.006 159.109 471.05 159.216 471.05 159.347C471.05 159.474 471.006 159.581 470.918 159.669C470.835 159.757 470.734 159.8 470.613 159.8ZM473.635 159.809C473.218 159.809 472.822 159.743 472.449 159.611C472.081 159.474 471.785 159.293 471.559 159.067L471.848 158.598C472.034 158.79 472.284 158.949 472.597 159.076C472.916 159.202 473.262 159.265 473.635 159.265C474.113 159.265 474.478 159.161 474.731 158.952C474.989 158.743 475.118 158.463 475.118 158.112C475.118 157.761 474.991 157.48 474.739 157.272C474.492 157.063 474.099 156.959 473.561 156.959H473.149V156.522L474.928 154.29L475.011 154.521H471.798V153.994H475.505V154.414L473.726 156.646L473.437 156.456H473.66C474.352 156.456 474.868 156.61 475.208 156.918C475.554 157.225 475.727 157.621 475.727 158.104C475.727 158.428 475.65 158.719 475.497 158.977C475.343 159.235 475.109 159.438 474.796 159.586C474.489 159.735 474.102 159.809 473.635 159.809ZM478.861 159.809C478.416 159.809 478.021 159.693 477.675 159.463C477.329 159.227 477.057 158.892 476.859 158.458C476.662 158.019 476.563 157.491 476.563 156.876C476.563 156.261 476.662 155.737 476.859 155.303C477.057 154.864 477.329 154.529 477.675 154.298C478.021 154.062 478.416 153.944 478.861 153.944C479.306 153.944 479.701 154.062 480.047 154.298C480.393 154.529 480.665 154.864 480.862 155.303C481.065 155.737 481.167 156.261 481.167 156.876C481.167 157.491 481.065 158.019 480.862 158.458C480.665 158.892 480.393 159.227 480.047 159.463C479.701 159.693 479.306 159.809 478.861 159.809ZM478.861 159.265C479.201 159.265 479.498 159.174 479.75 158.993C480.003 158.807 480.201 158.538 480.343 158.186C480.486 157.829 480.558 157.393 480.558 156.876C480.558 156.36 480.486 155.927 480.343 155.575C480.201 155.218 480.003 154.949 479.75 154.768C479.498 154.581 479.201 154.488 478.861 154.488C478.531 154.488 478.238 154.581 477.98 154.768C477.721 154.949 477.521 155.218 477.378 155.575C477.235 155.927 477.164 156.36 477.164 156.876C477.164 157.393 477.235 157.829 477.378 158.186C477.521 158.538 477.721 158.807 477.98 158.993C478.238 159.174 478.531 159.265 478.861 159.265ZM486.838 161.357V153.648H487.382V161.357H486.838ZM494.065 159.759V154.241L494.329 154.521H492.706V153.994H494.658V159.759H494.065ZM495.937 158.244V157.815L498.993 153.994H499.652L496.621 157.815L496.3 157.717H500.937V158.244H495.937ZM499.191 159.759V158.244L499.207 157.717V156.382H499.784V159.759H499.191ZM503.226 159.759L505.861 153.994H506.463L509.098 159.759H508.456L506.034 154.348H506.281L503.86 159.759H503.226ZM504.263 158.219L504.445 157.725H507.797L507.978 158.219H504.263ZM512.161 159.8C511.787 159.8 511.45 159.715 511.148 159.545C510.846 159.369 510.604 159.12 510.423 158.796C510.247 158.466 510.159 158.065 510.159 157.593C510.159 157.121 510.247 156.723 510.423 156.399C510.598 156.069 510.837 155.819 511.139 155.649C511.441 155.479 511.782 155.394 512.161 155.394C512.572 155.394 512.94 155.487 513.264 155.674C513.594 155.855 513.852 156.113 514.039 156.448C514.225 156.778 514.319 157.159 514.319 157.593C514.319 158.032 514.225 158.417 514.039 158.746C513.852 159.076 513.594 159.334 513.264 159.52C512.94 159.707 512.572 159.8 512.161 159.8ZM509.929 161.357V155.435H510.489V156.736L510.431 157.601L510.513 158.474V161.357H509.929ZM512.119 159.282C512.427 159.282 512.702 159.213 512.943 159.076C513.185 158.933 513.377 158.735 513.52 158.483C513.662 158.225 513.734 157.928 513.734 157.593C513.734 157.258 513.662 156.964 513.52 156.712C513.377 156.459 513.185 156.261 512.943 156.119C512.702 155.976 512.427 155.905 512.119 155.905C511.812 155.905 511.535 155.976 511.288 156.119C511.046 156.261 510.854 156.459 510.711 156.712C510.574 156.964 510.505 157.258 510.505 157.593C510.505 157.928 510.574 158.225 510.711 158.483C510.854 158.735 511.046 158.933 511.288 159.076C511.535 159.213 511.812 159.282 512.119 159.282ZM515.511 159.759V155.435H516.071V156.613L516.013 156.407C516.134 156.078 516.337 155.828 516.623 155.657C516.908 155.482 517.262 155.394 517.685 155.394V155.962C517.663 155.962 517.641 155.962 517.619 155.962C517.597 155.957 517.575 155.954 517.553 155.954C517.098 155.954 516.741 156.094 516.483 156.374C516.225 156.649 516.096 157.041 516.096 157.552V159.759H515.511Z" fill="#F7FAFC"/>
<path d="M473.331 143.815V136.32L473.988 137H471.624V135.743H474.83V143.815H473.331ZM476.316 141.981V140.944L480.294 135.743H481.897L477.977 140.944L477.227 140.713H483.627V141.981H476.316ZM480.744 143.815V141.981L480.79 140.713V139.087H482.197V143.815H480.744ZM486.923 135.628C487.661 135.628 488.287 135.785 488.802 136.101C489.325 136.408 489.725 136.858 490.002 137.45C490.278 138.042 490.417 138.772 490.417 139.641C490.417 140.563 490.248 141.343 489.909 141.981C489.579 142.62 489.118 143.104 488.526 143.434C487.934 143.765 487.246 143.93 486.462 143.93C486.054 143.93 485.666 143.888 485.297 143.803C484.928 143.719 484.609 143.588 484.34 143.411L484.893 142.281C485.116 142.427 485.358 142.531 485.62 142.593C485.881 142.646 486.15 142.673 486.427 142.673C487.188 142.673 487.792 142.439 488.237 141.97C488.683 141.501 488.906 140.809 488.906 139.894C488.906 139.748 488.902 139.579 488.895 139.387C488.887 139.187 488.86 138.987 488.814 138.787L489.275 139.295C489.145 139.61 488.956 139.875 488.71 140.09C488.464 140.298 488.176 140.456 487.845 140.563C487.515 140.671 487.15 140.725 486.75 140.725C486.227 140.725 485.754 140.625 485.332 140.425C484.916 140.217 484.586 139.929 484.34 139.56C484.094 139.183 483.971 138.745 483.971 138.245C483.971 137.707 484.102 137.246 484.363 136.862C484.624 136.47 484.978 136.166 485.424 135.951C485.877 135.735 486.377 135.628 486.923 135.628ZM487.004 136.804C486.696 136.804 486.423 136.862 486.185 136.977C485.947 137.085 485.758 137.242 485.62 137.45C485.489 137.65 485.424 137.892 485.424 138.176C485.424 138.599 485.57 138.933 485.862 139.179C486.154 139.425 486.546 139.548 487.038 139.548C487.361 139.548 487.645 139.491 487.891 139.375C488.137 139.252 488.33 139.087 488.468 138.88C488.606 138.664 488.676 138.426 488.676 138.165C488.676 137.911 488.61 137.684 488.48 137.484C488.349 137.277 488.161 137.111 487.915 136.988C487.669 136.865 487.365 136.804 487.004 136.804ZM492.195 143.896C491.934 143.896 491.711 143.807 491.527 143.63C491.342 143.446 491.25 143.215 491.25 142.939C491.25 142.646 491.342 142.416 491.527 142.247C491.711 142.07 491.934 141.981 492.195 141.981C492.457 141.981 492.68 142.07 492.864 142.247C493.049 142.416 493.141 142.646 493.141 142.939C493.141 143.215 493.049 143.446 492.864 143.63C492.68 143.807 492.457 143.896 492.195 143.896ZM495.291 143.815L498.624 136.343L499.016 137.012H494.438L495.153 136.285V138.384H493.758V135.743H500.031V136.746L496.894 143.815H495.291ZM502.572 142.443L502.607 140.632L505.824 137.657H507.554L504.821 140.402L504.06 141.036L502.572 142.443ZM501.396 143.815V135.259H502.837V143.815H501.396ZM506.043 143.815L503.794 141.036L504.705 139.883L507.796 143.815H506.043Z" fill="#F7FAFC"/>
</g>
<defs>
<clipPath id="clip0_3005_4171">
<rect width="629.357" height="219.159" fill="white"/>
</clipPath>
</defs>
</svg>
