<svg width="25" height="25" viewBox="0 0 25 25" fill="none" xmlns="http://www.w3.org/2000/svg">
<path d="M20.0244 11.3095H22.0244C22.0244 6.17955 18.1514 2.31055 13.0144 2.31055V4.31055C17.0764 4.31055 20.0244 7.25355 20.0244 11.3095Z" fill="white"/>
<path d="M13.0245 8.31079C15.1275 8.31079 16.0245 9.20779 16.0245 11.3108H18.0245C18.0245 8.08579 16.2495 6.31079 13.0245 6.31079V8.31079ZM16.4465 13.7538C16.2543 13.5791 16.0018 13.486 15.7423 13.494C15.4827 13.502 15.2365 13.6106 15.0555 13.7968L12.6625 16.2578C12.0865 16.1478 10.9285 15.7868 9.73645 14.5978C8.54445 13.4048 8.18345 12.2438 8.07645 11.6718L10.5355 9.27779C10.7219 9.09691 10.8306 8.85061 10.8386 8.59099C10.8466 8.33138 10.7533 8.07883 10.5785 7.88679L6.88345 3.82379C6.70849 3.63114 6.46533 3.51429 6.2056 3.49805C5.94588 3.4818 5.69005 3.56744 5.49245 3.73679L3.32245 5.59779C3.14956 5.7713 3.04637 6.00224 3.03245 6.24679C3.01745 6.49679 2.73145 12.4188 7.32345 17.0128C11.3295 21.0178 16.3475 21.3108 17.7295 21.3108C17.9315 21.3108 18.0555 21.3048 18.0885 21.3028C18.333 21.2891 18.5638 21.1854 18.7365 21.0118L20.5965 18.8408C20.7659 18.6433 20.8517 18.3876 20.8357 18.1278C20.8196 17.8681 20.703 17.6249 20.5105 17.4498L16.4465 13.7538Z" fill="white"/>
</svg>
