<svg width="30" height="30" viewBox="0 0 30 30" fill="none" xmlns="http://www.w3.org/2000/svg">
<path d="M19.3651 9.375H19.3751M23.1151 9.375H23.1251M27.5001 9.10375C27.5001 12.4063 24.7014 15.0838 21.2501 15.0838C20.8434 15.0838 20.4405 15.0463 20.0414 14.9713C19.7539 14.9175 19.6101 14.8912 19.5101 14.9062C19.4101 14.9213 19.2676 14.9963 18.9851 15.1475C18.1763 15.5786 17.2455 15.7235 16.3439 15.5587C16.6885 15.1329 16.9221 14.6283 17.0239 14.09C17.0864 13.7588 16.9314 13.4375 16.6989 13.2025C15.6141 12.1138 15.0035 10.6406 15.0001 9.10375C15.0001 5.8025 17.7989 3.125 21.2501 3.125C24.7014 3.125 27.5001 5.8025 27.5001 9.10375ZM9.37761 26.875H5.89761C5.49386 26.875 5.08761 26.8175 4.71636 26.6587C3.50886 26.14 2.89511 25.4538 2.61011 25.025C2.53277 24.9062 2.49476 24.7661 2.50149 24.6246C2.50823 24.483 2.55935 24.3471 2.64761 24.2362C4.04761 22.3762 7.29761 21.2537 9.38386 21.2537C11.4689 21.2537 14.7139 22.3762 16.1139 24.2362C16.2901 24.47 16.3139 24.7813 16.1514 25.025C15.8651 25.4538 15.2514 26.14 14.0439 26.6587C13.6687 26.8097 13.2669 26.8833 12.8626 26.875H9.37761ZM12.8576 14.7362C12.857 15.1919 12.7666 15.643 12.5916 16.0638C12.4166 16.4845 12.1604 16.8667 11.8377 17.1884C11.5151 17.5102 11.1322 17.7652 10.7109 17.939C10.2897 18.1128 9.8383 18.2019 9.38261 18.2013C8.46275 18.2019 7.58025 17.8373 6.9291 17.1876C6.27796 16.5378 5.91144 15.6561 5.91011 14.7362C5.91061 14.2806 6.00085 13.8294 6.17569 13.4086C6.35052 12.9878 6.60654 12.6056 6.9291 12.2837C7.25167 11.9618 7.63448 11.7066 8.05567 11.5327C8.47685 11.3588 8.92818 11.2695 9.38386 11.27C9.83955 11.2695 10.2909 11.3588 10.7121 11.5327C11.1333 11.7066 11.5161 11.9618 11.8386 12.2837C12.1612 12.6056 12.4172 12.9878 12.592 13.4086C12.7669 13.8294 12.8571 14.2806 12.8576 14.7362Z" stroke="black" stroke-width="1.5" stroke-linecap="round" stroke-linejoin="round"/>
</svg>
