<svg width="62" height="61" viewBox="0 0 62 61" fill="none" xmlns="http://www.w3.org/2000/svg">
<rect width="62" height="61" rx="10" fill="#ED1C24"/>
<path d="M29.1458 18.9828C29.2904 19.2156 29.388 19.4749 29.433 19.7457C29.4781 20.0165 29.4697 20.2936 29.4084 20.5612C29.347 20.8287 29.234 21.0815 29.0756 21.3051C28.9172 21.5286 28.7167 21.7186 28.4854 21.8642C25.9576 23.4493 23.9494 25.7489 22.7115 28.4759C23.9616 28.3706 25.2141 28.6477 26.3052 29.2709C27.3963 29.8941 28.2752 30.8343 28.8268 31.9686C29.3784 33.1028 29.5771 34.3783 29.3969 35.6282C29.2167 36.878 28.666 38.044 27.8168 38.9735C26.9676 39.9031 25.8595 40.5529 24.6374 40.838C23.4154 41.1232 22.1363 41.0303 20.9676 40.5715C19.7988 40.1128 18.7948 39.3096 18.0869 38.267C17.379 37.2243 17.0002 35.9909 17 34.7279V34.6715C17.0023 34.5096 17.0092 34.3478 17.0208 34.1864C17.0395 33.8727 17.0768 33.4336 17.1495 32.8941C17.2949 31.8215 17.5795 30.3431 18.1548 28.6829C19.3012 25.3582 21.6232 21.2494 26.2838 18.3178C26.5151 18.1723 26.7726 18.0741 27.0416 18.0287C27.3106 17.9834 27.5859 17.9918 27.8516 18.0535C28.1174 18.1153 28.3685 18.2291 28.5905 18.3886C28.8126 18.548 29.0013 18.7499 29.1458 18.9828ZM43.6843 18.9828C43.8289 19.2156 43.9264 19.4749 43.9715 19.7457C44.0165 20.0165 44.0081 20.2936 43.9468 20.5612C43.8855 20.8287 43.7724 21.0815 43.614 21.3051C43.4557 21.5286 43.2551 21.7186 43.0238 21.8642C40.496 23.4493 38.4879 25.7489 37.25 28.4759C38.5001 28.3706 39.7526 28.6477 40.8437 29.2709C41.9348 29.8941 42.8136 30.8343 43.3652 31.9686C43.9169 33.1028 44.1156 34.3783 43.9354 35.6282C43.7552 36.878 43.2044 38.044 42.3553 38.9735C41.5061 39.9031 40.398 40.5529 39.1759 40.838C37.9539 41.1232 36.6748 41.0303 35.506 40.5715C34.3373 40.1128 33.3333 39.3096 32.6254 38.267C31.9175 37.2243 31.5386 35.9909 31.5385 34.7279V34.6715C31.5407 34.5096 31.5476 34.3478 31.5592 34.1864C31.5779 33.8727 31.6153 33.4336 31.688 32.8941C31.8334 31.8215 32.1179 30.3431 32.6932 28.6829C33.8397 25.3582 36.1617 21.2494 40.8223 18.3178C41.0536 18.1723 41.3111 18.0741 41.5801 18.0287C41.8491 17.9834 42.1243 17.9918 42.3901 18.0535C42.6559 18.1153 42.9069 18.2291 43.129 18.3886C43.3511 18.548 43.5397 18.7499 43.6843 18.9828Z" fill="white"/>
</svg>
