<svg width="182" height="155" viewBox="0 0 182 155" fill="none" xmlns="http://www.w3.org/2000/svg">
<g clip-path="url(#clip0_3005_4275)">
<rect x="0.5" y="0.5" width="180.549" height="153.365" rx="13.4949" fill="white" stroke="#E0E0E0"/>
<path d="M30.354 60.6333V58.2283C30.9693 57.717 31.6756 57.1233 32.473 56.4473C33.2703 55.7626 34.0806 55.039 34.904 54.2763C35.7273 53.505 36.4856 52.738 37.179 51.9753C37.8723 51.204 38.4313 50.476 38.856 49.7913C39.2893 49.098 39.506 48.4956 39.506 47.9843C39.506 47.4036 39.363 46.875 39.077 46.3983C38.7996 45.913 38.4226 45.5273 37.946 45.2413C37.4693 44.9466 36.9406 44.7993 36.36 44.7993C35.7793 44.7993 35.2463 44.9466 34.761 45.2413C34.2843 45.5273 33.8986 45.913 33.604 46.3983C33.318 46.875 33.175 47.4036 33.175 47.9843H30.471C30.471 46.8836 30.7396 45.8913 31.277 45.0073C31.823 44.1146 32.538 43.4083 33.422 42.8883C34.3146 42.3596 35.294 42.0953 36.36 42.0953C37.4346 42.0953 38.414 42.3596 39.298 42.8883C40.182 43.417 40.8883 44.1276 41.417 45.0203C41.9456 45.9043 42.21 46.8923 42.21 47.9843C42.21 48.591 42.0843 49.215 41.833 49.8563C41.5816 50.4976 41.2306 51.152 40.78 51.8193C40.338 52.4866 39.8223 53.1626 39.233 53.8473C38.6436 54.532 38.011 55.2166 37.335 55.9013C36.659 56.586 35.97 57.262 35.268 57.9293H42.366V60.6333H30.354ZM51.0924 60.9713C50.0178 60.9713 49.0471 60.7286 48.1804 60.2433C47.3224 59.7493 46.5814 59.069 45.9574 58.2023C45.3334 57.3356 44.8568 56.3346 44.5274 55.1993C44.1981 54.0553 44.0334 52.8333 44.0334 51.5333C44.0334 50.2333 44.1981 49.0113 44.5274 47.8673C44.8568 46.7233 45.3334 45.7223 45.9574 44.8643C46.5814 43.9976 47.3224 43.3216 48.1804 42.8363C49.0471 42.3423 50.0178 42.0953 51.0924 42.0953C52.1498 42.0953 53.1118 42.3423 53.9784 42.8363C54.8451 43.3216 55.5818 43.9976 56.1884 44.8643C56.8038 45.7223 57.2761 46.7233 57.6054 47.8673C57.9348 49.0113 58.0994 50.2333 58.0994 51.5333C58.0994 52.8333 57.9348 54.0553 57.6054 55.1993C57.2761 56.3346 56.8038 57.3356 56.1884 58.2023C55.5818 59.069 54.8451 59.7493 53.9784 60.2433C53.1118 60.7286 52.1498 60.9713 51.0924 60.9713ZM51.0924 58.2673C52.0891 58.2673 52.9168 57.9553 53.5754 57.3313C54.2428 56.6986 54.7411 55.871 55.0704 54.8483C55.3998 53.8256 55.5644 52.7206 55.5644 51.5333C55.5644 50.2853 55.3911 49.1543 55.0444 48.1403C54.7064 47.1176 54.2038 46.3073 53.5364 45.7093C52.8778 45.1026 52.0631 44.7993 51.0924 44.7993C50.3211 44.7993 49.6494 44.9813 49.0774 45.3453C48.5141 45.7093 48.0461 46.2076 47.6734 46.8403C47.3094 47.473 47.0321 48.1923 46.8414 48.9983C46.6594 49.8043 46.5684 50.6493 46.5684 51.5333C46.5684 52.7206 46.7374 53.8256 47.0754 54.8483C47.4134 55.871 47.9161 56.6986 48.5834 57.3313C49.2594 57.9553 50.0958 58.2673 51.0924 58.2673ZM65.4207 60.9713C64.32 60.9713 63.332 60.7156 62.4567 60.2043C61.59 59.693 60.9053 59.0083 60.4027 58.1503C59.9 57.2923 59.6487 56.339 59.6487 55.2903H62.3527C62.3527 55.8363 62.4827 56.3346 62.7427 56.7853C63.0027 57.236 63.3623 57.5956 63.8217 57.8643C64.281 58.133 64.814 58.2673 65.4207 58.2673C65.9667 58.2673 66.4737 58.133 66.9417 57.8643C67.4097 57.5956 67.7867 57.236 68.0727 56.7853C68.3587 56.3346 68.5017 55.8363 68.5017 55.2903C68.5017 54.597 68.3197 54.0163 67.9557 53.5483C67.5917 53.0803 67.0847 52.7336 66.4347 52.5083C65.7933 52.2743 65.0523 52.1573 64.2117 52.1573V50.0253C65.3557 50.0253 66.27 49.8 66.9547 49.3493C67.6393 48.8986 67.9817 48.227 67.9817 47.3343C67.9817 46.8663 67.856 46.4416 67.6047 46.0603C67.362 45.6703 67.037 45.3626 66.6297 45.1373C66.231 44.9033 65.802 44.7863 65.3427 44.7863C64.866 44.7863 64.4067 44.9033 63.9647 45.1373C63.5313 45.3626 63.176 45.6703 62.8987 46.0603C62.6213 46.4416 62.4827 46.8663 62.4827 47.3343H59.7787C59.7787 46.615 59.926 45.939 60.2207 45.3063C60.524 44.665 60.9313 44.106 61.4427 43.6293C61.9627 43.144 62.552 42.767 63.2107 42.4983C63.878 42.221 64.5757 42.0823 65.3037 42.0823C66.257 42.0823 67.141 42.3206 67.9557 42.7973C68.779 43.2653 69.4377 43.898 69.9317 44.6953C70.4343 45.484 70.6857 46.3636 70.6857 47.3343C70.6857 48.1056 70.495 48.838 70.1137 49.5313C69.741 50.216 69.221 50.7013 68.5537 50.9873C69.1343 51.1953 69.6197 51.5246 70.0097 51.9753C70.4083 52.4173 70.7073 52.9286 70.9067 53.5093C71.106 54.0813 71.2057 54.675 71.2057 55.2903C71.2057 56.3303 70.9413 57.2836 70.4127 58.1503C69.884 59.0083 69.1777 59.693 68.2937 60.2043C67.4183 60.7156 66.4607 60.9713 65.4207 60.9713ZM84.6706 60.6333H81.5506L78.3526 55.1213L76.2596 57.6173V60.6333H73.5556V41.1333H76.2596V53.4183L81.0956 47.6333H84.6316L80.1986 52.9243L84.6706 60.6333Z" fill="#333333"/>
<path d="M27.5774 21.622V22.87H24.9014V30.022H23.6534V22.87H20.9834V21.622H27.5774ZM30.5079 30.178C29.9559 30.178 29.4519 30.036 28.9959 29.752C28.5439 29.468 28.1819 29.088 27.9099 28.612C27.6419 28.132 27.5079 27.602 27.5079 27.022C27.5079 26.582 27.5859 26.172 27.7419 25.792C27.8979 25.408 28.1119 25.072 28.3839 24.784C28.6599 24.492 28.9799 24.264 29.3439 24.1C29.7079 23.936 30.0959 23.854 30.5079 23.854C31.0599 23.854 31.5619 23.996 32.0139 24.28C32.4699 24.564 32.8319 24.946 33.0999 25.426C33.3719 25.906 33.5079 26.438 33.5079 27.022C33.5079 27.458 33.4299 27.866 33.2739 28.246C33.1179 28.626 32.9019 28.962 32.6259 29.254C32.3539 29.542 32.0359 29.768 31.6719 29.932C31.3119 30.096 30.9239 30.178 30.5079 30.178ZM30.5079 28.93C30.8399 28.93 31.1379 28.842 31.4019 28.666C31.6659 28.49 31.8739 28.258 32.0259 27.97C32.1819 27.678 32.2599 27.362 32.2599 27.022C32.2599 26.674 32.1799 26.354 32.0199 26.062C31.8639 25.77 31.6539 25.538 31.3899 25.366C31.1259 25.19 30.8319 25.102 30.5079 25.102C30.1799 25.102 29.8819 25.19 29.6139 25.366C29.3499 25.542 29.1399 25.776 28.9839 26.068C28.8319 26.36 28.7559 26.678 28.7559 27.022C28.7559 27.378 28.8359 27.7 28.9959 27.988C29.1559 28.276 29.3679 28.506 29.6319 28.678C29.8999 28.846 30.1919 28.93 30.5079 28.93ZM37.6102 25.27H36.3502L36.3442 30.022H35.0962L35.1022 25.27H34.1482V24.022H35.1022L35.0962 22.138H36.3442L36.3502 24.022H37.6102V25.27ZM43.2117 24.022H44.4597V30.022H43.2057L43.1577 29.152C42.9817 29.46 42.7437 29.708 42.4437 29.896C42.1437 30.084 41.7897 30.178 41.3817 30.178C40.9417 30.178 40.5277 30.096 40.1397 29.932C39.7517 29.764 39.4097 29.532 39.1137 29.236C38.8217 28.94 38.5937 28.6 38.4297 28.216C38.2657 27.828 38.1837 27.412 38.1837 26.968C38.1837 26.54 38.2637 26.138 38.4237 25.762C38.5837 25.382 38.8057 25.05 39.0897 24.766C39.3737 24.482 39.7017 24.26 40.0737 24.1C40.4497 23.936 40.8517 23.854 41.2797 23.854C41.7157 23.854 42.0997 23.954 42.4317 24.154C42.7677 24.35 43.0457 24.602 43.2657 24.91L43.2117 24.022ZM41.3517 28.972C41.7037 28.972 42.0117 28.886 42.2757 28.714C42.5397 28.538 42.7437 28.302 42.8877 28.006C43.0357 27.71 43.1097 27.382 43.1097 27.022C43.1097 26.658 43.0357 26.328 42.8877 26.032C42.7397 25.736 42.5337 25.502 42.2697 25.33C42.0097 25.154 41.7037 25.066 41.3517 25.066C41.0037 25.066 40.6857 25.154 40.3977 25.33C40.1097 25.506 39.8817 25.742 39.7137 26.038C39.5457 26.334 39.4617 26.662 39.4617 27.022C39.4617 27.386 39.5477 27.716 39.7197 28.012C39.8957 28.304 40.1257 28.538 40.4097 28.714C40.6977 28.886 41.0117 28.972 41.3517 28.972ZM45.7039 30.022V21.022H46.9519V30.022H45.7039ZM51.2703 30.022V21.622H54.3603C54.8163 21.622 55.2263 21.734 55.5903 21.958C55.9543 22.182 56.2423 22.484 56.4543 22.864C56.6703 23.24 56.7783 23.66 56.7783 24.124C56.7783 24.516 56.7043 24.874 56.5563 25.198C56.4123 25.522 56.2083 25.798 55.9443 26.026C55.6843 26.254 55.3863 26.418 55.0503 26.518L57.0783 30.022H55.6323L53.6643 26.632H52.5183V30.022H51.2703ZM52.5183 25.384H54.2283C54.4683 25.384 54.6863 25.324 54.8823 25.204C55.0823 25.084 55.2403 24.924 55.3563 24.724C55.4723 24.524 55.5303 24.298 55.5303 24.046C55.5303 23.794 55.4723 23.568 55.3563 23.368C55.2403 23.164 55.0823 23.004 54.8823 22.888C54.6863 22.768 54.4683 22.708 54.2283 22.708H52.5183V25.384ZM60.5783 30.178C60.0263 30.178 59.5223 30.036 59.0663 29.752C58.6143 29.468 58.2523 29.088 57.9803 28.612C57.7123 28.132 57.5783 27.602 57.5783 27.022C57.5783 26.582 57.6563 26.172 57.8123 25.792C57.9683 25.408 58.1823 25.072 58.4543 24.784C58.7303 24.492 59.0503 24.264 59.4143 24.1C59.7783 23.936 60.1663 23.854 60.5783 23.854C61.0383 23.854 61.4603 23.95 61.8443 24.142C62.2283 24.33 62.5563 24.592 62.8283 24.928C63.1003 25.26 63.3003 25.644 63.4283 26.08C63.5563 26.512 63.5943 26.972 63.5423 27.46H58.9163C58.9683 27.736 59.0683 27.986 59.2163 28.21C59.3683 28.43 59.5603 28.604 59.7923 28.732C60.0283 28.86 60.2903 28.926 60.5783 28.93C60.8823 28.93 61.1583 28.854 61.4063 28.702C61.6583 28.55 61.8643 28.34 62.0243 28.072L63.2903 28.366C63.0503 28.898 62.6883 29.334 62.2043 29.674C61.7203 30.01 61.1783 30.178 60.5783 30.178ZM58.8743 26.506H62.2823C62.2423 26.218 62.1403 25.958 61.9763 25.726C61.8163 25.49 61.6143 25.304 61.3703 25.168C61.1303 25.028 60.8663 24.958 60.5783 24.958C60.2943 24.958 60.0303 25.026 59.7863 25.162C59.5463 25.298 59.3463 25.484 59.1863 25.72C59.0303 25.952 58.9263 26.214 58.8743 26.506ZM67.6867 30.022H66.0847L63.8947 24.01H65.2267L66.8827 28.582L68.5447 24.01H69.8707L67.6867 30.022ZM73.1994 30.178C72.6474 30.178 72.1434 30.036 71.6874 29.752C71.2354 29.468 70.8734 29.088 70.6014 28.612C70.3334 28.132 70.1994 27.602 70.1994 27.022C70.1994 26.582 70.2774 26.172 70.4334 25.792C70.5894 25.408 70.8034 25.072 71.0754 24.784C71.3514 24.492 71.6714 24.264 72.0354 24.1C72.3994 23.936 72.7874 23.854 73.1994 23.854C73.6594 23.854 74.0814 23.95 74.4654 24.142C74.8494 24.33 75.1774 24.592 75.4494 24.928C75.7214 25.26 75.9214 25.644 76.0494 26.08C76.1774 26.512 76.2154 26.972 76.1634 27.46H71.5374C71.5894 27.736 71.6894 27.986 71.8374 28.21C71.9894 28.43 72.1814 28.604 72.4134 28.732C72.6494 28.86 72.9114 28.926 73.1994 28.93C73.5034 28.93 73.7794 28.854 74.0274 28.702C74.2794 28.55 74.4854 28.34 74.6454 28.072L75.9114 28.366C75.6714 28.898 75.3094 29.334 74.8254 29.674C74.3414 30.01 73.7994 30.178 73.1994 30.178ZM71.4954 26.506H74.9034C74.8634 26.218 74.7614 25.958 74.5974 25.726C74.4374 25.49 74.2354 25.304 73.9914 25.168C73.7514 25.028 73.4874 24.958 73.1994 24.958C72.9154 24.958 72.6514 25.026 72.4074 25.162C72.1674 25.298 71.9674 25.484 71.8074 25.72C71.6514 25.952 71.5474 26.214 71.4954 26.506ZM82.557 26.26V30.022H81.309V26.566C81.309 26.298 81.243 26.054 81.111 25.834C80.983 25.614 80.809 25.44 80.589 25.312C80.373 25.18 80.129 25.114 79.857 25.114C79.593 25.114 79.351 25.18 79.131 25.312C78.911 25.44 78.735 25.614 78.603 25.834C78.471 26.054 78.405 26.298 78.405 26.566V30.022H77.157V24.022H78.405V24.658C78.613 24.41 78.869 24.214 79.173 24.07C79.477 23.926 79.805 23.854 80.157 23.854C80.601 23.854 81.005 23.962 81.369 24.178C81.733 24.394 82.021 24.684 82.233 25.048C82.449 25.412 82.557 25.816 82.557 26.26ZM83.5147 27.772V24.022H84.7627V27.466C84.7627 27.734 84.8287 27.978 84.9607 28.198C85.0927 28.418 85.2687 28.594 85.4887 28.726C85.7087 28.854 85.9507 28.918 86.2147 28.918C86.4827 28.918 86.7247 28.854 86.9407 28.726C87.1607 28.594 87.3347 28.418 87.4627 28.198C87.5947 27.978 87.6607 27.734 87.6607 27.466V24.022H88.9087L88.9147 30.022H87.6667L87.6607 29.374C87.4567 29.622 87.2027 29.818 86.8987 29.962C86.5947 30.106 86.2687 30.178 85.9207 30.178C85.4767 30.178 85.0727 30.07 84.7087 29.854C84.3447 29.638 84.0547 29.348 83.8387 28.984C83.6227 28.62 83.5147 28.216 83.5147 27.772ZM92.6759 30.178C92.1239 30.178 91.6199 30.036 91.1639 29.752C90.7119 29.468 90.3499 29.088 90.0779 28.612C89.8099 28.132 89.6759 27.602 89.6759 27.022C89.6759 26.582 89.7539 26.172 89.9099 25.792C90.0659 25.408 90.2799 25.072 90.5519 24.784C90.8279 24.492 91.1479 24.264 91.5119 24.1C91.8759 23.936 92.2639 23.854 92.6759 23.854C93.1359 23.854 93.5579 23.95 93.9419 24.142C94.3259 24.33 94.6539 24.592 94.9259 24.928C95.1979 25.26 95.3979 25.644 95.5259 26.08C95.6539 26.512 95.6919 26.972 95.6399 27.46H91.0139C91.0659 27.736 91.1659 27.986 91.3139 28.21C91.4659 28.43 91.6579 28.604 91.8899 28.732C92.1259 28.86 92.3879 28.926 92.6759 28.93C92.9799 28.93 93.2559 28.854 93.5039 28.702C93.7559 28.55 93.9619 28.34 94.1219 28.072L95.3879 28.366C95.1479 28.898 94.7859 29.334 94.3019 29.674C93.8179 30.01 93.2759 30.178 92.6759 30.178ZM90.9719 26.506H94.3799C94.3399 26.218 94.2379 25.958 94.0739 25.726C93.9139 25.49 93.7119 25.304 93.4679 25.168C93.2279 25.028 92.9639 24.958 92.6759 24.958C92.3919 24.958 92.1279 25.026 91.8839 25.162C91.6439 25.298 91.4439 25.484 91.2839 25.72C91.1279 25.952 91.0239 26.214 90.9719 26.506Z" fill="#333333"/>
<path d="M117.644 54.9634V49.0034H116.809L117.094 47.9634H118.684V54.9634H117.644ZM119.885 54.9634V54.0384C120.122 53.8417 120.394 53.6134 120.7 53.3534C121.007 53.09 121.319 52.8117 121.635 52.5184C121.952 52.2217 122.244 51.9267 122.51 51.6334C122.777 51.3367 122.992 51.0567 123.155 50.7934C123.322 50.5267 123.405 50.295 123.405 50.0984C123.405 49.875 123.35 49.6717 123.24 49.4884C123.134 49.3017 122.989 49.1534 122.805 49.0434C122.622 48.93 122.419 48.8734 122.195 48.8734C121.972 48.8734 121.767 48.93 121.58 49.0434C121.397 49.1534 121.249 49.3017 121.135 49.4884C121.025 49.6717 120.97 49.875 120.97 50.0984H119.93C119.93 49.675 120.034 49.2934 120.24 48.9534C120.45 48.61 120.725 48.3384 121.065 48.1384C121.409 47.935 121.785 47.8334 122.195 47.8334C122.609 47.8334 122.985 47.935 123.325 48.1384C123.665 48.3417 123.937 48.615 124.14 48.9584C124.344 49.2984 124.445 49.6784 124.445 50.0984C124.445 50.3317 124.397 50.5717 124.3 50.8184C124.204 51.065 124.069 51.3167 123.895 51.5734C123.725 51.83 123.527 52.09 123.3 52.3534C123.074 52.6167 122.83 52.88 122.57 53.1434C122.31 53.4067 122.045 53.6667 121.775 53.9234H124.505V54.9634H119.885ZM126.046 55.0934C125.892 55.0934 125.762 55.04 125.656 54.9334C125.552 54.8267 125.501 54.6967 125.501 54.5434C125.501 54.3934 125.552 54.265 125.656 54.1584C125.762 54.0517 125.892 53.9984 126.046 53.9984C126.199 53.9984 126.329 54.0517 126.436 54.1584C126.542 54.265 126.596 54.3934 126.596 54.5434C126.596 54.6967 126.542 54.8267 126.436 54.9334C126.329 55.04 126.199 55.0934 126.046 55.0934ZM129.915 55.0934C129.472 55.0934 129.07 54.9867 128.71 54.7734C128.354 54.5567 128.07 54.27 127.86 53.9134C127.654 53.5534 127.55 53.16 127.55 52.7334H128.59C128.59 52.9767 128.65 53.1984 128.77 53.3984C128.89 53.5984 129.05 53.7584 129.25 53.8784C129.45 53.995 129.672 54.0534 129.915 54.0534C130.155 54.0534 130.375 53.995 130.575 53.8784C130.775 53.7584 130.935 53.5984 131.055 53.3984C131.175 53.1984 131.235 52.9767 131.235 52.7334C131.235 52.49 131.18 52.2684 131.07 52.0684C130.96 51.865 130.795 51.7034 130.575 51.5834C130.355 51.46 130.075 51.3984 129.735 51.3984H127.97L128.68 47.9634H132.065V49.0034H129.525L129.25 50.3584L129.855 50.3684C130.332 50.3784 130.75 50.4884 131.11 50.6984C131.474 50.905 131.759 51.185 131.965 51.5384C132.172 51.8884 132.275 52.2867 132.275 52.7334C132.275 53.0567 132.214 53.3617 132.09 53.6484C131.967 53.9317 131.797 54.1817 131.58 54.3984C131.367 54.615 131.117 54.785 130.83 54.9084C130.547 55.0317 130.242 55.0934 129.915 55.0934ZM133.824 54.9634L137.864 47.9634H139.064L135.024 54.9634H133.824ZM134.669 50.8984C134.416 50.8984 134.182 50.8367 133.969 50.7134C133.759 50.5867 133.591 50.4184 133.464 50.2084C133.337 49.995 133.274 49.76 133.274 49.5034C133.274 49.2367 133.337 48.9984 133.464 48.7884C133.594 48.5784 133.764 48.4134 133.974 48.2934C134.187 48.17 134.419 48.1084 134.669 48.1084C134.926 48.1084 135.159 48.1717 135.369 48.2984C135.579 48.4217 135.747 48.5884 135.874 48.7984C136.001 49.0084 136.064 49.2434 136.064 49.5034C136.064 49.7667 135.999 50.0034 135.869 50.2134C135.742 50.4234 135.572 50.59 135.359 50.7134C135.149 50.8367 134.919 50.8984 134.669 50.8984ZM134.669 50.1634C134.856 50.1634 135.012 50.1 135.139 49.9734C135.266 49.8434 135.329 49.6867 135.329 49.5034C135.329 49.3167 135.266 49.16 135.139 49.0334C135.012 48.9034 134.856 48.8384 134.669 48.8384C134.486 48.8384 134.329 48.9034 134.199 49.0334C134.072 49.16 134.009 49.3167 134.009 49.5034C134.009 49.6867 134.072 49.8434 134.199 49.9734C134.329 50.1 134.486 50.1634 134.669 50.1634ZM138.229 54.8284C137.969 54.8284 137.732 54.7634 137.519 54.6334C137.309 54.5 137.141 54.3284 137.014 54.1184C136.891 53.905 136.829 53.675 136.829 53.4284C136.829 53.1684 136.894 52.9334 137.024 52.7234C137.154 52.51 137.324 52.3417 137.534 52.2184C137.747 52.0917 137.979 52.0284 138.229 52.0284C138.492 52.0284 138.729 52.0934 138.939 52.2234C139.149 52.3534 139.316 52.525 139.439 52.7384C139.562 52.9517 139.624 53.1817 139.624 53.4284C139.624 53.685 139.561 53.92 139.434 54.1334C139.311 54.3434 139.142 54.5117 138.929 54.6384C138.719 54.765 138.486 54.8284 138.229 54.8284ZM138.229 54.0934C138.409 54.0934 138.564 54.0284 138.694 53.8984C138.824 53.7684 138.889 53.6117 138.889 53.4284C138.889 53.245 138.824 53.0884 138.694 52.9584C138.564 52.8284 138.409 52.7634 138.229 52.7634C138.046 52.7634 137.887 52.8284 137.754 52.9584C137.624 53.0884 137.559 53.245 137.559 53.4284C137.559 53.6117 137.624 53.7684 137.754 53.8984C137.887 54.0284 138.046 54.0934 138.229 54.0934Z" fill="#27AE60"/>
<path d="M112.376 46.75V51.25C112.376 51.7 112.076 52 111.626 52C111.176 52 110.876 51.7 110.876 51.25V48.55L105.026 54.4C104.726 54.7 104.276 54.7 103.976 54.4L100.751 51.175L95.6507 56.275C95.5007 56.425 95.3507 56.5 95.1257 56.5C94.9007 56.5 94.7507 56.425 94.6007 56.275C94.3007 55.975 94.3007 55.525 94.6007 55.225L100.226 49.6C100.526 49.3 100.976 49.3 101.276 49.6L104.501 52.825L109.826 47.5H107.126C106.676 47.5 106.376 47.2 106.376 46.75C106.376 46.3 106.676 46 107.126 46H111.626C111.701 46 111.851 46 111.926 46.075C112.076 46.15 112.226 46.3 112.301 46.45C112.376 46.525 112.376 46.675 112.376 46.75Z" fill="#27AE60"/>
<path d="M146.293 131.485H33.8595" stroke="#E4E4E4" stroke-opacity="0.4" stroke-width="0.429134" stroke-linecap="square"/>
<path d="M146.293 115.606H33.8595" stroke="#E4E4E4" stroke-opacity="0.4" stroke-width="0.429134" stroke-linecap="square"/>
<path d="M146.292 99.7287H33.859" stroke="#E4E4E4" stroke-opacity="0.4" stroke-width="0.429134" stroke-linecap="square"/>
<path d="M39.4385 89.2898L49.6967 97.1145C51.2704 98.3149 53.461 98.2833 54.9994 97.0379L59.8243 93.132C62.1346 91.2618 65.6006 92.2498 66.5774 95.0571L76.586 123.82C77.898 127.591 83.1965 127.684 84.64 123.961L90.531 108.771C91.7993 105.501 96.2425 105.051 98.1407 108L99.7307 110.471C101.5 113.221 105.572 113.061 107.12 110.18L109.875 105.052C110.454 103.975 111.464 103.196 112.653 102.911L119.835 101.185C120.581 101.006 121.265 100.63 121.816 100.097L131.795 90.4454C132.564 89.7019 133.582 89.2722 134.651 89.2405L146.293 88.8954" stroke="#6FCF97" stroke-width="1.49644" stroke-linejoin="round"/>
</g>
<defs>
<clipPath id="clip0_3005_4275">
<rect width="181.549" height="154.365" fill="white"/>
</clipPath>
</defs>
</svg>
