<svg width="64" height="65" viewBox="0 0 64 65" fill="none" xmlns="http://www.w3.org/2000/svg">
<rect x="12" y="52.5" width="40" height="40" rx="20" transform="rotate(-90 12 52.5)" fill="white"/>
<rect x="12" y="52.5" width="40" height="40" rx="20" transform="rotate(-90 12 52.5)" stroke="#EFEFEF" stroke-width="2"/>
<g clip-path="url(#clip0_1480_6476)">
<path d="M43.9375 32.263C44.2111 31.9893 44.3647 31.6183 44.3647 31.2314C44.3647 30.8444 44.2111 30.4734 43.9375 30.1997L35.6832 21.9455C35.5486 21.8061 35.3876 21.6949 35.2096 21.6185C35.0316 21.542 34.8401 21.5017 34.6464 21.5001C34.4526 21.4984 34.2605 21.5353 34.0812 21.6087C33.9019 21.682 33.7389 21.7904 33.6019 21.9274C33.4649 22.0644 33.3566 22.2273 33.2832 22.4066C33.2099 22.5859 33.1729 22.7781 33.1746 22.9718C33.1763 23.1656 33.2166 23.357 33.293 23.535C33.3695 23.7131 33.4807 23.8741 33.62 24.0087L39.3836 29.7722L20.0603 29.7722C19.6734 29.7722 19.3022 29.926 19.0286 30.1996C18.7549 30.4732 18.6012 30.8444 18.6012 31.2314C18.6012 31.6183 18.7549 31.9895 19.0286 32.2631C19.3022 32.5368 19.6734 32.6905 20.0603 32.6905L39.3836 32.6905L33.62 38.454C33.3542 38.7292 33.2072 39.0978 33.2105 39.4804C33.2138 39.863 33.3673 40.2289 33.6378 40.4995C33.9083 40.77 34.2743 40.9235 34.6569 40.9268C35.0395 40.9301 35.408 40.783 35.6832 40.5173L43.9375 32.263Z" fill="#ED1C24"/>
</g>
<defs>
<clipPath id="clip0_1480_6476">
<rect width="44.854" height="44.854" fill="white" transform="translate(30.4551 0.820312) rotate(42.2077)"/>
</clipPath>
</defs>
</svg>
