<svg width="47" height="49" viewBox="0 0 47 49" fill="none" xmlns="http://www.w3.org/2000/svg">
<rect y="0.5" width="47" height="48" rx="10" fill="#ED1C24"/>
<path fill-rule="evenodd" clip-rule="evenodd" d="M23.5268 12.125C20.4214 12.125 17.5923 13.1508 15.9183 13.9888C15.767 14.0644 15.6258 14.1382 15.4948 14.2102C15.2349 14.3518 15.0135 14.4838 14.8375 14.6L16.7419 17.4036L17.6384 17.7604C21.1419 19.528 25.8403 19.528 29.3444 17.7604L30.3619 17.2324L32.1625 14.6C31.7891 14.3574 31.4013 14.1377 31.0013 13.9421C29.3355 13.1129 26.5738 12.125 23.5275 12.125M19.0986 15.2985C18.4244 15.1716 17.7584 15.0045 17.1042 14.798C18.6724 14.1016 21.0092 13.3625 23.5275 13.3625C25.2717 13.3625 26.921 13.7173 28.285 14.1669C26.6866 14.3917 24.9809 14.7733 23.3556 15.2428C22.0769 15.6127 20.5823 15.5728 19.0986 15.2985ZM30.0711 18.78L29.902 18.8653C26.0479 20.8095 20.9356 20.8095 17.0815 18.8653L16.9213 18.7841C11.1305 25.1373 6.70988 36.8729 23.5268 36.8729C40.3438 36.8729 35.8159 24.9194 30.0711 18.78ZM22.8125 24.5C22.4478 24.5 22.0981 24.6449 21.8402 24.9027C21.5824 25.1606 21.4375 25.5103 21.4375 25.875C21.4375 26.2397 21.5824 26.5894 21.8402 26.8473C22.0981 27.1051 22.4478 27.25 22.8125 27.25V24.5ZM24.1875 23.125V22.4375H22.8125V23.125C22.0832 23.125 21.3837 23.4147 20.868 23.9305C20.3522 24.4462 20.0625 25.1457 20.0625 25.875C20.0625 26.6043 20.3522 27.3038 20.868 27.8195C21.3837 28.3353 22.0832 28.625 22.8125 28.625V31.375C22.2144 31.375 21.7049 30.9934 21.5152 30.4586C21.487 30.3711 21.4416 30.2901 21.3816 30.2204C21.3216 30.1508 21.2483 30.0939 21.1659 30.0531C21.0835 30.0123 20.9938 29.9884 20.9021 29.9829C20.8103 29.9773 20.7184 29.9903 20.6317 30.0209C20.545 30.0515 20.4654 30.0992 20.3974 30.1611C20.3295 30.2231 20.2747 30.298 20.2363 30.3815C20.1978 30.465 20.1765 30.5554 20.1736 30.6473C20.1707 30.7391 20.1862 30.8307 20.2193 30.9164C20.4088 31.4527 20.76 31.917 21.2244 32.2454C21.6889 32.5738 22.2437 32.7501 22.8125 32.75V33.4375H24.1875V32.75C24.9169 32.75 25.6163 32.4603 26.132 31.9445C26.6478 31.4288 26.9375 30.7293 26.9375 30C26.9375 29.2707 26.6478 28.5712 26.132 28.0555C25.6163 27.5397 24.9169 27.25 24.1875 27.25V24.5C24.7856 24.5 25.2951 24.8816 25.4848 25.4164C25.513 25.5039 25.5584 25.5849 25.6184 25.6546C25.6784 25.7242 25.7517 25.7811 25.8341 25.8219C25.9165 25.8627 26.0062 25.8866 26.0979 25.8921C26.1897 25.8977 26.2816 25.8847 26.3683 25.8541C26.455 25.8235 26.5346 25.7758 26.6026 25.7139C26.6705 25.6519 26.7253 25.577 26.7637 25.4935C26.8022 25.41 26.8235 25.3196 26.8264 25.2277C26.8294 25.1359 26.8138 25.0443 26.7808 24.9586C26.5912 24.4223 26.24 23.958 25.7756 23.6296C25.3111 23.3012 24.7563 23.1249 24.1875 23.125ZM24.1875 28.625V31.375C24.5522 31.375 24.9019 31.2301 25.1598 30.9723C25.4176 30.7144 25.5625 30.3647 25.5625 30C25.5625 29.6353 25.4176 29.2856 25.1598 29.0277C24.9019 28.7699 24.5522 28.625 24.1875 28.625Z" fill="white"/>
</svg>
