<svg width="59" height="58" viewBox="0 0 59 58" fill="none" xmlns="http://www.w3.org/2000/svg">
<rect y="0.5" width="59" height="57" rx="12" fill="#ED1C24"/>
<path fill-rule="evenodd" clip-rule="evenodd" d="M29.5349 12.875C25.4884 12.875 21.8021 14.2116 19.6207 15.3036C19.4237 15.4021 19.2397 15.4983 19.0689 15.5921C18.7303 15.7766 18.4418 15.9486 18.2125 16.1L20.6939 19.7532L21.8621 20.2181C26.4273 22.5213 32.5494 22.5213 37.1155 20.2181L38.4413 19.5301L40.7875 16.1C40.301 15.7839 39.7957 15.4976 39.2744 15.2427C37.1038 14.1623 33.5053 12.875 29.5358 12.875M23.7649 17.0102C22.8864 16.8448 22.0185 16.6271 21.1661 16.358C23.2094 15.4505 26.2544 14.4875 29.5358 14.4875C31.8086 14.4875 33.9577 14.9498 35.735 15.5356C33.6522 15.8286 31.4296 16.3257 29.3119 16.9376C27.6456 17.4196 25.6981 17.3676 23.7649 17.0102ZM38.0624 21.5467L37.842 21.6578C32.82 24.1912 26.1585 24.1912 21.1365 21.6578L20.9278 21.552C13.3822 29.8304 7.62195 45.1223 29.5349 45.1223C51.4479 45.1223 45.5479 29.5465 38.0624 21.5467ZM28.6042 29C28.129 29 27.6733 29.1888 27.3373 29.5248C27.0013 29.8608 26.8125 30.3165 26.8125 30.7917C26.8125 31.2668 27.0013 31.7226 27.3373 32.0586C27.6733 32.3946 28.129 32.5833 28.6042 32.5833V29ZM30.3958 27.2083V26.3125H28.6042V27.2083C27.6538 27.2083 26.7424 27.5859 26.0704 28.2579C25.3984 28.9299 25.0208 29.8413 25.0208 30.7917C25.0208 31.742 25.3984 32.6535 26.0704 33.3255C26.7424 33.9975 27.6538 34.375 28.6042 34.375V37.9583C27.8248 37.9583 27.161 37.4611 26.9137 36.7642C26.877 36.6502 26.8179 36.5447 26.7397 36.4539C26.6615 36.3631 26.5659 36.289 26.4586 36.2358C26.3513 36.1826 26.2344 36.1515 26.1148 36.1443C25.9952 36.1371 25.8754 36.154 25.7625 36.1939C25.6496 36.2338 25.5458 36.2959 25.4573 36.3766C25.3688 36.4574 25.2973 36.555 25.2472 36.6638C25.1971 36.7726 25.1694 36.8903 25.1655 37.0101C25.1617 37.1298 25.182 37.2491 25.2251 37.3608C25.4721 38.0596 25.9297 38.6646 26.5348 39.0925C27.14 39.5204 27.863 39.7501 28.6042 39.75V40.6458H30.3958V39.75C31.3462 39.75 32.2576 39.3725 32.9296 38.7005C33.6016 38.0285 33.9792 37.117 33.9792 36.1667C33.9792 35.2163 33.6016 34.3049 32.9296 33.6329C32.2576 32.9609 31.3462 32.5833 30.3958 32.5833V29C31.1752 29 31.839 29.4972 32.0863 30.1941C32.1229 30.3082 32.1821 30.4137 32.2603 30.5044C32.3385 30.5952 32.434 30.6694 32.5414 30.7225C32.6487 30.7757 32.7656 30.8068 32.8852 30.814C33.0047 30.8212 33.1245 30.8044 33.2375 30.7645C33.3504 30.7246 33.4542 30.6624 33.5427 30.5817C33.6312 30.501 33.7026 30.4033 33.7527 30.2945C33.8028 30.1857 33.8306 30.068 33.8344 29.9483C33.8382 29.8286 33.818 29.7093 33.7749 29.5975C33.5279 28.8987 33.0703 28.2937 32.4651 27.8658C31.86 27.4379 31.137 27.2082 30.3958 27.2083ZM30.3958 34.375V37.9583C30.871 37.9583 31.3267 37.7696 31.6627 37.4336C31.9987 37.0976 32.1875 36.6418 32.1875 36.1667C32.1875 35.6915 31.9987 35.2358 31.6627 34.8998C31.3267 34.5638 30.871 34.375 30.3958 34.375Z" fill="white"/>
</svg>
