<svg width="59" height="58" viewBox="0 0 59 58" fill="none" xmlns="http://www.w3.org/2000/svg">
<rect y="0.5" width="59" height="57" rx="12" fill="#ED1C24"/>
<path d="M46.9072 27.1465C46.7462 26.4521 46.4357 25.8011 45.9972 25.239C45.5522 24.6812 44.9908 24.2273 44.3522 23.909C43.8486 23.6613 43.302 23.5127 42.7422 23.4715C42.4569 20.4092 41.0997 17.5459 38.9097 15.3865C36.416 12.8966 33.0361 11.498 29.5122 11.498C25.9883 11.498 22.6084 12.8966 20.1147 15.3865C17.9247 17.5459 16.5675 20.4092 16.2822 23.4715C15.7224 23.5127 15.1758 23.6613 14.6722 23.909C14.0304 24.2223 13.468 24.6771 13.0272 25.239C12.5854 25.7999 12.2745 26.4523 12.1171 27.1486C11.9596 27.845 11.9597 28.5677 12.1172 29.264L14.8647 40.5165C15.3376 42.2406 16.3651 43.7611 17.7885 44.8428C19.2119 45.9246 20.9519 46.5075 22.7397 46.5015H36.2322C38.0261 46.5034 39.7708 45.915 41.1971 44.827C42.6235 43.7391 43.6522 42.2121 44.1247 40.4815L46.8547 29.264C47.0297 28.571 47.0472 27.8465 46.9072 27.1465ZM23.9822 38.3815C23.9822 38.7296 23.8439 39.0634 23.5978 39.3096C23.3516 39.5557 23.0178 39.694 22.6697 39.694C22.3216 39.694 21.9878 39.5557 21.7416 39.3096C21.4955 39.0634 21.3572 38.7296 21.3572 38.3815V31.4865C21.3572 31.1384 21.4955 30.8046 21.7416 30.5584C21.9878 30.3123 22.3216 30.174 22.6697 30.174C23.0178 30.174 23.3516 30.3123 23.5978 30.5584C23.8439 30.8046 23.9822 31.1384 23.9822 31.4865V38.3815ZM30.8247 38.3815C30.8247 38.5539 30.7908 38.7245 30.7248 38.8838C30.6588 39.043 30.5622 39.1877 30.4403 39.3096C30.3184 39.4315 30.1737 39.5281 30.0145 39.5941C29.8552 39.6601 29.6846 39.694 29.5122 39.694C29.3398 39.694 29.1692 39.6601 29.0099 39.5941C28.8507 39.5281 28.706 39.4315 28.5841 39.3096C28.4622 39.1877 28.3656 39.043 28.2996 38.8838C28.2337 38.7245 28.1997 38.5539 28.1997 38.3815V31.4865C28.1997 31.1384 28.338 30.8046 28.5841 30.5584C28.8303 30.3123 29.1641 30.174 29.5122 30.174C29.8603 30.174 30.1941 30.3123 30.4403 30.5584C30.6864 30.8046 30.8247 31.1384 30.8247 31.4865V38.3815ZM37.6672 38.3815C37.6672 38.7296 37.5289 39.0634 37.2828 39.3096C37.0366 39.5557 36.7028 39.694 36.3547 39.694C36.0066 39.694 35.6728 39.5557 35.4266 39.3096C35.1805 39.0634 35.0422 38.7296 35.0422 38.3815V31.4865C35.0422 31.1384 35.1805 30.8046 35.4266 30.5584C35.6728 30.3123 36.0066 30.174 36.3547 30.174C36.7028 30.174 37.0366 30.3123 37.2828 30.5584C37.5289 30.8046 37.6672 31.1384 37.6672 31.4865V38.3815ZM18.9247 23.4365C19.2125 21.0874 20.2855 18.9043 21.9697 17.2415C23.9734 15.2474 26.6853 14.1279 29.5122 14.1279C32.3391 14.1279 35.051 15.2474 37.0547 17.2415C38.7389 18.9043 39.8119 21.0874 40.0997 23.4365H18.9247Z" fill="white"/>
</svg>
