<svg width="59" height="57" viewBox="0 0 59 57" fill="none" xmlns="http://www.w3.org/2000/svg">
<rect width="59" height="57" rx="12" fill="#ED1C24"/>
<path d="M30.9798 13.125L47.2534 41.3125C47.4034 41.5722 47.4823 41.8668 47.4823 42.1666C47.4823 42.4665 47.4034 42.7611 47.2534 43.0208C47.1035 43.2805 46.8879 43.4961 46.6282 43.6461C46.3685 43.796 46.0739 43.875 45.774 43.875H13.2268C12.927 43.875 12.6324 43.796 12.3727 43.6461C12.113 43.4961 11.8973 43.2805 11.7474 43.0208C11.5975 42.7611 11.5186 42.4665 11.5186 42.1666C11.5186 41.8668 11.5975 41.5722 11.7474 41.3125L28.021 13.125C28.171 12.8653 28.3866 12.6496 28.6463 12.4997C28.906 12.3498 29.2006 12.2709 29.5004 12.2709C29.8003 12.2709 30.0949 12.3498 30.3546 12.4997C30.6142 12.6496 30.8299 12.8653 30.9798 13.125ZM27.7921 35.3333V38.75H31.2088V35.3333H27.7921ZM27.7921 23.375V31.9166H31.2088V23.375H27.7921Z" fill="white"/>
</svg>
