<svg width="47" height="48" viewBox="0 0 47 48" fill="none" xmlns="http://www.w3.org/2000/svg">
<rect width="47" height="48" rx="10" fill="#ED1C24"/>
<path d="M24.6908 11.6249L37.7891 34.3124C37.9097 34.5215 37.9733 34.7586 37.9733 34.9999C37.9733 35.2413 37.9098 35.4784 37.7891 35.6874C37.6684 35.8965 37.4948 36.07 37.2858 36.1907C37.0768 36.3114 36.8397 36.3749 36.5983 36.3749H10.4018C10.1605 36.3749 9.92335 36.3114 9.71433 36.1907C9.50531 36.07 9.33174 35.8965 9.21106 35.6874C9.09038 35.4784 9.02685 35.2413 9.02686 34.9999C9.02686 34.7586 9.09039 34.5215 9.21107 34.3124L22.3093 11.6249C22.43 11.4159 22.6036 11.2424 22.8126 11.1217C23.0216 11.001 23.2587 10.9375 23.5001 10.9375C23.7414 10.9375 23.9785 11.001 24.1875 11.1217C24.3966 11.2424 24.5701 11.4159 24.6908 11.6249ZM22.1251 29.4999V32.2499H24.8751V29.4999H22.1251ZM22.1251 19.8749V26.7499H24.8751V19.8749H22.1251Z" fill="white"/>
</svg>
