<svg width="59" height="58" viewBox="0 0 59 58" fill="none" xmlns="http://www.w3.org/2000/svg">
<rect y="0.5" width="59" height="57" rx="12" fill="#ED1C24"/>
<path d="M29.5003 17.7461C36.8985 17.7461 42.8958 23.7434 42.8958 31.1416V40.9258C42.8958 41.2822 42.7542 41.624 42.5022 41.876C42.2502 42.128 41.9084 42.2695 41.552 42.2695H17.4485C17.0921 42.2695 16.7504 42.128 16.4984 41.876C16.2464 41.624 16.1048 41.2822 16.1048 40.9258V31.1416C16.1048 23.7434 22.1021 17.7461 29.5003 17.7461ZM28.3245 10.3555H30.6761C30.7652 10.3555 30.8506 10.3909 30.9136 10.4539C30.9766 10.5169 31.012 10.6023 31.012 10.6914V14.7227C31.012 14.8118 30.9766 14.8972 30.9136 14.9602C30.8506 15.0232 30.7652 15.0586 30.6761 15.0586H28.3245C28.2354 15.0586 28.15 15.0232 28.087 14.9602C28.024 14.8972 27.9886 14.8118 27.9886 14.7227V10.6914C27.9886 10.6023 28.024 10.5169 28.087 10.4539C28.15 10.3909 28.2354 10.3555 28.3245 10.3555ZM15.4434 15.5482C15.4746 15.517 15.5117 15.4922 15.5524 15.4753C15.5932 15.4584 15.6369 15.4497 15.6811 15.4497C15.7252 15.4497 15.7689 15.4584 15.8097 15.4753C15.8505 15.4922 15.8876 15.517 15.9188 15.5482L18.7692 18.3987C18.8321 18.4616 18.8675 18.5471 18.8675 18.6361C18.8675 18.7252 18.8321 18.8106 18.7692 18.8736L17.1063 20.5365C17.0433 20.5994 16.9579 20.6348 16.8688 20.6348C16.7798 20.6348 16.6944 20.5994 16.6314 20.5365L13.7809 17.686C13.718 17.6231 13.6826 17.5376 13.6826 17.4486C13.6826 17.3595 13.718 17.2741 13.7809 17.2111L15.4438 15.5482H15.4434ZM43.5614 15.5482L45.2243 17.2111C45.2871 17.2741 45.3224 17.3594 45.3224 17.4484C45.3224 17.5373 45.2871 17.6226 45.2243 17.6856L42.3738 20.5369C42.3426 20.5681 42.3056 20.5929 42.2648 20.6098C42.224 20.6267 42.1803 20.6354 42.1362 20.6354C42.092 20.6354 42.0483 20.6267 42.0075 20.6098C41.9667 20.5929 41.9297 20.5681 41.8985 20.5369L40.2356 18.874C40.2044 18.8428 40.1796 18.8058 40.1627 18.765C40.1458 18.7242 40.1371 18.6805 40.1371 18.6363C40.1371 18.5922 40.1458 18.5485 40.1627 18.5077C40.1796 18.4669 40.2044 18.4299 40.2356 18.3987L43.0864 15.5482C43.1494 15.4853 43.2348 15.4499 43.3239 15.4499C43.413 15.4499 43.4984 15.4853 43.5614 15.5482ZM16.0628 44.957H42.9378C43.2942 44.957 43.636 45.0986 43.888 45.3506C44.14 45.6026 44.2815 45.9444 44.2815 46.3008V47.3086C44.2815 47.3977 44.2461 47.4831 44.1831 47.5461C44.1201 47.6091 44.0347 47.6445 43.9456 47.6445H15.055C14.9659 47.6445 14.8804 47.6091 14.8174 47.5461C14.7544 47.4831 14.719 47.3977 14.719 47.3086V46.3008C14.719 45.9444 14.8606 45.6026 15.1126 45.3506C15.3646 45.0986 15.7064 44.957 16.0628 44.957ZM22.2776 31.6455V42.2695H24.9651V31.6455H22.2776Z" fill="white"/>
</svg>
