<svg width="59" height="58" viewBox="0 0 59 58" fill="none" xmlns="http://www.w3.org/2000/svg">
<rect y="0.5" width="59" height="57" rx="12" fill="#ED1C24"/>
<path d="M11.583 18.6979C11.583 17.1536 12.1965 15.6725 13.2885 14.5805C14.3805 13.4885 15.8616 12.875 17.4059 12.875H32.6351C34.1794 12.875 35.6605 13.4885 36.7525 14.5805C37.8445 15.6725 38.458 17.1536 38.458 18.6979V30.3438C38.458 31.8881 37.8445 33.3692 36.7525 34.4612C35.6605 35.5532 34.1794 36.1667 32.6351 36.1667H17.4059C15.8616 36.1667 14.3805 35.5532 13.2885 34.4612C12.1965 33.3692 11.583 31.8881 11.583 30.3438V18.6979ZM46.7355 13.9446C46.9424 14.0619 47.1144 14.2321 47.234 14.4376C47.3536 14.6432 47.4165 14.8768 47.4163 15.1146V33.9271C47.4163 34.1649 47.3532 34.3984 47.2334 34.6039C47.1136 34.8093 46.9415 34.9793 46.7345 35.0964C46.5275 35.2136 46.2932 35.2737 46.0554 35.2706C45.8176 35.2676 45.5849 35.2015 45.381 35.0791L40.2497 32.001V17.0406L45.381 13.9625C45.5848 13.8402 45.8173 13.7741 46.0549 13.7709C46.2926 13.7678 46.5268 13.8277 46.7337 13.9446M22.5749 37.9583C22.2888 38.8679 21.72 39.6625 20.9511 40.2264C20.1822 40.7903 19.2535 41.0942 18.3 41.0938H14.7166C14.3602 41.0938 14.0185 41.2353 13.7665 41.4873C13.5145 41.7393 13.3729 42.0811 13.3729 42.4375V45.3042C13.3729 45.7318 13.5428 46.142 13.8452 46.4444C14.1476 46.7468 14.5577 46.9167 14.9854 46.9167H18.4684C21.0343 46.9159 23.5198 46.0211 25.4974 44.3862C27.475 42.7513 28.8212 40.4784 29.3044 37.9583H22.5749Z" fill="white"/>
</svg>
