<svg width="44" height="44" viewBox="0 0 44 44" fill="none" xmlns="http://www.w3.org/2000/svg">
<rect width="44" height="44" rx="12" fill="#EAEAEA"/>
<path d="M28.7399 12.8554L26.3233 11.5867C24.2014 10.4738 23.1405 9.91675 21.9998 9.91675C20.8592 9.91675 19.7983 10.4726 17.6764 11.5867L17.2885 11.7909L28.0705 17.9522L32.9232 15.5234C32.1426 14.6389 30.8835 13.978 28.7399 12.853M33.7787 17.1232L28.9478 19.5399V23.2084C28.9478 23.4488 28.8523 23.6793 28.6823 23.8492C28.5124 24.0192 28.2819 24.1147 28.0415 24.1147C27.8011 24.1147 27.5706 24.0192 27.4007 23.8492C27.2307 23.6793 27.1353 23.4488 27.1353 23.2084V20.4462L22.9061 22.5607V33.9674C23.7737 33.7511 24.7609 33.234 26.3233 32.4135L28.7399 31.1448C31.339 29.7805 32.6392 29.099 33.3618 27.8726C34.0832 26.6473 34.0832 25.1212 34.0832 22.0726V21.9312C34.0832 19.6438 34.0832 18.2132 33.7787 17.1232ZM21.0936 33.9674V22.5607L10.221 17.1232C9.9165 18.2132 9.9165 19.6438 9.9165 21.9288V22.0702C9.9165 25.1212 9.9165 26.6473 10.6379 27.8726C11.3605 29.099 12.6606 29.7817 15.2598 31.146L17.6764 32.4135C19.2388 33.234 20.226 33.7511 21.0936 33.9674ZM11.0765 15.5246L21.9998 20.9863L26.1215 18.9261L15.3842 12.7902L15.2598 12.8554C13.1174 13.9792 11.8571 14.6401 11.0765 15.5258" fill="#ED1C24"/>
</svg>
