<svg width="19" height="19" viewBox="0 0 19 19" fill="none" xmlns="http://www.w3.org/2000/svg">
<g clip-path="url(#clip0_3219_4992)">
<path d="M16.1217 10.0598C16.2701 9.91132 16.3535 9.70999 16.3535 9.50007C16.3535 9.29015 16.2701 9.08882 16.1217 8.94036L11.6433 4.4619C11.5702 4.38629 11.4829 4.32598 11.3863 4.28449C11.2897 4.243 11.1858 4.22116 11.0807 4.22024C10.9756 4.21933 10.8713 4.23936 10.7741 4.27917C10.6768 4.31897 10.5884 4.37776 10.514 4.45209C10.4397 4.52642 10.3809 4.61481 10.3411 4.7121C10.3013 4.8094 10.2813 4.91364 10.2822 5.01876C10.2831 5.12388 10.3049 5.22776 10.3464 5.32435C10.3879 5.42093 10.4482 5.50829 10.5239 5.58132L13.6509 8.7084L3.16689 8.7084C2.95693 8.7084 2.75557 8.79181 2.6071 8.94028C2.45863 9.08874 2.37523 9.2901 2.37523 9.50007C2.37523 9.71003 2.45863 9.91139 2.6071 10.0599C2.75557 10.2083 2.95693 10.2917 3.16689 10.2917L13.6509 10.2917L10.5239 13.4188C10.3796 13.5681 10.2998 13.7681 10.3017 13.9757C10.3035 14.1832 10.3867 14.3818 10.5335 14.5286C10.6803 14.6754 10.8788 14.7586 11.0864 14.7604C11.294 14.7622 11.494 14.6824 11.6433 14.5382L16.1217 10.0598Z" fill="white"/>
</g>
<defs>
<clipPath id="clip0_3219_4992">
<rect width="19" height="19" fill="white" transform="matrix(0 1 -1 0 19 0)"/>
</clipPath>
</defs>
</svg>
